<svg width="45" height="45" viewBox="0 0 45 45" fill="none" xmlns="http://www.w3.org/2000/svg">
<path fill-rule="evenodd" clip-rule="evenodd" d="M0.0205078 22.4788C0.0205078 10.0618 10.0809 0 22.4993 0C34.9163 0 44.9781 10.0618 44.9781 22.4788C44.9781 34.8958 34.9177 44.9576 22.4993 44.9576C10.0823 44.9576 0.0205078 34.8958 0.0205078 22.4788ZM29.8508 31.7866L33.5403 14.4011L33.5388 14.3996C33.8651 12.8769 32.9863 12.2692 31.9798 12.6318L10.3073 20.9896C8.82085 21.5697 8.8484 22.3948 10.0536 22.7748L15.6007 24.5064L28.4717 16.4039C29.0706 16.0051 29.6246 16.2313 29.1707 16.6301L18.7565 26.0393L18.3577 31.7591C18.9378 31.7591 19.1915 31.5053 19.4903 31.2065L22.2008 28.5961L27.8205 32.738C28.8444 33.3181 29.5782 33.0193 29.8508 31.7866Z" fill="#2873B9"/>
</svg>
