<svg width="45" height="45" viewBox="0 0 45 45" fill="none" xmlns="http://www.w3.org/2000/svg">
<path fill-rule="evenodd" clip-rule="evenodd" d="M38.4218 6.57806C40.4941 8.65534 42.1198 11.0738 43.2537 13.7683C44.4228 16.558 45.0149 19.5234 44.9998 22.5791C44.9848 25.6198 44.3827 28.5651 43.1985 31.3348C42.0595 34.0092 40.4288 36.4076 38.3566 38.4598C36.2893 40.512 33.8759 42.1176 31.1914 43.2365C28.4468 44.3755 25.5316 44.9576 22.5261 44.9576H22.4207C18.9385 44.9425 15.4814 44.1096 12.3906 42.5491H4.75881C3.48434 42.5491 2.45072 41.5155 2.45072 40.241V32.6143C0.890249 29.5235 0.0573296 26.0664 0.0422768 22.5842C0.0272241 19.5435 0.609264 16.5881 1.76331 13.8084C2.87721 11.124 4.48786 8.71555 6.54005 6.64328C8.59224 4.57102 10.9906 2.94532 13.665 1.80131C16.4347 0.617163 19.3801 0.0150528 22.4207 0H22.5211C25.5416 0 28.4719 0.587058 31.2316 1.74612C33.931 2.87508 36.3495 4.50579 38.4218 6.57806ZM28.8541 25.0931C29.3609 25.2737 32.0854 26.6084 32.6323 26.8894C32.7215 26.9327 32.8059 26.9727 32.8854 27.0104C33.294 27.2039 33.5726 27.3359 33.686 27.5417C33.8215 27.7725 33.8215 28.8814 33.3649 30.1759C32.9083 31.4755 30.7056 32.6496 29.6368 32.8101C27.8807 33.0711 26.5059 32.9406 22.9935 31.4253C17.8216 29.1874 14.3288 24.1957 13.6455 23.2191C13.5949 23.1468 13.5598 23.0966 13.5404 23.071C13.5337 23.0618 13.526 23.0513 13.5172 23.0393C13.1726 22.5693 11.2875 19.9982 11.2875 17.3459C11.2875 14.8068 12.5341 13.4705 13.112 12.8511C13.153 12.8071 13.1907 12.7667 13.2243 12.7298C13.7311 12.1828 14.3282 12.0424 14.6995 12.0424C15.0708 12.0424 15.4371 12.0424 15.7582 12.0624C15.7991 12.0649 15.8419 12.0648 15.8863 12.0647C16.2065 12.0641 16.6103 12.0633 17.0025 13.0107C17.157 13.3819 17.3835 13.9334 17.6217 14.5135C18.0951 15.6668 18.6151 16.9332 18.7085 17.1202C18.849 17.4011 18.9393 17.7172 18.7587 18.0885C18.2883 19.0271 17.803 19.5348 17.4587 19.895C17.0281 20.3456 16.8179 20.5654 17.133 21.1091C19.2755 24.787 21.408 26.0615 24.6594 27.6872C25.2063 27.9632 25.5324 27.918 25.8536 27.5467C26.1847 27.1704 27.2384 25.931 27.6097 25.3741C27.976 24.8121 28.3473 24.9024 28.8541 25.0931Z" fill="#2873B9"/>
</svg>
