<svg width="45" height="45" viewBox="0 0 45 45" fill="none" xmlns="http://www.w3.org/2000/svg">
<path fill-rule="evenodd" clip-rule="evenodd" d="M22.4788 44.9576C34.8935 44.9576 44.9576 34.8935 44.9576 22.4788C44.9576 10.0641 34.8935 0 22.4788 0C10.0641 0 0 10.0641 0 22.4788C0 34.8935 10.0641 44.9576 22.4788 44.9576ZM33.6469 15.6122C34.0271 15.9726 34.3026 16.4292 34.444 16.9337V16.9326C34.8169 18.8228 34.9913 20.7469 34.9643 22.6733C34.9766 24.5917 34.802 26.5066 34.4429 28.3911C34.3021 28.8955 34.027 29.3523 33.6469 29.7126C33.256 30.0841 32.7768 30.3498 32.2547 30.4847C29.0067 30.8476 25.7395 31.0109 22.4715 30.9737C22.4715 30.9737 14.6809 30.9737 12.7008 30.4597C12.1722 30.3192 11.6914 30.0539 11.3054 29.6866C10.9194 29.3193 10.6415 28.8646 10.499 28.3661C10.1483 26.4786 9.9787 24.565 9.99119 22.6494C9.97901 20.732 10.149 18.8178 10.499 16.9326C10.6447 16.4321 10.9235 15.9753 11.3085 15.6049C11.7004 15.2306 12.1786 14.9589 12.7008 14.8141C15.9446 14.4512 19.2076 14.2879 22.4715 14.325C22.4715 14.325 30.3005 14.325 32.2547 14.8401C32.7768 14.975 33.256 15.2407 33.6469 15.6122ZM19.9825 19.0876V26.2122L26.4963 22.6504L19.9825 19.0876Z" fill="#2873B9"/>
</svg>
