<?xml version="1.0" encoding="UTF-8"?>
<!DOCTYPE svg PUBLIC "-//W3C//DTD SVG 1.0//EN" "http://www.w3.org/TR/2001/REC-SVG-20010904/DTD/svg10.dtd">
<!-- Creator: CorelDRAW 2019 (64-Bit) -->
<svg xmlns="http://www.w3.org/2000/svg" xml:space="preserve" width="1080.07mm" height="425.703mm" version="1.0" style="shape-rendering:geometricPrecision; text-rendering:geometricPrecision; image-rendering:optimizeQuality; fill-rule:evenodd; clip-rule:evenodd"
viewBox="0 0 275.9654 108.7701"
 xmlns:xlink="http://www.w3.org/1999/xlink"
 xmlns:xodm="http://www.corel.com/coreldraw/odm/2003">
 <defs>
  <style type="text/css">
   <![CDATA[
    .fil1 {fill:#2873B9}
    .fil0 {fill:#ECEDF0}
   ]]>
  </style>
 </defs>
 <g id="Слой_x0020_1">
  <metadata id="CorelCorpID_0Corel-Layer"/>
  <path class="fil0" d="M86.575 34.6523c0.3155,-0.9085 -0.8379,-0.9767 -1.2818,-1.3399 -0.3349,-0.274 -0.1627,-0.6079 -0.2489,-1.103 -0.0631,-0.3618 -0.2705,-0.6743 -0.1999,-0.9847 0.0579,-0.2544 0.3199,-0.6135 0.3805,-0.9787 0.1529,-0.9219 -0.7628,-1.1836 -0.2703,-2.07 0.4464,-0.8035 0.5923,-0.7937 0.3455,-1.9904 -0.1627,-0.7887 -0.6577,-1.0635 -1.1314,-1.5725 -0.8111,-0.8715 0.2832,-1.3743 0.5133,-1.6672 0.6726,-0.8558 0.569,-0.8044 0.8613,-1.8451 0.3809,-1.356 -0.6783,-1.1905 -1.0993,-1.3595 -0.3543,-0.1423 -0.4372,-0.3604 -0.9196,-0.4387 -0.8653,-0.1405 -1.4128,0.3927 -2.4031,0.2466 -0.6769,-0.0999 -1.2556,-1.0182 -1.8781,1.653 -0.2794,1.1987 -0.4484,3.1132 -1.7447,3.5727 -0.6535,0.2316 -2.6973,0.5672 -2.0201,1.7654 0.2185,0.3867 0.6388,0.1457 1.0384,0.1368 0.3309,0.6254 0.1799,0.6519 0.0345,1.3024 -0.1133,0.507 0.2092,0.9884 0.0003,1.435 -0.2298,0.4913 -0.4467,-0.0982 -0.6664,0.9648 -0.1183,0.5725 -0.0207,0.8326 0.3612,1.1645 0.5447,-0.3648 0.9962,-2.0807 1.9016,0.4416 0.3719,1.0361 0.5145,0.8263 1.2528,1.1806 0,0.9388 -0.1345,0.5657 -0.4467,1.1755 -0.4672,0.9125 -0.5074,1.3402 -1.2925,0.3835 -0.9367,-1.1415 -1.5592,-0.891 -2.1146,-1.3101 -0.2487,-0.1876 -0.2752,-0.3772 -0.4891,-0.5924 -0.2704,-0.272 -0.4049,-0.2406 -0.8704,-0.3013 -0.3158,-0.0411 -0.6001,-0.2187 -0.9274,-0.2494 -0.4104,-0.0385 -0.4874,0.1622 -0.9792,0.1732 -0.3261,-0.6795 -0.0066,-0.9661 -0.7313,-1.4317 -0.8119,-0.5217 -1.7317,-0.0134 -3.7208,-0.6052 -0.6718,-0.1999 -1.378,-0.1638 -1.8597,0.1413 -0.4864,0.3081 -0.6,0.9477 -0.2193,1.4869 0.2708,0.3834 1.0144,0.8044 0.6945,1.4142 -0.5539,1.0559 -1.4536,-0.3215 -1.8105,1.2613 -0.113,0.5009 -0.167,0.437 -0.7346,0.437 -0.3299,-0.4926 -0.4524,-0.7772 -0.3827,-1.3789 0.088,-0.7603 -0.4488,-0.8809 -1.0495,-0.5947 -0.209,0.0996 -0.2678,0.2202 -0.5116,0.3903 -0.2521,0.1758 -0.3684,0.2068 -0.6427,0.3487 -0.7625,0.3945 -0.3002,0.8857 -1.0279,0.9655 -0.5848,0.0641 -1.6838,-0.9143 -3.124,-0.2507 -0.763,0.3516 -0.2024,0.823 -0.5453,1.3593 -0.1822,0.285 -0.4205,0.0553 -0.5576,-0.1125 -0.19,-0.2325 -0.1934,-0.3641 -0.5404,-0.4567 -0.3672,0.5483 0.0121,0.8402 -0.317,1.0445 -0.2873,0.1784 -0.7176,-0.1432 -1.125,-0.1432 -0.1351,0.2017 -0.1432,0.162 -0.2509,0.38 -0.2848,0.5762 -0.5941,0.4799 -1.1175,0.8652 -0.7581,0.5581 -0.3182,1.0157 -1.1551,1.4585 -0.4007,-0.7574 0.0263,-1.3714 0.5911,-1.7521 0.2704,-0.1823 0.6795,-0.3235 0.8684,-0.4834 0.242,-0.2048 0.3559,-0.6417 0.5241,-0.9179 0.6683,-1.0975 1.6146,0.0679 1.3437,-0.9765 -0.3581,-1.3806 0.7984,-0.8879 0.9987,-1.6381 -0.9605,-0.4609 -1.8295,0.4174 -2.3852,0.6791 -0.3842,0.181 -0.4102,0.0718 -0.7693,0.3123 0.0401,0.4823 0.1802,0.2871 0.1802,0.9012 -0.295,0.1976 -0.1253,0.2358 -0.5408,0.2704 -0.2145,-0.9207 -0.0584,-0.8137 -1.3506,-0.7198 -0.7027,0.051 -1.2485,0.7226 -2.1357,1.199 -0.5009,0.269 -0.8549,0.7201 -1.3474,1.0001 -0.4394,0.2498 -0.443,0.0638 -0.9343,0.0529 0,0.9267 -0.2077,0.6524 -0.9403,0.8622 -1.0225,0.2927 0.0082,2.1135 -1.4252,2.3601 -0.4488,0.0772 -1.2483,0.1785 -1.7633,0.0954 -0.7214,-0.1164 -0.889,-0.9826 -1.4645,-1.3295 -0.2254,-0.1359 -0.4766,-0.16 -0.4449,-0.5373 0.03,-0.356 0.2052,-0.2734 0.4196,-0.4902 0.2828,-0.2861 0.071,-0.3534 0.4502,-0.5412 0.4397,-0.2178 1.22,-0.0312 1.6535,-0.2392 0.5215,-0.5215 -1.1813,-2.0658 -1.5903,-2.2851 -0.9532,-0.5109 -1.5345,0.1222 -2.5446,-0.0666 -0.4271,-0.0798 -0.2091,-0.2483 -0.822,-0.2619 0.0257,1.152 1.3366,0.2731 1.1631,1.6946 -0.0384,0.3147 -0.0342,1.0668 -0.0884,1.3629 -0.0738,0.4029 -0.4565,0.4578 -0.5333,1.0123 -0.1798,1.2983 1.094,0.0434 1.09,1.7877 -0.0012,0.5228 -0.0952,0.8075 -0.3297,1.1222 -0.1712,0.2299 0.017,-0.0064 -0.1686,0.1919 -0.1773,0.1894 -0.2962,0.5184 -0.5022,0.6694 -0.4713,-0.1258 -0.649,-0.6143 -1.0836,-0.8165 -0.4971,-0.2312 -0.4232,0.002 -0.7533,0.0443 -0.552,0.0707 -0.6158,-0.7137 -1.3551,0.3741 -0.1331,0.1958 -0.3811,0.5891 -0.5415,0.7202 -0.2668,0.218 -0.5771,0.2187 -0.9358,0.326 -0.3941,0.1179 -1.1867,0.7372 -1.6031,1.0106 -1.2144,0.7972 0.431,1.3987 0.6846,2.4871 -1.033,0.5466 -0.4542,0.4114 -0.9013,0.6309l-0.1322 0.0566c-0.5306,0.119 -0.8303,-0.2107 -1.2552,-0.4717 -0.6062,-0.3724 -1.0228,-0.2361 -1.59,-0.4829 -0.5267,-0.2292 -0.6089,-0.7208 -1.193,-0.8048 -0.5517,-0.0793 -1.0951,0.687 -1.0569,0.9819l0.6895 1.0229c0.3766,0.7021 0.6065,0.3442 1.2933,0.3289 0.158,0.2986 0.4412,0.8364 0.4506,1.2618 -0.0995,0.0526 -0.1814,0.0843 -0.2992,0.1526 -0.4657,0.27 -0.3752,0.2791 -0.9064,0.1592 -0.8153,-0.184 -0.8846,0.1255 -1.5407,-0.3595 -0.4329,-0.32 -0.4077,-0.9241 -0.8108,-1.0818 -0.4429,-0.1732 -1.3194,0.1568 -1.5423,-0.3546 -0.2086,-0.4784 0.2326,-0.8911 0.0431,-1.4731 -0.1762,-0.5412 -0.6853,-0.5147 -0.5155,-1.3453 0.1216,-0.5945 0.6197,-0.5503 0.2838,-1.3099 -0.4342,-0.9818 -1.4676,-0.9402 -1.9518,-1.7482 -0.4398,-0.734 -1.3014,-0.8629 -1.5288,-1.2809 -0.3485,-0.6406 0.1846,-0.6632 0.7694,-0.1228 0.3976,0.3674 0.7555,0.4938 1.3048,0.5879 0.3283,0.0563 0.4875,0.137 0.7581,0.2333 0.4874,0.1735 1.0324,0.1735 1.5553,0.3373 0.5242,0.1642 0.8064,0.4196 1.3035,0.5891 0.9501,0.324 1.4514,-0.0706 2.2549,0.3587 1.2451,0.6652 2.5008,0.1753 3.7437,-0.2447 0.7497,-0.2534 0.95,-0.871 1.4946,-1.2993 0.2014,-0.1583 0.3253,-0.2758 0.4732,-0.5182 0.5064,-0.83 -0.0419,-1.2589 -0.2755,-2.0219 -0.0826,-0.2699 -0.0917,-0.6035 -0.1936,-0.7977 -0.1826,-0.3479 -0.6881,-0.282 -1.0974,-0.7953 -0.497,-0.6233 -1.2673,-0.4327 -2.0245,-0.6793 -0.3937,-0.1282 -0.2559,-0.2264 -0.4702,-0.5212 -0.2707,-0.3725 -1.26,-0.5369 -1.7959,-0.998 -0.253,-0.2177 -0.254,-0.357 -0.4576,-0.5338 -0.3361,-0.292 -0.9331,-0.2963 -1.4004,-0.4923 -0.5821,-0.2441 -0.4529,-0.6057 -1.0448,-0.8523 -0.6104,-0.2543 -0.9474,0.1939 -1.5409,0.1884 -0.5296,-0.0049 -0.6609,-0.4909 -1.2577,-0.63 -0.295,0.1975 -0.4296,0.529 -0.8111,0.6309 -0.0738,-0.1395 -0.1186,-0.2792 -0.2028,-0.4281 -0.1358,-0.2398 -0.2372,-0.3363 -0.4664,-0.2942 -0.0884,0.0162 -0.1729,0.0468 -0.1796,0.0483 -0.425,0.092 -0.9076,0.0127 -1.0438,-0.4976 0.4518,0 0.5549,0.0901 1.0815,0.0901 0.12,-0.1792 0.1641,-0.2497 0.2704,-0.4506 -0.4783,-0.5503 -0.473,-0.1902 -1.0713,-0.4608 -0.4464,-0.2019 -0.2618,-0.5141 -1.0016,-0.5306 -0.1212,0.2292 -0.2628,0.9038 -0.4298,1.0119 -0.2809,0.1819 -0.6716,-0.2485 -0.9221,-0.381 -0.246,0.4649 -0.4401,0.919 -1.0834,0.9895 -1.8727,0.2051 -1.1015,1.1093 -2.3206,1.8252 -0.262,0.1539 -0.4273,0.1725 -0.6575,0.3338 -0.76,0.5326 -0.2866,0.9322 0.1139,1.5202 0.5765,0.8466 1.9027,1.819 2.0231,2.3117 0.1078,0.4411 -0.1683,0.7647 -0.346,1.0233 -0.4678,0.6806 -0.6419,1.2803 -0.7481,2.1416 -0.0591,0.4796 0.1173,0.6788 0.3806,0.9645 0.2693,0.292 1.1024,1.3768 0.9559,1.8104 -0.2508,0.7427 -0.7422,0.1047 -0.4992,2.2391 0.0871,0.7645 0.0146,0.5474 0.4481,0.9939 0.361,0.3719 0.2124,0.5367 0.5387,0.9033 0.4003,0.4497 0.6144,0.8579 0.319,1.5348 -0.2099,0.4811 -0.64,0.6846 0.2532,1.0475 0.3002,0.122 0.5335,0.1925 0.8361,0.3355 0.858,0.4054 0.6575,0.7109 0.4054,1.5541 -0.2348,0.7852 -0.1524,1.023 -0.8499,1.4934 -0.5795,0.3909 -0.948,0.4512 -1.6257,0.7176 -1.2522,0.4922 -0.8553,1.3631 -1.9133,2.6831 -0.3115,0.3887 -0.923,0.8072 -1.1093,1.2446 -0.1105,0.2594 -0.177,0.7437 0.3388,0.6214 0.404,-0.0957 0.1917,-0.3928 0.7549,-0.4397 0.0248,0.2977 0.1173,0.5407 0.1803,0.8111 0.7446,0.0166 0.515,0.3182 0.9283,0.432 0.2374,0.0654 0.3775,0.0034 0.5479,-0.0388 0.4331,-0.1073 0.0919,-0.1205 0.5066,-0.0327 0,0.9293 -0.1997,0.1578 -1.322,0.7509 -0.2333,0.1233 -0.1661,0.0817 -0.3989,0.1419 -0.3968,0.1026 -0.4452,0.2255 -0.8417,0.2539 -0.2516,0.018 -0.095,-0.0524 -0.4116,0.1151 0.1187,1.4259 0.4858,0.7992 -0.7101,2.2641 -0.6035,0.7393 -0.4488,1.2808 0.1028,2.0384 0.8529,1.1714 1.3462,-0.2994 1.3326,2.4613 -0.0043,0.8754 -0.2852,0.7536 -0.3575,1.355 -0.0762,0.6342 0.0721,1.1371 0.0828,1.6149 0.855,0 1.148,-0.1527 1.9628,0.2904 0.9955,0.5413 1.3546,0.091 1.9741,0.3668 0.7158,0.3186 0.3316,1.1932 0.5538,1.882l0.3226 0.9391c0.1256,0.4465 0.2253,0.5368 0.41,0.8518 0.2722,0.4643 0.5019,1.2564 0.7928,1.6406 0.3479,0.4596 0.4616,0.1093 0.9283,0.3335 0.2595,0.1247 0.4254,0.4439 0.3414,0.8812 -0.1682,0.8749 -0.8356,0.6872 -1.3662,1.1681 -0.588,0.5329 -0.0749,1.3098 -0.0613,1.9209 0.5347,0.0445 0.9495,0.2521 1.5996,0.16 1.0493,-0.1486 1.9908,-0.6831 2.3867,0.7204 0.1419,0.5031 0.2841,0.927 0.5199,1.3727 1.9544,0 1.1401,1.2459 2.015,2.2221 0.3263,0.3641 0.707,0.1557 1.0671,0.0471 0.8766,-0.2646 1.5083,0.2115 2.1156,0.5543 0.6367,0.3594 1.3276,0.5277 1.9403,0.9437 0.2962,0.2011 0.5025,0.3537 0.8704,0.4815 0.3999,0.1389 0.6943,0.1434 0.9342,0.5123 0.275,0.4229 0.0603,0.6153 -0.0557,1.0612 -0.0842,0.3237 -0.1064,0.924 -0.1571,1.2855 -0.2785,1.9861 -2.4211,1.0863 -2.4211,3.347 0.8283,-0.193 0.6031,-0.2293 1.0254,-0.7804 0.5341,-0.697 1.2521,-0.0679 -0.7514,1.2347 -0.5486,0.3566 -0.3806,0.5372 -1.3555,0.5372 -0.1075,0.4614 0.0736,0.514 0.2975,0.8739 0.1239,0.1991 0.2059,0.3523 0.0477,0.5528 -0.0099,0.0126 -0.0293,0.0358 -0.0406,0.0495 -0.3362,0.4051 -0.3588,0.7491 -0.5848,1.2178 -0.2606,0.5403 -0.9864,0.3835 -1.5223,0.6407 0.0349,0.4192 0.1614,0.447 0.4216,0.6599 0.7585,0.6208 0.975,1.0599 2.0223,1.4025 0.9586,0.3136 1.3053,0.7 1.903,1.4317 0.1663,0.2036 0.3935,0.4627 0.52,0.6516 0.5152,-0.345 0.7531,-0.7125 1.7101,-0.6312 0.6938,0.059 1.1028,0.5395 1.8139,0.6221 1.0413,0.121 1.1772,-0.1041 1.8187,0.5246 1.3326,1.3061 1.2774,1.5279 3.1313,1.4642 0.8705,-0.0299 0.8935,0.5756 1.4133,1.021 0.5176,0.4436 1.653,0.4597 2.4742,1.1308 0.253,0.2067 0.3605,0.4625 0.7068,0.555 0.4905,-0.3284 0.3322,-0.6575 0.9914,-0.8111 -0.044,-0.5285 -0.4767,-0.9835 -0.7214,-1.3515 -1.5366,-2.3118 -0.5281,-2.119 -0.7366,-3.2212 -0.0905,-0.4787 -0.6535,-0.9645 -0.8435,-1.334 -0.3193,-0.621 0.1871,-0.9638 0.4327,-1.3695 0.3529,-0.5829 -0.0598,-1.164 0.9635,-1.1995 1.5635,-0.0542 1.8593,-0.3616 2.2571,-2.069 -0.7208,-0.4827 -0.6402,-0.2899 -0.7342,-1.3387 -0.0872,-0.9733 -0.6434,-1.3398 -1.3748,-1.7797 -0.2639,-0.1587 -0.4566,-0.213 -0.7184,-0.3631 -0.263,-0.1509 -0.3815,-0.3385 -0.5042,-0.5773 -0.097,-0.1888 -0.2525,-0.5554 -0.2736,-0.808l-0.0901 -0.1803c-0.6258,-0.4585 -0.2348,-1.4589 -0.0712,-2.1441 0.1836,-0.7688 0.2515,-2.0768 0.4317,-2.4523 0.6818,0.0567 1.1925,1.0966 2.163,0.6309 0.4117,-0.4176 -1.0277,-1.3905 -0.1319,-2.024l3.076 -1.9763c0.7187,-0.248 0.795,0.3387 1.6672,0.051 1.3732,-0.453 0.2595,-0.3376 1.6283,-0.1274 0.8008,0.1229 1.0209,-0.0623 1.7718,0.211 0.3589,0.1306 1.0817,0.5183 1.1813,0.8915 0.3631,0.2661 0.3008,0.7113 0.1803,0.9013 0.0211,0.2476 0.0085,0.1959 0.0901,0.3605 0.5936,-0.0494 0.5153,-0.6122 1.3519,-0.6309 0.2948,0.1974 0.2806,0.3571 0.6309,0.4506 0.5685,-0.0473 0.6035,-0.4832 1.0502,-0.6628 0.5901,-0.2373 1.0594,0.113 1.4709,0.1163 0.3644,0.0029 1.1924,-0.276 1.4117,-0.2266 0.0726,0.0164 1.6148,1.2199 2.128,1.2966 0.3888,0.0581 0.3385,-0.179 1.5099,-0.1629 0.807,0.0111 0.9096,0.0728 1.2791,-0.4333 0.1969,-0.2698 0.4332,-0.8276 0.4332,-1.2792 -0.3201,-0.2143 -0.4119,-0.2754 -0.8776,-0.3842 -0.8048,-0.1879 -1.8776,0.3018 -0.7829,-1.2764 0.2484,-0.3582 0.6942,-0.5653 0.7819,-1.0111 0.0698,-0.3544 -0.0936,-0.9304 0.1266,-1.5052 0.1986,-0.5185 0.5667,-0.539 1.0224,-0.7801 -0.3071,-0.4587 -0.5439,-0.6615 -0.4278,-1.5069 0.0714,-0.5199 0.1328,-1.2204 0.3377,-1.6475 0.9546,0.0794 0.4809,0.9646 1.8545,0.5953 0.4543,-0.1222 0.5085,-0.2592 0.9904,-0.3639 0.4124,-0.0896 0.7986,-0.1331 1.1386,-0.2133 2.6383,-0.622 1.9002,-0.6448 3.053,-1.0027 0.3856,-0.1197 0.7919,-0.1196 1.2328,-0.2092 0.9081,-0.1846 0.2741,-0.4448 2.1891,-0.5146 1.0649,-0.0388 0.8221,-1.0626 1.4822,-1.3117 0.18,-0.0679 1.9245,-0.2832 2.4134,-0.1583 0.3212,0.082 0.7206,0.2561 0.9701,0.3819 0.3457,0.1742 0.6183,0.2949 0.7182,0.7238 0.0921,0.0995 0.0901,-0.1577 0.0901,0.2704 0.1189,0.1875 0.1355,0.5075 0,0.721 0,0.4281 0.002,0.1709 -0.0901,0.2704l0 0.8111c0.0921,0.0994 0.0901,-0.1577 0.0901,0.2704 0.6778,0.4539 0.95,0.1822 2.5293,0.1745 0.0947,-0.0005 0.3513,-0.0013 0.4309,0.0197 0.3889,0.1029 0.2074,0.0501 0.2843,0.2564 0.0921,0.0994 0.0901,-0.1577 0.0901,0.2704 0.0921,0.0994 0.0901,-0.1577 0.0901,0.2704l0.0901 0.1802c0.8269,0.3968 2.531,-0.4417 2.7728,-0.652 0.4025,-0.3502 0.3267,-0.9427 0.6833,-1.2094 0.2089,-0.1562 1.0623,-0.4741 1.4108,-0.4819 0,1.8161 -0.0934,0.8986 1.3253,2.0994 0.1711,0.1448 0.2424,0.2535 0.4137,0.3974 0.2123,0.1784 0.293,0.1917 0.4945,0.4068 0.2069,0.221 0.6643,0.776 0.7406,1.0619 0.1939,0.1348 0.1187,0.0132 0.1803,0.2704 0.1939,0.1348 0.1187,0.0132 0.1803,0.2704 0.2206,0.1617 0.194,0.1227 0.2704,0.4506 0.2206,0.1616 0.194,0.1227 0.2704,0.4506 0.2206,0.1616 0.194,0.1227 0.2704,0.4506l0.0901 0.1803 0.0901 0.1803 0.0901 0.1802c0.2531,0.1854 0.548,0.8158 0.6309,1.1717l0.0901 0.1803 0.0901 0.1802 0.0901 0.1803 0.0901 0.1803 0.0901 0.1802c0.3474,0.2326 0.3124,0.2615 0.7529,0.0374 0.327,-0.1664 0.423,-0.2978 0.8694,-0.3078 0.1436,0.2144 0.1091,0.0939 0.1802,0.3605 0.2234,0.1496 0.3016,0.1896 0.5133,0.3879 0.2825,0.2646 0.1505,0.2388 0.651,0.2508 1.4915,0.0355 2.21,-0.65 3.0086,0.1453 0.2071,0.2063 0.2423,0.2808 0.4101,0.4912 0.1594,0.1999 0.3007,0.3199 0.4865,0.5048 0.164,0.1632 0.3004,0.2814 0.45,0.4513 0.1803,0.2048 0.204,0.2868 0.404,0.4972 1.9501,2.0513 3.2199,-0.8191 3.7199,1.3271 0.6463,0.4328 0.8795,0.7672 1.7421,0.3903 0.8594,-0.3755 1.4533,-1.0297 2.2253,-1.4699 0.3622,-0.2065 0.5499,-0.1334 1.0435,-0.2183 1.0195,-0.1753 1.5167,-0.6308 2.1632,-1.1715 0.9386,-0.785 1.3049,0.0676 2.1943,0.042 0.3538,-0.0102 0.7788,-0.1392 1.0988,-0.1749 0.9661,-0.108 1.2862,0.2189 1.7241,0.6853 1.5832,1.6863 1.1913,0.1639 2.5051,0.6479 0.8572,0.3158 1.8893,1.0217 2.968,0.4578 0.5098,-0.2665 0.783,-1.1229 0.3396,-1.6911 -0.6391,-0.8192 -0.8237,-0.1481 -0.6093,-1.7329 0.0619,-0.4577 0.089,-0.5308 0.3766,-0.7951 0.1982,-0.1822 0.5062,-0.3506 0.7666,-0.4952 1.9382,-1.0765 1.6923,-0.6024 3.6578,0.1832 0.6376,0.2548 1.387,0.3215 2.048,0.4755 0.5104,1.0637 0.1956,3.2044 2.5258,3.1593 1.1583,-0.0224 2.2519,-0.4302 3.4327,-0.1053 0.6274,0.1726 1.1728,0.0284 1.8345,0.1483 1.712,0.3103 1.3402,0.7757 2.4059,1.4695 1.3357,0.8696 3.0711,0.8533 4.6797,0.3831 0.5592,-0.1635 1.0952,-0.1013 1.645,-0.3378 0.5436,-0.2338 0.6699,-0.4888 1.1029,-0.7897 0.5388,-0.3744 0.6387,-0.4291 1.354,-0.6288 1.2117,-0.3381 1.1827,-1.2558 2.2892,0.3965 1.1651,-0.0259 0.909,-0.4412 2.1644,0.1789 2.3298,1.1507 1.5837,0.849 2.3063,0.4164 0.5956,-0.3566 1.031,-0.1024 1.7727,-0.8409 0.4831,-0.4809 0.2384,-1.6032 0.9263,-2.4985l0.7347 -0.9777c0.6979,-0.9385 1.1103,-1.1073 0.649,-2.3982 -0.1475,-0.4126 -0.5124,-0.6945 -0.24,-1.2437 0.6613,-1.3331 0.7637,-1.3077 1.9836,-1.1286 1.3646,0.2004 2.9083,-0.7363 4.4986,-0.0846 1.8551,0.7602 1.5964,-0.0224 2.9102,2.2269 0.4332,0.7416 0.2993,2.0392 0.6008,2.824 0.3143,0.8183 1.8139,3.9853 2.51,4.3401 0.5607,0.2858 2.5532,-0.7261 3.9052,2.7635 0.1621,0.4184 0.2205,0.8997 0.4879,1.2245 1.0603,1.2885 2.3732,0.5186 3.6035,0.0374 0.9741,-0.381 1.8321,-0.3734 2.821,-0.6038 0.3218,1.3812 -0.6743,2.1344 -1.3624,4.0451 -0.1647,0.4573 -0.3496,0.9077 -0.53,1.3626 -0.3612,0.9103 -0.7158,1.7448 -1.7674,2.0241 -0.7315,0.1942 -1.7264,-0.563 -2.2749,-0.0286 -0.7666,0.7468 -0.0019,0.8987 0.0749,1.8827 0.0565,0.7241 -0.1113,1.0164 -0.1674,1.5402 -0.0593,0.554 0.0277,1.1907 -0.0936,1.6188 -0.1231,0.4344 -0.4029,0.7615 -0.9088,0.8036 0.0411,0.494 0.1803,0.4727 0.1803,1.1717 1.0298,-0.0857 1.3188,-1.5309 1.8025,-2.2532 1.1869,0 0.7649,0.9865 1.682,1.297 0.7075,0.2395 1.5081,-0.4482 2.0753,-0.7842 0.5022,-0.2975 1.3333,-0.8874 1.6347,-1.3394 0.2398,-0.3596 0.3522,-0.6065 0.5586,-0.9735 0.2921,-0.5191 0.3474,-0.4144 0.7433,-0.7888l2.6674 -3.3711c1.0418,-1.2993 2.1961,-4.4977 3.4616,-5.551 1.6322,-1.3585 0.746,-0.1893 1.2008,-3.3055 0.2773,-1.8998 -0.5726,-3.4203 0.69,-5.1681 0.2291,-0.3171 0.4925,-0.5295 0.6383,-0.8963 0.3936,-0.99 -0.4218,-1.1595 -0.1619,-2.5025 0.0608,-0.3143 0.2324,-0.9108 0.0897,-1.2683 -0.1097,-0.2746 -0.6297,-0.4515 -0.8771,-0.6562 -0.4219,-0.349 -1.0177,-1.2568 -1.3345,-1.7298l-1.8025 -0.0901c-0.1391,0.2078 -0.1745,0.1714 -0.2981,0.4229 -0.2533,0.5151 -0.2253,1.3064 -0.9098,1.4454 -1.3355,0.2712 -0.1967,-1.5516 -1.0452,-1.7782 -0.2801,0.2052 -0.3315,0.733 -0.3605,1.0815 -0.6794,0 -0.723,-0.2225 -0.6525,-0.7316 0.0524,-0.3784 0.185,-0.6934 0.041,-0.994 -0.1376,-0.2873 0.0529,-0.0386 -0.2224,-0.2342 -0.0857,-0.0608 -0.3687,-0.2315 -0.4562,-0.2735 -0.5933,-0.2845 -1.4013,0.6234 -1.8643,0.1604 -0.3638,-0.7581 0.1319,-1.0317 0.591,-1.3017 0.9019,-0.5304 1.4725,-1.2558 2.3798,-1.766 0.9007,-0.5064 1.4476,-1.4035 1.9697,-2.2662 0.264,-0.4362 0.4705,-0.8919 0.7719,-1.301 0.4515,-0.6127 0.7584,-0.3821 1.2515,-0.8214 0.5002,-0.4458 0.6033,-0.5914 1.1874,-0.9756 0.5362,-0.3526 0.5503,-0.666 0.7008,-1.3721 0.2823,-1.3245 0.5894,0.1189 2.1561,-1.9897l0.4905 -0.591c0.573,-0.5182 1.7115,-0.7776 2.4853,-0.5177 0.8258,0.2774 0.8362,0.1943 1.7149,-0.06 1.4158,-0.4097 1.3296,1.014 2.2389,0.5334 0.2517,-0.133 0.3201,-0.3976 0.448,-0.6392 0.9045,0 0.8602,0.5412 1.8556,0.2356 0.3068,-0.0942 0.6089,-0.2766 0.8756,-0.1782 0.6021,0.222 0.8256,1.1169 1.6529,-0.7203 0.2768,-0.6147 0.8922,-0.4563 1.3995,-0.0737 0.302,0.2277 0.5843,0.6259 1.023,0.5233 0.5876,-0.1374 0.4498,-0.56 1.0624,-0.0899 0.3135,0.2407 0.6761,0.4434 0.783,0.844 -1.1614,0.0967 -1.5522,0.0638 -0.9914,0.9013 0.7667,0 0.7097,-0.0544 1.2702,-0.179 0.4045,-0.0899 0.7658,-0.0013 1.3435,-0.0013 0.9,-1.7009 1.2393,-0.2065 1.8025,-0.2704 0.326,-0.1725 0.3682,-0.264 0.7911,-0.3806 1.6228,-0.4474 0.2358,-0.9758 -0.4306,-1.422 0,-0.6953 0.2629,-0.8551 0.5695,-1.4133 0.5692,-1.0362 0.7816,-0.8309 1.6695,-1.3948 0.4242,-0.2694 0.5807,-0.7185 0.8785,-1.1043 1.1288,-1.4622 0.2761,-1.784 2.9743,-2.1629 0.9656,-0.1356 1.7046,-0.8326 2.1652,-0.1995 0.2497,0.3431 0.0758,0.3226 0.4853,0.5968 0.0292,-0.0068 1.3315,-0.7798 0.4114,0.6818 -0.328,0.5211 -0.5196,1.3559 0.4899,1.1208 0,0.2463 -0.0779,0.8023 -0.0414,0.8669 0.4903,0.8688 2.2511,-1.7214 2.8498,-2.1142 0.5152,-0.3381 0.8618,-0.465 1.698,-0.465 0.5103,-2.1905 -0.6954,-2.0308 2.0463,-2.9155 0.5711,-0.1843 0.9907,0.0421 1.1082,0.4821 -0.9097,0.6092 -1.1833,-0.0481 -1.4656,1.3283 -0.0746,0.3636 -0.1711,0.7598 -0.3139,1.1286 -0.2045,0.5279 -0.1568,0.7249 0.0672,1.1481 -0.5458,0.3655 -0.5247,0.9926 -1.2285,1.3852 -0.6915,0.3856 -1.1136,0.2682 -1.724,0.8896 -0.6569,0.6687 -1.2065,1.4299 -1.9427,2.0228 -2.158,1.7379 -1.7378,2.1667 -3.1018,3.5675 -1.1742,1.2058 -1.0563,0.8982 -2.3715,1.594 -0.2734,0.1446 -0.6602,0.2744 -1.0775,0.2744 -0.0814,0.3496 -0.0596,0.9166 -0.1791,1.1728 -0.3663,0.7854 -0.9452,1.1322 -1.4958,2.5599 -1.0545,2.7342 0.1116,5.3742 0.1682,7.2109 0.0273,0.887 -0.0305,1.4772 0.3079,2.3321 1.1273,2.8481 0.383,1.7028 0.6911,3.3646 0.1121,0.6046 0.2374,0.4161 0.2374,1.2046 0.4446,-0.037 0.443,-0.313 0.7401,-0.6119 0.2657,-0.2673 0.5201,-0.3794 0.7664,-0.6756 0.6201,-0.7459 1.301,-1.7149 1.3767,-2.7691 0.1524,-2.1249 1.3218,-1.3622 2.4343,-1.6213 0,-1.0495 -0.2749,-1.9389 0.1769,-2.7972 0.7194,-1.3667 1.1468,-0.6988 2.2186,-0.8384 2.0255,-0.2638 0.3539,-1.3319 0.8284,-3.3246 0.1276,-0.5359 0.2345,-0.7509 0.5613,-1.0609 0.608,0.0506 0.5048,0.3605 1.2618,0.3605 0.9282,-1.7541 -0.6555,-1.46 -0.4513,-3.1486 0.0556,-0.4596 1.1079,-1.6214 -0.3531,-1.6349 -0.4831,-0.0044 -1.5505,0.3899 -0.785,-1.5826 0.0768,-0.1979 0.1434,-0.31 0.2585,-0.4625 0.1463,-0.194 0.1774,-0.2228 0.3519,-0.3691 0.257,-0.2156 0.5611,-0.3418 0.7753,-0.5766 0.5466,-0.599 0.4032,-1.5125 0.7101,-2.174 0.1818,-0.3918 0.2478,-0.6444 0.7554,-0.6866 0.0851,0.3188 0.0961,0.2779 0.4506,0.3605 0.15,-0.2834 0.1277,-0.4603 0.3605,-0.6309 0.5581,0.149 0.0817,0.5301 0.9012,0.721 0.5199,-0.3481 0.1978,-0.6272 0.8392,-0.9633 0.4514,-0.2365 0.7243,-0.7142 1.1435,-0.7491l0 1.7124c0.4073,-0.0339 0.5352,-0.2928 0.721,-0.5407 0.2625,-0.3501 0.3489,-0.3804 0.6924,-0.6595 0.8115,-0.6593 1.871,-0.9951 3.0051,-0.9693 1.5047,0.0342 1.1345,1.6921 2.3409,1.7189 0.3042,-0.5749 0.1763,-0.7094 0.757,-1.1356l1.0946 -0.8887c0.9308,-0.6136 1.2486,0.4404 2.4204,-1.2743 0.9482,-1.3875 1.1722,-1.2034 2.3221,-1.5533 0.8298,-0.2524 1.7,-1.0319 2.5851,-1.3804 0.677,-0.2665 0.6701,-0.2131 1.1216,-0.771 1.308,-1.6164 2.5426,0.9376 4.2057,0.3303 1.1733,-0.4284 0.207,-1.9066 -0.2791,-2.5074 -1.0894,-1.3467 0.1208,-1.164 -0.9789,-2.8063 -1.0891,0 -0.7615,0.6216 -1.5614,-0.0603 -0.3518,-0.3 -0.9311,-0.7287 -1.4128,-0.8409 0,-0.5883 0.0989,-0.9428 0.6387,-0.9889 1.5279,-0.1305 1.699,2.1815 4.8056,0.0343 0.2114,-0.1461 0.2581,-0.1914 0.4655,-0.3456 0.4931,-0.3668 1.0389,-0.8496 0.5961,-1.5082 -0.3913,-0.582 -0.5577,-0.1247 -0.5577,-1.1571 0.5226,-0.2765 0.661,-0.437 0.8111,-1.0815 1.0141,0.2363 0.4259,0.5853 1.5321,0 -0.0188,0.8426 -0.6244,0.7235 -0.5424,1.429 0.0411,0.3536 0.208,0.4003 0.3769,0.6291 0.1575,0.2134 0.2158,0.4901 0.3458,0.7358 1.2702,0 2.854,-1.2734 3.6818,0.0134 0.2978,0.4629 0.5361,1.199 0.8438,1.5896 0.4009,0.5088 0.9762,0.0889 1.8586,0.6649 0.709,0.4628 1.2155,1.7513 2.2154,1.1971 0.3555,-0.197 0.4032,-0.3507 0.4148,-0.8494 0.0359,-1.5344 0.6078,-0.9289 0.8607,-1.5825 0.2527,-0.6531 -0.6645,-0.946 -0.1416,-1.9343 0.294,0.1556 0.1718,0.1129 0.4154,0.3057 0.7102,0.5621 2.1647,0.0236 2.5938,-0.9917 0.2724,-0.6445 0.3869,-0.3927 0.9563,-0.6659 -0.1568,-0.673 -1.3599,-0.8598 -1.8684,-1.286 -0.5283,-0.4428 -0.8747,-1.5181 -1.5656,-1.5959 -0.5099,-0.0575 -0.7296,0.2323 -1.329,0.1722 -0.3856,-0.0387 -1.0143,-0.3596 -1.2415,-0.3196 -0.4354,0.0768 -0.6612,0.5653 -0.5979,0.89 0.0463,0.2372 0.8185,2.4157 -0.8991,0.9886 -1.5093,-1.254 -0.4879,-1.0565 -0.5499,-2.1735 -0.0452,-0.8139 -0.7506,-1.4134 -1.4769,-1.6579 -0.7655,-0.2577 -0.4931,-0.1065 -0.9529,-0.6693 -0.633,-0.7747 -1.211,-0.7171 -2.1086,-1.1359 -1.1473,-0.5352 -1.5599,-1.5921 -2.7424,-2.0343 -0.4206,-0.1573 -0.7886,-0.2316 -1.1946,-0.4277 -0.4401,-0.2126 -0.5265,-0.3675 -0.8436,-0.6885 -0.5835,-0.5906 -1.2755,-0.9426 -2.0928,-1.1517 -1.3465,-0.3446 -0.9948,-0.0419 -2.4084,-0.746l-1.0026 -0.6197c-0.2961,-0.1267 -1.0506,-0.1635 -1.4608,-0.1614 -1.0487,0.0053 -1.6955,-0.3255 -2.7657,-0.152 -0.6118,0.0992 -0.8051,0.036 -1.2905,-0.208 -2.1049,-1.0579 -1.5046,-0.013 -2.1614,0.1787 -0.741,-0.0165 -0.6325,-0.3983 -1.2618,-0.4506 -0.2122,0.4422 -0.1097,0.7421 -0.2976,1.1456 -0.2182,0.4687 -0.3906,0.5866 0.0441,0.9993 0.3622,0.3438 0.5458,0.2379 0.7139,0.8238 0.1133,0.3949 0.0805,0.9039 -0.2059,1.1612 -0.1982,0.178 -1.9665,0.7276 -2.3193,-0.1724 -0.2882,-0.7353 -0.6224,-0.7944 -1.3583,-0.8948 -0.4575,-0.0624 -0.2173,-0.051 -0.5424,-0.2687 0,-1.5152 0.4868,-0.9365 1.2543,-0.998 0.2679,-0.0215 0.3712,-0.1453 0.5482,-0.2638 0,-0.5177 -0.1476,-0.6632 -0.4825,-0.8694 -1.8328,-1.128 -2.1037,1.1365 -3.5818,1.3125 -0.8887,0.1059 -1.475,-0.2469 -2.2924,-0.3952 -0.4293,-0.0779 -0.99,-0.0344 -1.3275,-0.1145 -1.0599,-0.2514 -0.7656,-0.5674 -2.2045,-0.2689 -0.9323,0.1934 -1.3021,-0.0677 -2.3394,0.4544 -2.1559,1.0851 -2.8422,1.696 -3.4426,0.049 -0.6136,-1.6833 1.4276,-2.2301 0.132,-4.0063 -0.4256,-0.5835 -0.8256,-0.913 -1.4944,-1.2094 -1.6686,-0.7395 -4.3955,-0.6486 -6.2215,-0.4521 -1.4155,0.1523 -1.8823,0.6617 -3.616,0.466 -0.25,-0.0282 -1.0901,-0.0384 -1.3312,-0.0057 -0.4782,0.0649 -0.533,0.3346 -0.9989,0.4432 -0.3437,-0.1818 -0.3571,-0.3052 -0.7562,-0.4167 -0.6267,-0.1751 -0.5525,-0.0525 -1.056,-0.0338 -0.8075,0.0301 -0.7463,-0.9298 -0.9669,-1.457 -0.3548,-0.8478 -1.0249,-0.3867 -1.0163,-1.4254 0.0073,-0.8873 0.5506,-1.098 0.2205,-2.0122 -0.334,-0.9253 -1.7594,-0.9016 -2.6352,-0.5947 -0.9251,0.3241 -1.2008,1.2281 -1.95,1.7452 -0.4204,0.2902 -1.3578,0.7694 -1.7537,0.2291 -0.1474,-0.5232 0.873,-0.5343 0.9914,-0.9914 -0.0291,-0.35 -0.1405,-0.5656 -0.2704,-0.8111 -0.3331,0 -0.5464,-0.0203 -0.8527,0.0485 -0.4074,0.0915 -0.3898,0.1902 -0.7696,0.2218 0.2301,-0.9876 1.0606,-0.4144 1.0815,-1.3519l-1.8885 -0.6351c-0.6595,-0.1903 -1.649,-0.0819 -2.3066,0.0453 -1.0476,0.2027 -1.3379,-0.1122 -1.9615,-0.4653 -1.1886,-0.673 -0.5966,0.3443 -0.7832,1.1452 -0.5669,0.1321 -0.5141,0.1734 -1.0115,-0.0739 -0.6103,-0.3035 -1.1863,0.2414 -1.5787,0.7307 -0.2903,0.362 -0.3107,0.4644 -0.1135,0.8754 0.4249,0 0.4032,-0.0161 0.721,-0.0901 0.2611,0.5442 0.0863,0.4022 0.0844,1.0805 -0.0007,0.2498 0.3597,1.9008 -1.1294,1.3207 -0.4591,-0.1789 -0.334,-0.4052 -0.7576,-0.6889 -0.9077,0.2115 -0.7201,1.2492 -1.442,1.442 -0.3977,0 -0.5423,-0.7378 -1.0931,-0.7836 -0.6364,-0.0528 -0.7608,0.4598 -0.9798,0.8737 -0.3942,-0.0919 -0.5026,-0.3173 -0.9576,-0.0611 -0.3097,0.1744 -0.4016,0.3563 -0.8111,0.4664 -0.9843,0.2647 -0.6,-0.8147 -1.6523,-0.8622 -0.7698,-0.0347 -1.5246,0.2521 -1.9535,-0.3874 -0.337,-0.5024 -0.5014,-1.3353 -1.1146,-1.499 -0.6554,0.4389 -0.6115,1.5009 -0.7404,2.5041 -0.1112,0.8658 -0.6656,0.6296 -0.9628,1.4706 -0.0937,0.2652 -0.1621,0.3996 -0.2796,0.6216 -0.9739,0 -1.1015,-0.2549 -1.6732,-0.9404 -0.8952,-1.0733 -2.2317,-1.1624 -2.5907,-2.8254 -0.1697,-0.7861 0.5549,-1.0632 0.7691,-1.8077 0.1204,-0.4186 -0.1305,-0.593 0.0185,-1.145 0.1378,-0.5102 0.3271,-0.4218 0.1503,-1.0342 -0.4717,-1.6341 -1.0442,-1.3585 -2.1431,-1.9193 -0.3384,-0.1727 -0.4931,-0.3765 -0.9415,-0.4174 -0.3953,-0.0361 -0.8,0.1286 -1.0959,0.2454 -0.753,0.2973 -0.4678,0.0087 -0.9363,-0.1886 -0.6078,-0.2559 -1.2732,0.1146 -2.1773,-0.4366 -0.6378,-0.3888 -1.068,-0.8849 -1.7527,-0.2814 -0.5804,0.5116 -0.8141,0.9282 -0.5447,1.8582 0.4351,1.5016 -0.7341,1.0829 -1.1214,0.76 -0.9627,-0.8028 -2.1862,1.0896 -4.1531,-0.3571 -0.8658,-0.6368 -0.916,0.5218 -1.8472,0.0539 -0.3043,-0.1529 -0.4895,-0.4893 -0.4858,-0.8445 0.0071,-0.6821 0.2204,-0.3604 -0.2039,-0.9941 -1.1619,0 -2.1144,0.5424 -3.7608,-0.1146 -1.5342,-0.6123 -1.0245,0.0257 -2.1306,0.2616 -0.4487,0.0957 -0.9449,-0.0404 -1.4028,0.0392 -0.3432,0.0597 -0.6462,0.4301 -0.58,0.7617 0.0884,0.4424 0.5445,0.4426 0.3035,0.9447 -0.3886,-0.1038 -0.2269,-0.2309 -0.5177,-0.5638 -0.2021,-0.2313 -0.4708,-0.2964 -0.4765,-0.6953 -0.0064,-0.4507 0.7167,-1.1579 -0.3577,-1.4447 -0.1702,0.114 -0.1004,0.0737 -0.2388,0.2123 -0.0498,0.0499 0.3416,-0.0701 -0.2472,0.2101 -0.307,0.1461 -0.4212,0.0466 -0.7717,0.0316 -1.5817,-0.0676 -0.9428,-0.0546 -2.2261,-0.6654 -0.7133,-0.3395 -1.7435,-0.4214 -1.8336,0.662 0.3425,0.1812 0.4658,0.2775 0.8997,0.0925 0.1384,-0.059 0.2354,-0.146 0.3948,-0.1733 0.4566,-0.0781 0.5101,0.1535 0.4395,0.3185 -0.0601,0.1405 -0.0243,0.0834 -0.1609,0.1504 -0.1359,0.0667 -0.4162,0.1123 -0.574,0.1604 -0.6283,0.1912 -0.4142,0.3179 -0.8755,0.5665 -0.2228,0.1201 -0.3439,0.1063 -0.5241,0.1969 -0.2439,0.1227 -0.1969,0.2013 -0.4124,0.3148 -0.3706,0.1952 -0.6771,-0.0601 -1.2592,-0.0079 -0.4449,0.0399 -0.5893,0.2688 -0.9014,0.4548 -0.5077,0.3026 -0.6232,0.1699 -1.1875,0.1005 -1.3007,-0.16 -1.3473,0.6344 -2.0578,0.7999 -0.1097,-0.471 -0.0244,-0.7612 0.2502,-1.1016 0.4115,-0.5101 0.5815,-0.2217 1.1187,-0.4135 0.8958,-0.3199 0.2991,-1.0003 1.9632,-1.1011 1.0187,-0.0617 0.8522,-0.9616 1.6381,-1.4262 1.0802,-0.6386 1.1672,0.3826 1.8796,-1.2748 0.4992,-1.1614 0.9462,-0.4721 2.1034,-0.9608 0.8473,-0.3578 0.6015,-0.9101 1.8813,-1.2731 0.6944,-0.197 1.5567,-0.646 1.6085,-1.4665 0.038,-0.6027 -0.407,-0.9069 -0.3427,-1.1588 0.1378,-0.5392 0.4787,0.2857 0.9679,-0.6387 -0.2456,-0.4642 -0.4393,-0.5309 -0.6211,-1.0913 -0.207,-0.638 -0.1738,-0.6869 -0.7308,-0.9816 -0.2875,0.5434 0.0097,0.7067 -0.6309,0.721 0,-1.3517 0.2684,-1.9259 -1.3529,-1.9818 -1.2777,-0.0441 -0.6034,-0.9453 -2.7944,-0.3629 -1.5643,0.4158 -1.9102,-0.1569 -3.0313,-0.0314 -0.7445,0.0834 -0.4029,1.0595 -1.7417,0.9388 -0.3384,-0.0305 -0.4256,-0.1362 -0.633,-0.2751 0,-0.8901 0.8825,-0.7811 0.9012,-1.6223 -0.3815,-0.2019 -1.5357,-0.3113 -2.0785,-0.3572 -0.915,-0.0775 -1.5364,0.4317 -2.0672,0.177 -0.2939,-0.6126 0.3923,-0.7807 0.8824,-0.9201 0.5097,-0.145 1.0483,-0.257 1.1004,-0.8824 -0.2966,-0.1569 -0.4095,-0.2005 -0.8028,-0.2787 -0.4991,-0.0993 -0.4532,-0.0794 -0.8577,-0.3139 -0.3225,-0.187 -0.7691,-0.2799 -1.2577,-0.3086l-0.7194 0c-1.2806,0.0775 -1.9249,1.2133 -2.6963,1.8676 -0.6226,0.5281 -1.6501,0.7001 -1.6776,1.6538 -0.0052,0.1789 0.7408,1.9379 -1.2631,1.7962 -0.8263,-0.0584 -1.2151,-0.4531 -1.901,-0.0902 0.1307,0.4895 0.3033,0.2712 0.6115,0.5665 0.2105,0.2017 0.3725,0.6091 -0.1153,0.5781 -0.265,-0.0168 -0.6599,-0.2226 -0.9145,-0.2841 -0.5107,-0.1232 -1.2323,0.3501 -1.7349,0.5011 -0.0783,0.0235 -0.3025,0.0826 -0.4118,0.129 -0.4641,0.1968 -0.6966,0.5413 -1.293,0.4832 -0.2622,-0.0256 -0.2175,-0.0852 -0.5446,-0.0686 -0.267,0.0136 -0.178,0.0692 -0.5542,0.0776 -0.0763,-0.3276 -0.1918,-0.32 0.0756,-0.5476 0.4604,-0.3919 1.2702,-0.2864 1.4566,-0.9845 -0.9679,-0.5121 -1.6557,0.16 -2.4059,0.4782 -0.9566,0.4058 -2.3518,0.3183 -2.7824,0.5522 -0.4377,0.2377 -0.3995,0.6197 -0.728,0.8942 -0.2944,0.2461 -0.8809,0.0257 -1.962,0.4714 -0.2156,0.0889 -0.4338,0.1518 -0.6113,0.1999 -0.4846,0.1312 -0.8837,0.1971 -1.3894,0.323 -0.4724,0.1176 -0.8306,0.2922 -1.244,0.3782 -0.4482,0.0932 -1.0749,0.0583 -1.4705,0.1518 -0.5735,0.1355 -1.0992,1.1585 -1.7722,1.5624 -0.3945,0.2368 -0.711,0.3018 -1.1101,0.5122 -0.4777,0.2519 -0.4771,0.4272 -0.7156,0.9066 -0.1752,0.3522 -0.3755,0.7341 -0.7226,0.8997 -0.4959,0.2366 -0.806,0.1454 -1.1112,0.6012 0.3681,0.5497 0.9688,0.2311 1.4663,0.6967 0.3236,0.3028 0.1621,0.3566 0.6949,0.3866 0.6284,0.0354 0.5039,0.0013 0.903,0.2686 0,0.6448 -0.2326,1.1197 -0.9487,0.8676 -1.0811,-0.3806 -1.1115,-1.0132 -2.3525,-0.4737 -0.2905,0.1263 -0.3726,0.2692 -0.6429,0.4388 -0.9285,0.5824 -0.9852,-0.0196 -1.6455,-0.0222 -0.5258,-0.0021 -0.8036,0.611 -1.4924,0.5092 -0.6806,-0.1006 -1.2025,-0.2011 -1.9444,-0.0717 -0.5078,0.0886 -1.3777,0.2756 -1.8547,0.2591 -0.1898,-0.0065 -0.6057,-0.0428 -0.8412,0.1081 -0.2521,0.1616 -0.1942,0.4945 -0.1816,0.9126 0.0273,0.9082 0.5503,0.7839 0.6354,1.4478 0.0951,0.742 -0.45,1.1132 0.3067,1.6689 0.188,0.138 0.4545,0.3219 0.6536,0.4279 0.3444,0.1833 0.5268,0.1332 0.8689,0.2126 0.6226,0.1445 0.8071,0.604 1.1312,1.0319 0.5639,0.7447 1.8632,0.4939 1.5169,1.6554 -0.0636,0.2132 -0.2924,0.4186 -0.4254,0.6659 -0.3626,0.6744 -0.0293,1.0248 0.2729,1.5416 0.3063,0.5239 0.6103,0.8933 0.2744,1.5281 -0.3414,-0.0912 -0.2272,-0.1764 -0.6309,-0.2704l-0.5043 0.9392c-0.2384,0.4469 -0.77,0.4942 -0.5778,-0.0156 0.1827,-0.4845 1.1089,-1.1973 0.7585,-2.0396 -0.2777,-0.6674 -1.8956,0.0974 -1.6472,-1.2038 0.1621,-0.8493 1.3322,-0.7617 1.5201,-1.4656 -0.177,-0.6629 -0.8162,-0.4069 -1.4786,-0.3057 -0.8861,0.1355 -1.1585,-0.0557 -1.5337,-0.5575 -0.3214,-0.4298 -0.6888,-0.6295 -1.2757,-0.7972 -0.6812,-0.1947 -0.8806,-0.4861 -1.4531,-0.7111 -0.7206,-0.2832 -1.1188,0.1047 -1.7601,-0.1311 -0.7485,-0.2753 -0.086,-1.2587 -1.0736,-0.9483 -0.9947,0.3126 -0.7073,1.4566 0.1406,1.7909 0.4777,0.1884 0.3442,0.1712 0.6833,0.3983 0,0.9448 -0.6703,1.5618 -1.48,0.4887 -0.2162,-0.2866 -0.5258,-0.5902 -0.8873,-0.6538 -0.4885,-0.0859 -0.9236,0.1948 -1.0278,0.5652 -0.1957,0.6957 0.7046,1.6018 1.2638,1.8214 0.3712,0.1458 0.8639,0.1403 1.3,0.2322 0.686,0.1445 0.6153,0.1948 1.1017,0.5205l0 0.5408c-0.3409,0.2283 -0.3193,0.2704 -0.9012,0.2704 -0.89,-1.329 -0.879,-0.5971 -1.7167,-0.5363 -0.635,0.046 -0.6798,-0.2392 -1.0283,-0.329 -0.3373,-0.0868 -0.7037,0.1989 -1.1304,0.2344 -0.0781,-0.3354 -0.1873,-0.3925 -0.2912,-0.7087 -0.176,-0.5357 0.0251,-0.4265 0.1007,-0.8386 0.1455,-0.7935 -0.376,-0.7996 0.1738,-1.7139 0.5928,-0.9858 -0.1227,-2.688 -0.7944,-2.8673l-0.3805 0.3405c0.1565,0.6058 0.5864,0.8672 0.7129,1.5017 0.1238,0.6212 -0.4555,0.9353 -0.8582,1.2371 -0.4484,0.3361 -1.1975,0.3082 -1.5333,0.6297 -0.2994,0.2866 -0.2013,0.4001 -0.3747,0.7068 -0.2263,0.4002 -0.3746,0.1919 -0.6305,0.5411 0.0419,0.503 0.3058,0.4412 0.6121,0.7397l1.0302 1.6736c0.624,0.959 -0.0578,1.1282 -0.3839,1.9094 -0.2755,0.6603 -0.5238,1.6356 -0.1585,2.2379 0.2659,0.4384 0.1045,0.6796 0.2626,1.1795 0.3769,1.1921 2.2515,-0.2297 2.9631,-0.2676 0.6306,-0.0336 0.7291,0.1035 1.1405,0.3098 0.7232,0.3625 1.4292,0.2154 1.9017,0.8922 0.2479,0.3551 0.1297,0.6731 0.2644,1.0875 0.3988,1.2269 0.9387,0.5824 -0.3321,2.0445 0.828,1.5649 1.399,0.1535 2.9648,1.4514 0.1776,0.1472 0.3963,0.3469 0.5193,0.5829 0.2099,0.4025 -0.0075,0.4945 -0.4423,0.3473 -0.4935,-0.1671 -0.9256,-0.6931 -1.3144,-0.9546 -0.7721,-0.5191 -2.8055,0.4192 -2.5256,-1.9543 0.0305,-0.2588 0.1427,-0.6035 0.0606,-0.9858 -0.1078,-0.5013 -1.1983,-1.61 -1.7197,-1.7172 -0.5279,-0.1086 -1.1092,0.3371 -1.6313,0.4935 -0.5651,0.1693 -1.1038,0.4958 -1.213,1.0477 -0.1836,0.9277 0.4871,0.9157 0.7206,1.4947 0.3028,0.7508 0.098,1.0592 -0.4821,1.44 -0.7538,0.4948 -0.6882,0.3294 -0.8316,1.4215 -0.1195,0.9094 -0.3148,0.9548 -0.9539,1.2993 -0.1116,0.0601 -0.2372,0.1349 -0.3488,0.192 -0.1432,0.0733 -0.2374,0.0975 -0.3693,0.1714 -0.9402,0.5269 -0.7248,1.5384 -0.7248,2.5197 -0.6402,-0.0143 -1.0862,-0.5786 -1.2753,-1.068 -0.2663,-0.6893 -0.8086,-0.9043 -1.5327,-0.6591 -0.5891,0.1995 -1.2021,0.3732 -1.6993,-0.2547 -0.359,-0.4533 -0.9098,-0.6212 -1.441,-0.9023 0.633,-0.9453 1.5802,-0.0989 2.3515,-0.0083 0.2878,0.0338 1.3176,0.0338 1.6073,0.0016 0.6002,-0.0667 1.3645,-1.0969 1.6304,-1.6142 0.6383,-1.2421 1.1641,-1.5298 1.3219,-1.9271 0.2648,-0.6668 -0.0615,-0.5901 -0.0615,-1.3188 0.2334,-0.1562 0.5749,-0.2696 0.6851,-0.5869zm-21.8344 -5.3916c-0.6232,-0.3571 -0.4916,-0.168 -0.7374,-0.5244 -0.2383,-0.3454 -0.3155,-0.617 -0.7348,-0.617 -0.2785,0 -0.721,0.6374 -0.721,0.8111 0,1.2345 1.373,0.9645 1.9093,1.3353 0.2462,0.1702 0.3985,0.3856 0.7044,0.4673 0.1925,-0.2875 0.3062,-0.4716 0.2135,-0.8355 -0.1005,-0.3945 -0.327,-0.4609 -0.6339,-0.6367zm16.2826 -11.2355c0,0.5488 -0.0407,0.4836 0.1803,0.9013 0.6926,-0.0154 1.1788,-0.3288 1.5302,-0.454 0.3362,-0.1198 0.9032,0.1314 0.9032,-0.267 0,-1.2934 -2.6137,-1.5689 -2.6137,-0.1803zm-30.0673 4.7395c0.4088,1.5735 1.4252,0.6284 2.0382,0.7582 0.3142,1.3124 -0.4161,1.2817 0.6309,1.9828 0.6408,-0.1493 0.2939,-0.2832 0.9013,-0.8111 0.8679,0.5812 0.0774,1.0049 0.7904,1.5528 0.3802,0.2922 0.4173,0.1513 0.8995,0.2722 0.536,0.1344 0.1298,0.4282 0.9237,0.4282 0.4503,0 0.8494,-0.4506 1.1717,-0.4506 0.295,0 0.2988,0.2022 0.641,0.2602 0.2822,0.0479 0.5546,-0.0252 0.8583,0.043 0.5287,0.1187 0.7396,0.5519 1.2946,0.5981 0.4186,-0.6252 0.2855,-1.5615 -0.2112,-1.7716 -0.9206,-0.3895 -0.3939,0.0484 -1.2093,-0.6834 -0.3791,-0.3402 -0.4552,-0.1716 -0.68,-0.6719 -0.431,-0.9587 -0.6784,-0.5106 -0.8535,-1.1292 -0.2221,-0.785 -0.4761,-1.0119 -0.4353,-1.3884 0.0164,-0.1511 0.1447,-0.4711 0.1447,-0.5742 0,-0.5096 -0.1746,-0.6988 0.0055,-1.1637 0.0666,-0.1718 0.1182,-0.2386 0.2146,-0.4187 0.4333,-0.8093 0.6107,-0.3652 0.9548,-1.1181 0.1593,-0.3485 0.128,-0.7056 0.3941,-0.9577 0.268,-0.2539 0.3985,-0.2054 0.6562,-0.6956 0.2193,-0.417 0.1873,-0.5107 0.5537,-0.7982 1.4025,-1.1007 0.7359,-1.0289 0.7359,-1.7876 0,-0.5683 0.7775,-0.0991 0.8111,-0.0901 0.1277,-0.111 -0.0616,0.0349 0.1485,-0.1219 0.2124,-0.1585 0.4602,-0.2781 0.5901,-0.4976 0.298,-0.5037 -0.1296,-0.4318 0.2528,-1.0028 0.32,0.2143 0.1966,0.3244 0.6309,0.3605 0.5365,-0.8012 -0.3575,-1.1716 0.4506,-1.1716 0.5319,0 0.1831,0.7066 1.4178,-0.4749 0.7703,-0.7371 0.3238,0.0507 0.6704,-0.9518 0.2103,-0.6081 0.0775,0.0242 0.5561,-0.6155 0.6662,-0.8905 0.7648,-0.1093 1.3929,-0.7701 0.4234,-0.4455 0.3147,-0.4881 1.0959,-0.5264 0.5715,-0.028 0.9438,-0.1361 1.3383,-0.3741 0.5791,-0.3493 0.7266,-0.1465 1.283,-0.3393 0.4483,-0.1553 0.7748,-0.2636 1.2924,-0.42 0.6845,-0.2068 0.7939,-0.6701 2.502,-0.8326 0.9712,-0.0924 0.3658,0.1813 1.3084,-0.3139 0.4185,-0.2199 0.7519,-0.3294 1.175,-0.5374 1.038,-0.5101 1.9607,-1.8275 0.7329,-2.9312 -0.3627,-0.3261 -1.4465,-0.6901 -2.1866,-0.2349 -1.3159,0.8095 -2.1239,0.6988 -2.1239,1.391 0,0.3529 0.1259,0.0002 0,0.5408 -0.5235,0 -0.9365,-0.0639 -1.3271,0.1149 -1.8013,0.8248 -1.1329,0.2089 -1.879,0.3732 -0.4835,0.1065 -0.1254,0.2769 -1.376,0.4274 -1.4874,0.179 -0.4148,0.2514 -1.1722,-0.1196 -0.3834,-0.1878 -0.0993,0.0152 -0.5545,0.0152 -0.4382,0 -1.2318,-0.6436 -1.4392,0.0924 -0.0131,0.0466 -0.0879,0.5683 -0.093,0.6286 -0.5321,0 -1.6223,-0.9428 -1.6223,0.4506l-0.8111 0c-0.4087,0 0.0369,0.0098 -0.2535,0.107 -0.2307,0.0772 0.0147,0.0196 -0.2912,0.0693 -1.3729,0.2232 -0.7415,0.4364 -1.2474,1.0057 -0.2738,0.3082 -0.6666,0.2886 -1.0185,0.5137 -0.5681,0.3634 -0.1173,0.9179 -0.6142,0.9179 -0.2412,0 -0.8358,-0.8305 -1.2161,0.1358 -0.1199,0.3046 -0.0409,0.8698 -0.7223,0.644 -0.204,-0.0676 -0.2099,-0.1489 -0.4049,-0.1489 -0.9943,0 -0.193,1.1472 0.0132,1.7221 0.2855,0.796 -1.4698,-0.0616 -0.909,0.7752 0.1158,0.1727 0.235,0.2405 0.4451,0.2966l0 0.1803c-0.6349,0.1479 -0.451,-0.1916 -0.94,0.4114 -0.2764,0.3409 -0.5632,0.3532 -0.8404,0.6922 -0.2547,0.3116 -0.2799,0.6834 -0.6383,0.8938 -0.3123,0.1834 -1.0962,0.097 -1.0962,0.436 0,0.5978 0.6309,0.7865 0.6309,0.9914 0,0.7726 -0.2664,0.9281 -0.8473,1.1355 -0.6072,0.2167 -0.6281,0.6677 -0.775,1.2979 -0.2119,0.1016 -0.721,0.1628 -0.721,0.4506 0,0.6766 0.1995,1.1929 -0.0242,1.6876 -0.0701,0.1549 -0.2277,0.4597 -0.3187,0.5831 -0.4393,0.5955 -0.6848,0.418 -1.4573,0.3263 -0.33,0.506 -0.4227,0.6203 -0.2379,1.3313zm-45.5483 52.8509c-0.0565,-0.6786 -0.18,-1.3853 -0.8836,-1.6399 -0.3837,-0.1389 -0.6733,0.0331 -1.029,-0.2328 -0.3299,-0.2466 -0.2347,-0.4242 -0.7912,-0.4706 -0.0001,0.0002 -0.0699,0.8111 -0.4506,0.8111 -0.6725,0 -1.1083,-0.2899 -1.4735,0.1486 -0.3907,0.4691 -0.0395,0.8506 -0.7797,1.0231 0.4947,0.7388 0.8308,0.1802 1.8926,0.1802 0.8161,0 2.0121,0.9014 3.5149,0.1803zm132.0344 7.0298c-0.5655,0 -1.158,-0.2911 -1.1716,-0.9012 0.3308,-0.0771 0.6357,-0.0877 1.0312,-0.1404 0.6198,-0.0826 0.5337,-0.001 1.0155,-0.2462 0.6667,-0.3392 0.8502,-0.6305 1.1931,-1.2403 0.752,-1.3373 0.4217,-0.1454 1.0904,-1.343 0.1234,-0.2209 0.3036,-0.476 0.4718,-0.6999 1.3735,-1.8283 0.227,-0.6423 1.9783,-1.7168 1.0935,-0.6709 0.4841,-1.3946 1.2152,-2.3898 0.8422,-1.1463 0.3082,-2.2365 1.2874,-2.4979 0.1944,0.2903 0.1803,0.0924 0.1803,0.6309 0,0.6026 -0.2889,1.462 -0.4324,1.9109 -0.2195,0.6866 0.0226,1.6597 -0.1406,2.2027 -0.13,0.4324 -0.3552,0.2733 -0.667,0.5046 -0.3327,0.2467 -0.2276,0.3938 -0.3153,0.8563 -0.0884,0.4665 -0.1866,0.4087 -0.5469,0.6247 -0.3236,0.194 -0.3028,0.3512 -0.5359,0.6358 -0.1905,0.2326 -0.3602,0.3864 -0.6695,0.5022 -1.0939,0.4094 -0.8046,0.3791 -1.6243,0.719 -1.2865,0.5335 -0.8984,1.5481 -1.5028,2.0121l-1.857 0.5764zm-116.5857 -25.1823c0.3553,0.2957 0.655,1.2368 0.1695,1.6858 -0.0192,0.0178 -0.083,0.0602 -0.1017,0.0785 -0.3115,0.3033 -0.2026,0.7062 -0.7358,0.7062 -0.421,0 -0.5147,-0.2704 -0.8111,-0.2704 -0.5306,0 -0.1292,0.7192 -0.8111,0.9013 -0.1665,-0.3471 -0.1512,-0.7459 -0.3111,-1.0408 -0.1886,-0.3477 -0.4504,-0.3332 -0.6544,-0.6975 -0.1843,-0.3293 -0.1306,-0.7013 -0.3322,-1.0197 -0.1051,-0.166 -0.1711,-0.1744 -0.2934,-0.3478 -0.3942,-0.5592 0.0872,-0.6611 0.4431,-1.0162 0.2177,-0.2171 0.3676,-0.404 0.6072,-0.5645 0.3152,0.0735 0.3723,0.1953 1.0815,0.3605 0,0.4885 -0.2987,1.1716 0.2704,1.1716 0.4977,0 0.6028,-0.1799 0.9914,-0.2704l0.4878 0.3233zm4.8832 -4.2523c0.5024,0.4565 -0.0536,1.3876 -0.0536,1.766 0,0.3145 1.2618,0.4741 1.2618,1.7124 0,0.2337 -0.3469,0.4225 -0.4506,0.8111 -0.4216,-0.1126 -0.1743,-0.1382 -0.4382,-0.4631 -0.1378,-0.1697 -0.2888,-0.2222 -0.4871,-0.4141 -0.603,-0.5835 -0.3137,-0.4397 -1.2377,-0.6549 -0.0958,-0.411 -0.2474,-1.426 0.1802,-1.7124 0.3042,0.2229 0.0583,-0.0444 0.2356,0.3052 0.1232,0.2429 0.0626,0.1882 0.215,0.4159 0.3755,-0.1987 0.3665,-0.12 0.4594,-0.6251 0.0633,-0.344 0.1284,-0.5693 -0.051,-0.8606 -0.3178,-0.5161 -0.6514,-0.4391 -0.9299,-0.6966 -0.2606,-0.2409 -0.1152,-0.1808 -0.1995,-0.3412 0.5218,0.0434 0.5525,0.3798 0.9796,0.5526 0.1337,0.0541 0.3949,0.0949 0.516,0.205z"/>
  <path class="fil1" d="M77.3369 74.3613c-0.4319,0.0676 -0.8716,0.3976 -1.4884,0.5009 -1.7906,0.2999 -2.2839,0.8222 -4.6564,1.2795 -1.3355,0.2574 -1.7302,0.8493 -3.1184,0.3083 -0.1283,1.4151 -0.3228,0.6663 0.2289,1.6131 0.4448,0.7635 -0.3188,1.0116 -0.7043,1.2529 -0.5795,0.3627 -0.2004,1.0974 -0.3464,1.7263 -0.1426,0.6143 -0.6632,0.8335 -0.9074,1.2427 0.8594,0.4638 2.6751,0.2638 1.4219,2.6035 -0.6821,1.2734 -1.3616,0.853 -2.4168,0.9273 -0.4216,0.0297 -0.5864,0.227 -1.09,0.1904 -0.3334,-0.0243 -1.3175,-0.5898 -1.5926,-0.7775 -0.2793,-0.1907 -0.4264,-0.4279 -0.6778,-0.475 -0.1886,-0.0353 -0.7642,0.136 -1.0633,0.1514 -0.9704,0.0497 -0.9489,-0.4863 -1.7747,0.2014 -0.6279,0.5228 -1.057,0.503 -1.7412,-0.0043 -0.3309,0.1707 -0.6622,0.8081 -1.3849,0.5536 -0.6187,-0.2178 -0.3862,-0.911 -0.5026,-1.5902 -0.9328,-0.6189 -0.6802,-0.6484 -2.1539,-0.7342 -0.4173,-0.0243 -0.8567,-0.211 -1.2547,-0.1375 -0.4647,0.0859 -0.5963,0.3354 -1.2849,0.2968 -0.5403,-0.0303 -0.6959,-0.3046 -1.0789,-0.0414 -0.8527,0.5862 -1.967,1.1288 -2.6983,1.81 0.2305,0.585 0.7694,1.4209 0.1445,1.954 -0.5822,0.4967 -1.5749,0.1714 -2.0992,-0.1171 -0.1747,0.6575 -0.2112,1.3439 -0.3976,2.0327 -0.2923,1.0798 -0.0424,0.8614 0.3175,1.7638 0.4553,1.1416 0.403,0.6108 1.2616,1.1721 2.4368,1.5928 1.096,2.7832 1.8859,2.9867 0.3704,0.0954 0.3694,-0.236 0.6668,-0.4354 0.2953,-0.1979 0.6439,-0.1404 0.8501,-0.4115 0.3986,-0.524 0.5144,-1.1221 1.4959,-0.9252 0.9183,0.1841 0.6478,0.8619 1.5461,0.9865 0.3496,-0.1615 0.4777,-0.5838 1.1303,-0.4818 1.0599,0.1657 0.5595,1.0504 0.7726,1.5643 0.3932,0.948 0.2764,1.0545 -0.2915,1.8076 0.2086,0.3653 1.0277,0.813 0.3443,1.5066 -0.7708,0.7823 -1.2536,-0.1008 -1.5051,-0.1936l-1.2954 -0.0533 -0.3887 0.8276c0.3779,0.9902 0.3984,0.9436 -0.484,1.5178 0.1803,0.4209 0.1818,0.53 0.4397,0.9167 0.2655,0.3981 0.2792,0.5997 0.2838,1.1561 0.0831,0.1976 0.736,0.7077 0.9474,0.7499 0.9729,0.1945 0.6044,-0.0663 1.128,0.5733 2.3068,-0.6989 2.7595,-0.5402 4.4946,1.2901 0.1085,-2.4583 -0.0457,-5.0851 -0.0097,-7.5734 0.0167,-1.1587 0.3718,-1.0302 2.3343,-1.468 1.2752,-0.2845 1.938,-0.5572 3.2856,-0.3205 0.0614,-0.5866 0.2565,-0.6489 0.646,-0.8896 0.5143,-0.3178 0.4324,-1.6754 2.2403,-0.3966 0.3013,0.2131 0.5827,0.2501 0.7703,0.49 0.1848,0.2363 0.3311,0.7066 0.091,1.0293 -0.1691,0.2273 -0.542,0.3308 -0.8806,0.2198 -0.3936,-0.129 -0.5671,-0.2089 -1.0801,-0.317 0.1346,0.7919 0.5343,1.1942 0.8123,1.934 0.1399,0.3724 0.3661,0.338 0.7352,0.6112 0.5193,0.3844 0.8263,0.9068 1.2467,1.4577 1.0368,1.3585 1.1835,1.2762 2.5688,0.7577 2.7248,-1.0198 3.0725,2.4037 3.8396,4.0999 0.1396,0.3086 0.297,0.6327 0.218,1.0419 -0.0833,0.4317 -0.316,0.5474 -0.5801,0.856l0.4192 0.4595c2.246,-0.9264 2.514,1.1597 3.9036,1.3312 0.7891,-0.6872 0.7042,-1.6749 1.2114,-2.563 0.8311,-1.4553 2.1732,-0.8265 2.5678,-1.1094 0.3073,-0.343 0.3175,-0.9552 0.4571,-1.453 0.1255,-0.4477 0.5744,-0.8033 0.9757,-1.0059 1.4276,-0.7207 1.8562,0.3033 2.8993,0.5607 0.1149,-0.2919 0.2427,-2.8596 2.2596,-1.3559 0.7141,0.5325 1.1759,-1.1267 2.8776,0.8938 0.5708,-0.0532 0.7531,-0.3571 1.4442,-0.1689 0.7963,0.2169 0.477,0.0269 1.1773,-0.3553 1.131,-0.6173 1.6595,0.4727 2.3354,1.1072 1.6166,-1.1696 1.0493,-2.7037 0.6137,-4.4361 -0.2324,-0.9243 0.0937,-1.8135 0.8556,-1.9805 0.6493,-0.1423 2.5765,0.4127 2.7059,-0.3075 0.1776,-0.9892 -0.0019,-0.644 0.447,-1.8465 1.147,-3.0726 1.0437,-2.5398 3.5758,-2.3342 0.2048,0.0166 0.438,0.0296 0.6418,0.0056 1.5057,-0.1774 -0.4035,-2.5773 1.2268,-3.4106 0.809,-0.4135 0.5799,0.2658 1.2002,-0.7756 0.3651,-0.6129 0.4832,-0.7252 -0.0011,-1.3306 -1.0368,0.0809 -1.4589,0.7537 -2.6471,-0.0767 -0.712,-0.4977 -2.2414,-2.444 -2.5854,-2.6442 -0.4327,-0.2517 -1.0433,0.0331 -1.5096,0.1084 -1.5352,0.2478 -1.779,-0.2215 -2.5408,-0.8573 -1.331,0.3217 -1.2616,0.9778 -2.2839,-1.0293 -1.1323,-2.223 -2.2802,-4.6981 -4.4556,-5.9087 -0.2266,-0.1261 -0.4519,-0.2785 -0.5685,-0.4248 -0.1697,-0.2129 -0.1341,-0.3197 -0.2461,-0.5435 -0.0419,-0.0837 -0.0411,-0.0985 -0.0386,-0.1003 -0.0044,-0.0019 -0.0202,-0.0127 -0.0674,-0.0596 -0.7737,0.5183 0.1176,1.0803 -2.1472,1.8857 -2.2121,0.7866 -2.008,0.2415 -2.7201,-0.7622 -0.7196,-0.0581 -2.1176,0.1529 -2.6353,-0.044 -0.6162,-0.2345 -0.9602,-1.0994 -0.751,-1.9683 0.256,-1.0636 0.0866,-1.1666 -0.881,-1.5367 -0.8478,-0.3243 -1.4547,-0.0448 -2.3674,0.0036 -0.311,0.4209 -0.3874,0.8218 -0.8671,1.1156 -0.5339,0.3269 -1.0268,0.1969 -1.682,0.2993zm-58.4617 6.4306c-0.417,-2.9445 1.0151,-1.8777 1.5127,-2.9231 -0.1008,-0.0764 -0.0333,-0.036 -0.2096,-0.0997 -1.1991,-0.4339 -0.7365,-0.1211 -1.7556,-2.1868 -0.1947,-0.3947 -0.8137,-1.9079 -0.8602,-2.4 -0.031,-0.3282 0.0465,-0.6355 -0.0785,-0.867 -0.2397,-0.3007 -0.8422,0.0951 -1.813,-0.3858 -1.8547,-0.9187 -1.5078,0.0124 -2.2946,0.2056 -0.3945,0.0969 -0.6199,-0.0393 -0.9148,0.0082 -0.6013,0.097 -0.5603,0.697 -0.8546,1.1993 -0.3061,0.5224 -0.9104,0.7631 -1.0532,1.1135 -0.2559,0.6278 -0.0631,0.9052 -0.5956,1.474 -0.3675,0.3926 -0.8301,0.5596 -1.2925,0.8728 -0.4631,0.3137 -0.6878,0.6179 -1.1198,0.9757 -0.0295,0.8766 0.2838,1.7603 -0.1423,2.5391 -0.1717,0.3138 -0.4575,0.4737 -0.403,0.8369 0.0397,0.2645 0.272,0.6264 0.3511,0.989l0.1254 -0.0991c0.2611,-0.2187 0.388,-0.4014 0.7713,-0.5271 1.9088,-0.6258 3.4418,0.7288 4.6197,0.8616 1.505,0.1696 2.3996,-0.0266 3.8956,0.3392 0.2913,-0.432 0.5012,-1.5595 2.1118,-1.9263zm71.2056 13.198c0.8717,-0.2099 0.8489,0.0019 1.4691,0.2015 0.5039,0.1622 1.1647,0.0547 1.6555,0.0004 0.8191,-0.0905 0.7229,0.3759 1.4759,0.2172 0.5094,-0.1074 0.9655,-0.2205 1.1411,0.3875 0.1644,0.5692 -0.2439,0.9475 -0.5802,1.0785 -0.6549,0.255 -0.8561,-0.0814 -1.4528,-0.0054 -0.9767,0.1245 -0.7648,-0.2677 -1.4582,-0.1982 -2.1087,0.2115 -1.5546,-0.5352 -2.2579,0.1661 -0.3352,0.3343 -1.1915,0.9685 -1.3353,1.3721 -0.6097,1.7118 -1.5271,1.2947 -1.8496,0.6585 -0.4581,-0.9036 0.3675,-1.7266 0.5022,-2.0073 0.0927,-0.1931 0.3376,-1.2646 1.0873,-1.6106 0.2412,-0.1114 1.1898,-0.1608 1.603,-0.2603z"/>
 </g>
</svg>
