<svg width="18" height="12" viewBox="0 0 18 12" fill="none" xmlns="http://www.w3.org/2000/svg">
<path d="M17.5911 10.6541C17.3379 10.9071 16.9946 11.0493 16.6366 11.0493C16.2786 11.0493 15.9353 10.9071 15.6822 10.6541L8.99967 3.97156L2.31718 10.6541C2.06256 10.9 1.72155 11.036 1.36759 11.033C1.01362 11.0299 0.675022 10.8879 0.424723 10.6376C0.174421 10.3873 0.0324458 10.0487 0.0293692 9.69475C0.0262927 9.34078 0.162365 8.99977 0.408279 8.74516L8.04522 1.10821C8.29838 0.855125 8.6417 0.71295 8.99967 0.71295C9.35764 0.71295 9.70096 0.855125 9.95412 1.10821L17.5911 8.74516C17.8442 8.99832 17.9863 9.34163 17.9863 9.69961C17.9863 10.0576 17.8442 10.4009 17.5911 10.6541Z" fill="white"/>
</svg>
