<svg width="6" height="11" viewBox="0 0 6 11" fill="none" xmlns="http://www.w3.org/2000/svg">
<path d="M0.217394 10.2208C0.0781967 10.0816 -2.38427e-08 9.89278 -3.24488e-08 9.69589C-4.10548e-08 9.49901 0.0781967 9.31018 0.217394 9.17094L3.89277 5.49557L0.217394 1.8202C0.0821413 1.68016 0.00730114 1.4926 0.00899286 1.29792C0.0106846 1.10324 0.0887727 0.917012 0.226438 0.779346C0.364104 0.641681 0.550332 0.563594 0.745013 0.561902C0.939694 0.56021 1.12725 0.63505 1.26729 0.770303L5.46761 4.97062C5.60681 5.10986 5.685 5.29869 5.685 5.49557C5.685 5.69245 5.60681 5.88128 5.46761 6.02052L1.26729 10.2208C1.12805 10.36 0.939225 10.4382 0.742341 10.4382C0.545457 10.4382 0.356633 10.36 0.217394 10.2208Z" fill="#818A9E"/>
</svg>
