<svg width="11" height="11" viewBox="0 0 11 11" fill="none" xmlns="http://www.w3.org/2000/svg">
<path d="M10.4461 0.553928C10.1401 0.248002 9.64414 0.248002 9.33821 0.553928L5.5 4.39214L1.66179 0.553929C1.35586 0.248002 0.859855 0.248002 0.553928 0.553928C0.248002 0.859855 0.248002 1.35586 0.553928 1.66179L4.39214 5.5L0.553929 9.33821C0.248002 9.64414 0.248002 10.1401 0.553928 10.4461C0.859855 10.752 1.35586 10.752 1.66179 10.4461L5.5 6.60786L9.33821 10.4461C9.64414 10.752 10.1401 10.752 10.4461 10.4461C10.752 10.1401 10.752 9.64414 10.4461 9.33821L6.60786 5.5L10.4461 1.66179C10.752 1.35586 10.752 0.859855 10.4461 0.553928Z" fill="#202430"/>
</svg>
