<svg width="13" height="11" viewBox="0 0 13 11" fill="none" xmlns="http://www.w3.org/2000/svg">
<path d="M1.03185 10.2207C0.89265 10.0815 0.814453 9.89265 0.814453 9.69577C0.814453 9.49888 0.89265 9.31006 1.03185 9.17082L4.70722 5.49545L1.03185 1.82007C0.896594 1.68004 0.821754 1.49248 0.823446 1.2978C0.825138 1.10312 0.903226 0.91689 1.04089 0.779224C1.17856 0.641559 1.36478 0.563472 1.55947 0.56178C1.75415 0.560088 1.9417 0.634928 2.08174 0.77018L6.28206 4.9705C6.42126 5.10974 6.49946 5.29856 6.49946 5.49545C6.49946 5.69233 6.42126 5.88116 6.28206 6.0204L2.08174 10.2207C1.9425 10.3599 1.75368 10.4381 1.55679 10.4381C1.35991 10.4381 1.17109 10.3599 1.03185 10.2207V10.2207Z" fill="#202430"/>
<path d="M6.71739 10.2207C6.5782 10.0815 6.5 9.89265 6.5 9.69577C6.5 9.49888 6.5782 9.31006 6.71739 9.17082L10.3928 5.49545L6.71739 1.82007C6.58214 1.68004 6.5073 1.49248 6.50899 1.2978C6.51068 1.10312 6.58877 0.91689 6.72644 0.779224C6.8641 0.641559 7.05033 0.563472 7.24501 0.56178C7.43969 0.560088 7.62725 0.634928 7.76729 0.77018L11.9676 4.9705C12.1068 5.10974 12.185 5.29856 12.185 5.49545C12.185 5.69233 12.1068 5.88116 11.9676 6.0204L7.76729 10.2207C7.62805 10.3599 7.43923 10.4381 7.24234 10.4381C7.04546 10.4381 6.85663 10.3599 6.71739 10.2207V10.2207Z" fill="#202430"/>
</svg>
