<svg width="7" height="11" viewBox="0 0 7 11" fill="none" xmlns="http://www.w3.org/2000/svg">
<path d="M6.1244 10.2208C6.2636 10.0816 6.3418 9.89278 6.3418 9.69589C6.3418 9.49901 6.2636 9.31018 6.1244 9.17094L2.44903 5.49557L6.1244 1.8202C6.25966 1.68016 6.3345 1.4926 6.3328 1.29792C6.33111 1.10324 6.25302 0.917012 6.11536 0.779346C5.97769 0.641681 5.79147 0.563594 5.59678 0.561902C5.4021 0.56021 5.21455 0.63505 5.07451 0.770303L0.874188 4.97062C0.73499 5.10986 0.656794 5.29869 0.656794 5.49557C0.656794 5.69245 0.73499 5.88128 0.874188 6.02052L5.07451 10.2208C5.21375 10.36 5.40257 10.4382 5.59946 10.4382C5.79634 10.4382 5.98516 10.36 6.1244 10.2208Z" fill="#C5C6C7"/>
</svg>
