<svg width="7" height="11" viewBox="0 0 7 11" fill="none" xmlns="http://www.w3.org/2000/svg">
<path d="M0.875597 10.2208C0.7364 10.0816 0.658203 9.89278 0.658203 9.69589C0.658203 9.49901 0.7364 9.31018 0.875597 9.17094L4.55097 5.49557L0.875597 1.8202C0.740344 1.68016 0.665504 1.4926 0.667196 1.29792C0.668888 1.10324 0.746976 0.917012 0.884641 0.779346C1.02231 0.641681 1.20853 0.563594 1.40322 0.561902C1.5979 0.56021 1.78545 0.63505 1.92549 0.770303L6.12581 4.97062C6.26501 5.10986 6.34321 5.29869 6.34321 5.49557C6.34321 5.69245 6.26501 5.88128 6.12581 6.02052L1.92549 10.2208C1.78625 10.36 1.59743 10.4382 1.40054 10.4382C1.20366 10.4382 1.01484 10.36 0.875597 10.2208Z" fill="#818A9E"/>
</svg>
