<svg width="13" height="11" viewBox="0 0 13 11" fill="none" xmlns="http://www.w3.org/2000/svg">
<path d="M11.9682 10.2207C12.1074 10.0815 12.1855 9.89265 12.1855 9.69577C12.1855 9.49888 12.1074 9.31006 11.9682 9.17082L8.29278 5.49545L11.9682 1.82007C12.1034 1.68004 12.1782 1.49248 12.1766 1.2978C12.1749 1.10312 12.0968 0.91689 11.9591 0.779224C11.8214 0.641559 11.6352 0.563472 11.4405 0.56178C11.2459 0.560088 11.0583 0.634928 10.9183 0.77018L6.71794 4.9705C6.57874 5.10974 6.50054 5.29856 6.50054 5.49545C6.50054 5.69233 6.57874 5.88116 6.71794 6.0204L10.9183 10.2207C11.0575 10.3599 11.2463 10.4381 11.4432 10.4381C11.6401 10.4381 11.8289 10.3599 11.9682 10.2207V10.2207Z" fill="#C5C6C7"/>
<path d="M6.28261 10.2207C6.4218 10.0815 6.5 9.89265 6.5 9.69577C6.5 9.49888 6.4218 9.31006 6.28261 9.17082L2.60723 5.49545L6.28261 1.82007C6.41786 1.68004 6.4927 1.49248 6.49101 1.2978C6.48932 1.10312 6.41123 0.91689 6.27356 0.779224C6.1359 0.641559 5.94967 0.563472 5.75499 0.56178C5.56031 0.560088 5.37275 0.634928 5.23271 0.77018L1.03239 4.9705C0.893194 5.10974 0.814997 5.29856 0.814997 5.49545C0.814997 5.69233 0.893194 5.88116 1.03239 6.0204L5.23271 10.2207C5.37195 10.3599 5.56077 10.4381 5.75766 10.4381C5.95454 10.4381 6.14337 10.3599 6.28261 10.2207V10.2207Z" fill="#C5C6C7"/>
</svg>
