<svg width="23" height="25" viewBox="0 0 23 25" fill="none" xmlns="http://www.w3.org/2000/svg">
<path d="M17.9159 1C18.6208 0.999931 19.3145 1.17595 19.9341 1.51207C20.5537 1.84819 21.0795 2.33376 21.4638 2.92469C21.848 3.51562 22.0786 4.19318 22.1345 4.89585C22.1905 5.59851 22.07 6.30402 21.784 6.94829C21.498 7.59257 21.0557 8.1552 20.497 8.58509C19.9384 9.01499 19.2813 9.29853 18.5852 9.40996C17.8892 9.52139 17.1764 9.45718 16.5115 9.22317C15.8466 8.98916 15.2506 8.59276 14.7778 8.06996L9.27025 11.2165C9.52821 12.0397 9.52821 12.9222 9.27025 13.7455L14.7766 16.8944C15.4767 16.1208 16.438 15.6331 17.4757 15.525C18.5135 15.4169 19.5546 15.6961 20.3991 16.3088C21.2436 16.9215 21.832 17.8246 22.0512 18.8447C22.2705 19.8647 22.1051 20.9298 21.5869 21.8354C21.0688 22.741 20.2343 23.4233 19.2438 23.7511C18.2532 24.079 17.1765 24.0293 16.2204 23.6117C15.2642 23.1941 14.4961 22.4379 14.0635 21.4885C13.6308 20.539 13.5642 19.4632 13.8764 18.4677L8.37004 15.3175C7.79653 15.9517 7.04437 16.3972 6.21265 16.5955C5.38093 16.7937 4.50867 16.7353 3.71079 16.428C2.9129 16.1207 2.22681 15.579 1.74291 14.874C1.25901 14.1691 1 13.3342 1 12.4792C1 11.6242 1.25901 10.7892 1.74291 10.0843C2.22681 9.37938 2.9129 8.8376 3.71079 8.53031C4.50867 8.22302 5.38093 8.16465 6.21265 8.36288C7.04437 8.56111 7.79653 9.00665 8.37004 9.64079L13.8764 6.49429C13.6783 5.86068 13.6321 5.18934 13.7414 4.53455C13.8508 3.87976 14.1127 3.25988 14.5059 2.72502C14.8991 2.19016 15.4127 1.75532 16.0051 1.45565C16.5974 1.15599 17.252 0.999896 17.9159 1ZM17.9159 17.3125C17.2743 17.3125 16.659 17.5674 16.2053 18.021C15.7517 18.4747 15.4968 19.09 15.4968 19.7316C15.4968 20.3732 15.7517 20.9885 16.2053 21.4421C16.659 21.8958 17.2743 22.1507 17.9159 22.1507C18.5575 22.1507 19.1728 21.8958 19.6264 21.4421C20.0801 20.9885 20.335 20.3732 20.335 19.7316C20.335 19.09 20.0801 18.4747 19.6264 18.021C19.1728 17.5674 18.5575 17.3125 17.9159 17.3125ZM5.23079 10.0625C4.58921 10.0625 3.97391 10.3174 3.52024 10.771C3.06658 11.2247 2.81171 11.84 2.81171 12.4816C2.81171 13.1232 3.06658 13.7385 3.52024 14.1921C3.97391 14.6458 4.58921 14.9007 5.23079 14.9007C5.87237 14.9007 6.48767 14.6458 6.94134 14.1921C7.39501 13.7385 7.64987 13.1232 7.64987 12.4816C7.64987 11.84 7.39501 11.2247 6.94134 10.771C6.48767 10.3174 5.87237 10.0625 5.23079 10.0625ZM17.9159 2.8125C17.2743 2.8125 16.659 3.06737 16.2053 3.52103C15.7517 3.9747 15.4968 4.59 15.4968 5.23158C15.4968 5.87316 15.7517 6.48847 16.2053 6.94213C16.659 7.3958 17.2743 7.65067 17.9159 7.65067C18.5575 7.65067 19.1728 7.3958 19.6264 6.94213C20.0801 6.48847 20.335 5.87316 20.335 5.23158C20.335 4.59 20.0801 3.9747 19.6264 3.52103C19.1728 3.06737 18.5575 2.8125 17.9159 2.8125Z" fill="#202430" stroke="white" stroke-width="0.8"/>
</svg>
