<svg width="19" height="32" viewBox="0 0 19 32" fill="none" xmlns="http://www.w3.org/2000/svg">
<path d="M1.28767 30.6052C0.857422 30.1748 0.615723 29.5911 0.615723 28.9826C0.615723 28.374 0.857422 27.7904 1.28767 27.36L12.6479 15.9998L1.28767 4.63953C0.869614 4.20669 0.63829 3.62697 0.643519 3.02523C0.648748 2.42349 0.890111 1.84787 1.31562 1.42236C1.74113 0.996849 2.31675 0.755489 2.91849 0.75026C3.52023 0.745031 4.09995 0.976354 4.53279 1.39441L17.5156 14.3772C17.9459 14.8076 18.1875 15.3912 18.1875 15.9998C18.1875 16.6083 17.9459 17.192 17.5156 17.6223L4.53279 30.6052C4.10242 31.0354 3.51878 31.2771 2.91023 31.2771C2.30168 31.2771 1.71804 31.0354 1.28767 30.6052V30.6052Z" fill="#818A9E"/>
</svg>
