<?xml version="1.0" encoding="UTF-8"?>
<!DOCTYPE svg PUBLIC "-//W3C//DTD SVG 1.0//EN" "http://www.w3.org/TR/2001/REC-SVG-20010904/DTD/svg10.dtd">
<!-- Creator: CorelDRAW 2019 (64-Bit) -->
<svg xmlns="http://www.w3.org/2000/svg" xml:space="preserve" width="13.0228mm" height="12.3717mm" version="1.0" style="shape-rendering:geometricPrecision; text-rendering:geometricPrecision; image-rendering:optimizeQuality; fill-rule:evenodd; clip-rule:evenodd"
viewBox="0 0 2.0952 1.9904"
 xmlns:xlink="http://www.w3.org/1999/xlink"
 xmlns:xodm="http://www.corel.com/coreldraw/odm/2003">
 <defs>
  <style type="text/css">
   <![CDATA[
    .fil0 {fill:white}
   ]]>
  </style>
 </defs>
 <g id="Слой_x0020_1">
  <metadata id="CorelCorpID_0Corel-Layer"/>
  <path class="fil0" d="M1.3229 0.5626l0.1437 0 0.419 0c0.0175,0 0.0343,0.007 0.0466,0.0193 0.0124,0.0124 0.0193,0.0291 0.0193,0.0466l0 1.1523c0,0.0175 -0.007,0.0343 -0.0193,0.0466 -0.0124,0.0124 -0.0291,0.0193 -0.0466,0.0193l-1.6762 0c-0.0175,0 -0.0343,-0.007 -0.0466,-0.0193 -0.0124,-0.0124 -0.0193,-0.0292 -0.0193,-0.0466l0 -1.1523c0,-0.037 0.029,-0.0659 0.0659,-0.0659l0.419 0 0.1436 0 0.5508 0zm0.2484 0.6945l-0.5238 -0.5238 -0.5238 0.5238 0.3143 0 0 0.419 0.419 0 0 -0.419 0.3143 0zm-0.1047 -0.8381l0 -0.2095c0,-0.0556 -0.0221,-0.1089 -0.0614,-0.1482 -0.0393,-0.0393 -0.0926,-0.0614 -0.1482,-0.0614l-0.419 0c-0.1163,0 -0.2095,0.0932 -0.2095,0.2095l0 0.2095 -0.419 0c-0.1163,0 -0.2095,0.0932 -0.2095,0.2095l0 1.1523c0,0.0556 0.0221,0.1089 0.0614,0.1482 0.0393,0.0393 0.0926,0.0614 0.1482,0.0614l1.6762 0c0.0556,0 0.1089,-0.0221 0.1482,-0.0614 0.0393,-0.0393 0.0613,-0.0926 0.0613,-0.1482l0 -1.1523c0,-0.0556 -0.0221,-0.1089 -0.0613,-0.1482 -0.0393,-0.0393 -0.0926,-0.0614 -0.1482,-0.0614l-0.419 0zm-0.1437 -0.1868l0 0.1868 -0.5507 0 0 -0.1868c0,-0.0529 0.0428,-0.0957 0.0957,-0.0957 0.0573,0 0.1287,0 0.1796,0 0.0509,0 0.1223,0 0.1797,0 0.0529,0 0.0957,0.0428 0.0957,0.0957z"/>
 </g>
</svg>
