<svg width="40" height="47" viewBox="0 0 40 47" fill="none" xmlns="http://www.w3.org/2000/svg">
<path d="M19.7944 32.2148C8.90978 32.2148 0.09375 36.6229 0.09375 42.0652V46.9903H39.495V42.0652C39.495 36.6229 30.679 32.2148 19.7944 32.2148Z" fill="white"/>
<path d="M9.94141 17.4395C9.94141 20.0519 10.9792 22.5574 12.8265 24.4047C14.6738 26.252 17.1793 27.2898 19.7917 27.2898C22.4042 27.2898 24.9097 26.252 26.7569 24.4047C28.6042 22.5574 29.642 20.0519 29.642 17.4395H9.94141Z" fill="white"/>
<path d="M18.5582 0.201172C17.8194 0.201172 17.3269 0.718313 17.3269 1.43246V8.8202H14.8643V2.66375C14.8643 2.66375 9.3235 4.78157 9.3235 11.8984C9.3235 11.8984 7.47656 12.2432 7.47656 14.9766H32.1024C31.9792 12.2432 30.2554 11.8984 30.2554 11.8984C30.2554 4.78157 24.7146 2.66375 24.7146 2.66375V8.8202H22.252V1.43246C22.252 0.718313 21.7841 0.201172 21.0207 0.201172H18.5582Z" fill="white"/>
</svg>
