<svg width="39" height="47" viewBox="0 0 39 47" fill="none" xmlns="http://www.w3.org/2000/svg">
<path d="M4.71132 7.78111V27.3031C4.71135 28.7026 5.05714 30.0805 5.71802 31.3144C6.3789 32.5483 7.33441 33.6001 8.49977 34.3765L19.6013 41.773L30.7029 34.3765C31.868 33.6003 32.8233 32.5488 33.4842 31.3153C34.145 30.0818 34.491 28.7044 34.4914 27.3052V7.78111L19.6013 4.47821L4.71132 7.78111ZM2.12259 4.00211L19.6013 0.121094L37.0801 4.00211C37.5525 4.10703 37.9749 4.36974 38.2777 4.74687C38.5805 5.124 38.7456 5.59302 38.7457 6.07652V27.3031C38.7455 29.4025 38.2267 31.4693 37.2351 33.3202C36.2436 35.1711 34.8102 36.7488 33.0619 37.9132L19.6013 46.8804L6.14077 37.9132C4.39283 36.749 2.95953 35.1716 1.96805 33.3211C0.976556 31.4706 0.457534 29.4042 0.457031 27.3052V6.07652C0.457114 5.59302 0.622178 5.124 0.924981 4.74687C1.22778 4.36974 1.65023 4.10703 2.12259 4.00211Z" fill="white"/>
<path d="M19.6029 26.6887L13.3512 29.9725L14.5445 23.0181L9.48828 18.0914L16.4781 17.0754L19.6029 10.748L22.7298 17.0754L29.7174 18.0914L24.6612 23.0181L25.8524 29.9725L19.6029 26.6887Z" fill="white"/>
</svg>
