<svg width="49" height="50" viewBox="0 0 49 50" fill="none" xmlns="http://www.w3.org/2000/svg">
<g clip-path="url(#clip0_353_113)">
<path fill-rule="evenodd" clip-rule="evenodd" d="M31.0773 13.217H34.4531H44.2961C44.7073 13.217 45.1019 13.3815 45.3909 13.6704C45.6822 13.9617 45.8443 14.354 45.8443 14.7651V41.8347C45.8443 42.2458 45.6798 42.6405 45.3909 42.9294C45.0996 43.2207 44.7073 43.3828 44.2961 43.3828H4.91918C4.50808 43.3828 4.11342 43.2184 3.82447 42.9294C3.53317 42.6381 3.37107 42.2435 3.37107 41.8347V14.7651C3.37107 13.8959 4.05234 13.217 4.91918 13.217H14.7623H18.1357H31.075H31.0773ZM36.9127 29.5321L24.6077 17.2271L12.3027 29.5321H19.6861V39.3751H29.5292V29.5321H36.9127ZM34.4531 9.84358V4.92205C34.4531 3.61591 33.9339 2.36379 33.0107 1.44057C32.0875 0.517338 30.8353 -0.00183105 29.5292 -0.00183105H19.6861C16.954 -0.00183105 14.7646 2.18761 14.7646 4.9197V9.84124H4.92153C2.18944 9.84124 0 12.0307 0 14.7628V41.8324C0 43.1385 0.519169 44.3906 1.4424 45.3139C2.36562 46.2371 3.61774 46.7563 4.92388 46.7563H44.3008C45.607 46.7563 46.8591 46.2371 47.7823 45.3139C48.7056 44.3906 49.2224 43.1385 49.2224 41.8324V14.7628C49.2224 13.4566 48.7032 12.2045 47.7823 11.2813C46.8591 10.3581 45.607 9.83889 44.3008 9.83889H34.4578L34.4531 9.84358ZM31.0773 5.45532V9.84358H18.1404V5.45532C18.1404 4.2126 19.1458 3.20715 20.3885 3.20715C21.7346 3.20715 23.4119 3.20715 24.6077 3.20715C25.8034 3.20715 27.4807 3.20715 28.8291 3.20715C30.0719 3.20715 31.0773 4.2126 31.0773 5.45532V5.45532Z" fill="white"/>
</g>
<defs>
<clipPath id="clip0_353_113">
<rect width="49" height="50" fill="white"/>
</clipPath>
</defs>
</svg>
