<svg width="43" height="48" viewBox="0 0 43 48" fill="none" xmlns="http://www.w3.org/2000/svg">
<path d="M25.6756 44.6373C23.0046 40.7616 20.2087 35.6517 20.2087 31.0602C20.2087 26.5427 22.6052 22.4202 26.1998 19.9516H25.2013V15.0145H30.1939V18.0508C31.4421 17.7052 32.6902 17.4831 33.9384 17.4831C34.3627 17.4831 34.7871 17.4831 35.1865 17.5571V0.203125H0.238281V44.6373H15.2161V35.9973H20.2087V44.6373H25.6756ZM25.2013 5.14025H30.1939V10.0774H25.2013V5.14025ZM10.2235 39.7002H5.23089V34.763H10.2235V39.7002ZM10.2235 29.8259H5.23089V24.8888H10.2235V29.8259ZM10.2235 19.9516H5.23089V15.0145H10.2235V19.9516ZM10.2235 10.0774H5.23089V5.14025H10.2235V10.0774ZM15.2161 5.14025H20.2087V10.0774H15.2161V5.14025ZM15.2161 15.0145H20.2087V19.9516H15.2161V15.0145ZM15.2161 29.8259V24.8888H20.2087V29.8259H15.2161Z" fill="white"/>
<path d="M33.9363 22.4199C29.1933 22.4199 25.1992 26.3943 25.1992 31.0599C25.1992 37.5028 33.9363 47.1056 33.9363 47.1056C33.9363 47.1056 42.6733 37.5028 42.6733 31.0599C42.6733 26.3943 38.6793 22.4199 33.9363 22.4199ZM33.9363 34.2937C32.1889 34.2937 30.9407 32.8126 30.9407 31.3314C30.9407 29.6034 32.4385 28.3692 33.9363 28.3692C35.4341 28.3692 36.9318 29.8256 36.9318 31.3314C37.1815 32.8126 35.6837 34.2937 33.9363 34.2937Z" fill="white"/>
</svg>
