<svg width="47" height="49" viewBox="0 0 47 49" fill="none" xmlns="http://www.w3.org/2000/svg">
<path d="M35.1582 23.8763C38.3415 24.0234 41.3458 25.3911 43.547 27.6954C45.7482 29.9997 46.977 33.0635 46.9782 36.2501C46.9787 38.4063 46.4163 40.5253 45.3466 42.3974C44.2769 44.2696 42.737 45.83 40.8791 46.9244C39.0213 48.0188 36.91 48.6091 34.7539 48.6371C32.5979 48.6651 30.472 48.1298 28.5863 47.084L23.6625 48.5835C23.467 48.6431 23.259 48.6485 23.0607 48.599C22.8625 48.5494 22.6814 48.4468 22.537 48.3022C22.3927 48.1576 22.2904 47.9764 22.2411 47.778C22.1919 47.5797 22.1976 47.3717 22.2576 47.1763L23.757 42.2547C22.6881 40.3272 22.153 38.1493 22.2068 35.9459C22.2606 33.7425 22.9015 31.5934 24.0632 29.7204C25.2249 27.8473 26.8655 26.3183 28.8154 25.2909C30.7654 24.2636 32.9543 23.7753 35.156 23.8763H35.1582Z" fill="white"/>
<rect x="26.168" y="33.457" width="17.0748" height="2.13435" fill="#202430"/>
<rect x="26.168" y="37.7266" width="9.9603" height="2.13435" fill="#202430"/>
<mask id="path-4-outside-1_425_11900" maskUnits="userSpaceOnUse" x="-0.382812" y="0.398438" width="44" height="46" fill="black">
<rect fill="white" x="-0.382812" y="0.398438" width="44" height="46"/>
<path d="M21.7192 1.39844C23.3718 1.41645 25.0176 1.60782 26.6296 1.96805C26.973 2.04471 27.2839 2.22674 27.5189 2.48871C27.7538 2.75069 27.901 3.0795 27.9399 3.42922L28.3227 6.86715C28.3766 7.35214 28.5437 7.81768 28.8105 8.22628C29.0772 8.63488 29.4362 8.97512 29.8586 9.21958C30.2809 9.46404 30.7547 9.60589 31.2419 9.63371C31.7291 9.66153 32.216 9.57454 32.6634 9.37974L35.8154 7.99511C36.1357 7.85406 36.4918 7.816 36.8347 7.88618C37.1775 7.95636 37.4901 8.13131 37.7291 8.38686C40.0074 10.8209 41.704 13.7399 42.6913 16.9243C42.7948 17.2589 42.7917 17.6175 42.6824 17.9503C42.5731 18.2831 42.3629 18.5736 42.0811 18.7817L39.2849 20.844C38.9481 21.0918 38.6647 21.405 38.4518 21.7648C37.3405 21.4175 36.1916 21.2043 35.0297 21.1299C35.4672 19.9267 36.2514 18.88 37.2834 18.122L39.0777 16.8004C38.3557 14.9085 37.3307 13.1467 36.0428 11.5839L34.0255 12.4687C33.0929 12.877 32.0773 13.0602 31.0608 13.0037C30.0442 12.9471 29.0552 12.6523 28.1737 12.143C27.2921 11.6337 26.5426 10.9243 25.9858 10.0719C25.4289 9.21962 25.0803 8.24829 24.9681 7.23638L24.7204 5.03899C23.7279 4.87675 22.7248 4.78871 21.7192 4.77558C20.6972 4.78746 19.6775 4.87551 18.6686 5.03899L18.4232 7.23864C18.3108 8.25079 17.962 9.22236 17.4051 10.075C16.8481 10.9276 16.0986 11.6373 15.2169 12.1469C14.3352 12.6566 13.3461 12.9518 12.3293 13.0089C11.3126 13.066 10.2966 12.8832 9.36342 12.4755L7.34164 11.5884C6.0538 13.1512 5.02878 14.913 4.30672 16.8049L6.10336 18.1265C6.92336 18.7292 7.59007 19.5163 8.04959 20.4243C8.50911 21.3322 8.74854 22.3356 8.74854 23.3532C8.74854 24.3708 8.50911 25.3742 8.04959 26.2822C7.59007 27.1901 6.92336 27.9773 6.10336 28.5799L4.30672 29.9037C5.02717 31.7994 6.05157 33.5646 7.33939 35.1315L9.37918 34.2377C10.3101 33.8313 11.3235 33.6491 12.3377 33.7058C13.3519 33.7625 14.3387 34.0565 15.2185 34.5642C16.0983 35.0719 16.8467 35.7791 17.4033 36.6289C17.9599 37.4786 18.3092 38.4471 18.4232 39.4565L18.6663 41.6719C19.3733 41.7913 20.0847 41.8678 20.7984 41.9038L20.8209 41.9579L19.8303 45.2224C18.7875 45.1308 17.7529 44.963 16.7346 44.7204C16.396 44.6399 16.0905 44.4567 15.86 44.196C15.6295 43.9352 15.4851 43.6096 15.4468 43.2637L15.064 39.8325C15.0086 39.3495 14.8408 38.8861 14.574 38.4796C14.3072 38.0731 13.9488 37.7348 13.5277 37.4918C13.1065 37.2488 12.6343 37.1079 12.1488 37.0804C11.6634 37.0529 11.1782 37.1396 10.7323 37.3334L7.56453 38.7203C7.24433 38.8606 6.88849 38.898 6.54611 38.8274C6.20374 38.7569 5.8917 38.5818 5.65307 38.3263C3.37479 35.8892 1.67895 32.9671 0.69318 29.7799C0.589144 29.445 0.591994 29.0859 0.701332 28.7527C0.810671 28.4194 1.02107 28.1285 1.30332 27.9202L4.10409 25.8579C4.49775 25.5694 4.81788 25.1921 5.03855 24.7568C5.25921 24.3214 5.37421 23.8402 5.37421 23.3521C5.37421 22.864 5.25921 22.3828 5.03855 21.9474C4.81788 21.5121 4.49775 21.1348 4.10409 20.8463L1.30557 18.7884C1.02292 18.5805 0.812076 18.2897 0.702327 17.9564C0.592578 17.6231 0.589381 17.264 0.69318 16.9288C1.68114 13.7442 3.37852 10.8252 5.65757 8.39137C5.89647 8.13629 6.20863 7.96162 6.55099 7.89146C6.89336 7.82129 7.24906 7.85908 7.56904 7.99962L10.721 9.38424C11.1691 9.57848 11.6565 9.66491 12.144 9.6366C12.6316 9.60829 13.1057 9.46602 13.5283 9.22123C13.9509 8.97644 14.3101 8.63595 14.5772 8.2271C14.8444 7.81826 15.0119 7.35247 15.0663 6.86715L15.449 3.43148C15.4877 3.08105 15.635 2.75151 15.8704 2.48906C16.1058 2.22661 16.4174 2.04443 16.7616 1.96805C18.3781 1.61007 20.0262 1.42095 21.7192 1.40069V1.39844ZM21.69 14.907C23.6397 14.9076 25.5293 15.5828 27.0378 16.818C28.5464 18.0532 29.581 19.7724 29.9662 21.6838C28.8415 22.0119 27.7605 22.4745 26.7467 23.0617C26.6912 22.0859 26.3547 21.147 25.7776 20.3582C25.2006 19.5694 24.4077 18.9644 23.4946 18.6161C22.5814 18.2677 21.587 18.191 20.6312 18.3951C19.6754 18.5992 18.7991 19.0754 18.1079 19.7664C17.4167 20.4573 16.9401 21.3334 16.7356 22.2891C16.5311 23.2448 16.6074 24.2393 16.9553 25.1526C17.3033 26.0659 17.908 26.859 18.6965 27.4364C19.4851 28.0137 20.4238 28.3507 21.3995 28.4065C20.8123 29.4203 20.3496 30.5013 20.0217 31.6261C17.9734 31.2074 16.1532 30.0438 14.9133 28.3605C13.6734 26.6772 13.102 24.5939 13.3095 22.5135C13.5171 20.4332 14.489 18.5038 16.037 17.0987C17.5851 15.6936 19.5993 14.9127 21.69 14.907Z"/>
</mask>
<path d="M21.7192 1.39844C23.3718 1.41645 25.0176 1.60782 26.6296 1.96805C26.973 2.04471 27.2839 2.22674 27.5189 2.48871C27.7538 2.75069 27.901 3.0795 27.9399 3.42922L28.3227 6.86715C28.3766 7.35214 28.5437 7.81768 28.8105 8.22628C29.0772 8.63488 29.4362 8.97512 29.8586 9.21958C30.2809 9.46404 30.7547 9.60589 31.2419 9.63371C31.7291 9.66153 32.216 9.57454 32.6634 9.37974L35.8154 7.99511C36.1357 7.85406 36.4918 7.816 36.8347 7.88618C37.1775 7.95636 37.4901 8.13131 37.7291 8.38686C40.0074 10.8209 41.704 13.7399 42.6913 16.9243C42.7948 17.2589 42.7917 17.6175 42.6824 17.9503C42.5731 18.2831 42.3629 18.5736 42.0811 18.7817L39.2849 20.844C38.9481 21.0918 38.6647 21.405 38.4518 21.7648C37.3405 21.4175 36.1916 21.2043 35.0297 21.1299C35.4672 19.9267 36.2514 18.88 37.2834 18.122L39.0777 16.8004C38.3557 14.9085 37.3307 13.1467 36.0428 11.5839L34.0255 12.4687C33.0929 12.877 32.0773 13.0602 31.0608 13.0037C30.0442 12.9471 29.0552 12.6523 28.1737 12.143C27.2921 11.6337 26.5426 10.9243 25.9858 10.0719C25.4289 9.21962 25.0803 8.24829 24.9681 7.23638L24.7204 5.03899C23.7279 4.87675 22.7248 4.78871 21.7192 4.77558C20.6972 4.78746 19.6775 4.87551 18.6686 5.03899L18.4232 7.23864C18.3108 8.25079 17.962 9.22236 17.4051 10.075C16.8481 10.9276 16.0986 11.6373 15.2169 12.1469C14.3352 12.6566 13.3461 12.9518 12.3293 13.0089C11.3126 13.066 10.2966 12.8832 9.36342 12.4755L7.34164 11.5884C6.0538 13.1512 5.02878 14.913 4.30672 16.8049L6.10336 18.1265C6.92336 18.7292 7.59007 19.5163 8.04959 20.4243C8.50911 21.3322 8.74854 22.3356 8.74854 23.3532C8.74854 24.3708 8.50911 25.3742 8.04959 26.2822C7.59007 27.1901 6.92336 27.9773 6.10336 28.5799L4.30672 29.9037C5.02717 31.7994 6.05157 33.5646 7.33939 35.1315L9.37918 34.2377C10.3101 33.8313 11.3235 33.6491 12.3377 33.7058C13.3519 33.7625 14.3387 34.0565 15.2185 34.5642C16.0983 35.0719 16.8467 35.7791 17.4033 36.6289C17.9599 37.4786 18.3092 38.4471 18.4232 39.4565L18.6663 41.6719C19.3733 41.7913 20.0847 41.8678 20.7984 41.9038L20.8209 41.9579L19.8303 45.2224C18.7875 45.1308 17.7529 44.963 16.7346 44.7204C16.396 44.6399 16.0905 44.4567 15.86 44.196C15.6295 43.9352 15.4851 43.6096 15.4468 43.2637L15.064 39.8325C15.0086 39.3495 14.8408 38.8861 14.574 38.4796C14.3072 38.0731 13.9488 37.7348 13.5277 37.4918C13.1065 37.2488 12.6343 37.1079 12.1488 37.0804C11.6634 37.0529 11.1782 37.1396 10.7323 37.3334L7.56453 38.7203C7.24433 38.8606 6.88849 38.898 6.54611 38.8274C6.20374 38.7569 5.8917 38.5818 5.65307 38.3263C3.37479 35.8892 1.67895 32.9671 0.69318 29.7799C0.589144 29.445 0.591994 29.0859 0.701332 28.7527C0.810671 28.4194 1.02107 28.1285 1.30332 27.9202L4.10409 25.8579C4.49775 25.5694 4.81788 25.1921 5.03855 24.7568C5.25921 24.3214 5.37421 23.8402 5.37421 23.3521C5.37421 22.864 5.25921 22.3828 5.03855 21.9474C4.81788 21.5121 4.49775 21.1348 4.10409 20.8463L1.30557 18.7884C1.02292 18.5805 0.812076 18.2897 0.702327 17.9564C0.592578 17.6231 0.589381 17.264 0.69318 16.9288C1.68114 13.7442 3.37852 10.8252 5.65757 8.39137C5.89647 8.13629 6.20863 7.96162 6.55099 7.89146C6.89336 7.82129 7.24906 7.85908 7.56904 7.99962L10.721 9.38424C11.1691 9.57848 11.6565 9.66491 12.144 9.6366C12.6316 9.60829 13.1057 9.46602 13.5283 9.22123C13.9509 8.97644 14.3101 8.63595 14.5772 8.2271C14.8444 7.81826 15.0119 7.35247 15.0663 6.86715L15.449 3.43148C15.4877 3.08105 15.635 2.75151 15.8704 2.48906C16.1058 2.22661 16.4174 2.04443 16.7616 1.96805C18.3781 1.61007 20.0262 1.42095 21.7192 1.40069V1.39844ZM21.69 14.907C23.6397 14.9076 25.5293 15.5828 27.0378 16.818C28.5464 18.0532 29.581 19.7724 29.9662 21.6838C28.8415 22.0119 27.7605 22.4745 26.7467 23.0617C26.6912 22.0859 26.3547 21.147 25.7776 20.3582C25.2006 19.5694 24.4077 18.9644 23.4946 18.6161C22.5814 18.2677 21.587 18.191 20.6312 18.3951C19.6754 18.5992 18.7991 19.0754 18.1079 19.7664C17.4167 20.4573 16.9401 21.3334 16.7356 22.2891C16.5311 23.2448 16.6074 24.2393 16.9553 25.1526C17.3033 26.0659 17.908 26.859 18.6965 27.4364C19.4851 28.0137 20.4238 28.3507 21.3995 28.4065C20.8123 29.4203 20.3496 30.5013 20.0217 31.6261C17.9734 31.2074 16.1532 30.0438 14.9133 28.3605C13.6734 26.6772 13.102 24.5939 13.3095 22.5135C13.5171 20.4332 14.489 18.5038 16.037 17.0987C17.5851 15.6936 19.5993 14.9127 21.69 14.907Z" fill="white"/>
<path d="M21.7192 1.39844C23.3718 1.41645 25.0176 1.60782 26.6296 1.96805C26.973 2.04471 27.2839 2.22674 27.5189 2.48871C27.7538 2.75069 27.901 3.0795 27.9399 3.42922L28.3227 6.86715C28.3766 7.35214 28.5437 7.81768 28.8105 8.22628C29.0772 8.63488 29.4362 8.97512 29.8586 9.21958C30.2809 9.46404 30.7547 9.60589 31.2419 9.63371C31.7291 9.66153 32.216 9.57454 32.6634 9.37974L35.8154 7.99511C36.1357 7.85406 36.4918 7.816 36.8347 7.88618C37.1775 7.95636 37.4901 8.13131 37.7291 8.38686C40.0074 10.8209 41.704 13.7399 42.6913 16.9243C42.7948 17.2589 42.7917 17.6175 42.6824 17.9503C42.5731 18.2831 42.3629 18.5736 42.0811 18.7817L39.2849 20.844C38.9481 21.0918 38.6647 21.405 38.4518 21.7648C37.3405 21.4175 36.1916 21.2043 35.0297 21.1299C35.4672 19.9267 36.2514 18.88 37.2834 18.122L39.0777 16.8004C38.3557 14.9085 37.3307 13.1467 36.0428 11.5839L34.0255 12.4687C33.0929 12.877 32.0773 13.0602 31.0608 13.0037C30.0442 12.9471 29.0552 12.6523 28.1737 12.143C27.2921 11.6337 26.5426 10.9243 25.9858 10.0719C25.4289 9.21962 25.0803 8.24829 24.9681 7.23638L24.7204 5.03899C23.7279 4.87675 22.7248 4.78871 21.7192 4.77558C20.6972 4.78746 19.6775 4.87551 18.6686 5.03899L18.4232 7.23864C18.3108 8.25079 17.962 9.22236 17.4051 10.075C16.8481 10.9276 16.0986 11.6373 15.2169 12.1469C14.3352 12.6566 13.3461 12.9518 12.3293 13.0089C11.3126 13.066 10.2966 12.8832 9.36342 12.4755L7.34164 11.5884C6.0538 13.1512 5.02878 14.913 4.30672 16.8049L6.10336 18.1265C6.92336 18.7292 7.59007 19.5163 8.04959 20.4243C8.50911 21.3322 8.74854 22.3356 8.74854 23.3532C8.74854 24.3708 8.50911 25.3742 8.04959 26.2822C7.59007 27.1901 6.92336 27.9773 6.10336 28.5799L4.30672 29.9037C5.02717 31.7994 6.05157 33.5646 7.33939 35.1315L9.37918 34.2377C10.3101 33.8313 11.3235 33.6491 12.3377 33.7058C13.3519 33.7625 14.3387 34.0565 15.2185 34.5642C16.0983 35.0719 16.8467 35.7791 17.4033 36.6289C17.9599 37.4786 18.3092 38.4471 18.4232 39.4565L18.6663 41.6719C19.3733 41.7913 20.0847 41.8678 20.7984 41.9038L20.8209 41.9579L19.8303 45.2224C18.7875 45.1308 17.7529 44.963 16.7346 44.7204C16.396 44.6399 16.0905 44.4567 15.86 44.196C15.6295 43.9352 15.4851 43.6096 15.4468 43.2637L15.064 39.8325C15.0086 39.3495 14.8408 38.8861 14.574 38.4796C14.3072 38.0731 13.9488 37.7348 13.5277 37.4918C13.1065 37.2488 12.6343 37.1079 12.1488 37.0804C11.6634 37.0529 11.1782 37.1396 10.7323 37.3334L7.56453 38.7203C7.24433 38.8606 6.88849 38.898 6.54611 38.8274C6.20374 38.7569 5.8917 38.5818 5.65307 38.3263C3.37479 35.8892 1.67895 32.9671 0.69318 29.7799C0.589144 29.445 0.591994 29.0859 0.701332 28.7527C0.810671 28.4194 1.02107 28.1285 1.30332 27.9202L4.10409 25.8579C4.49775 25.5694 4.81788 25.1921 5.03855 24.7568C5.25921 24.3214 5.37421 23.8402 5.37421 23.3521C5.37421 22.864 5.25921 22.3828 5.03855 21.9474C4.81788 21.5121 4.49775 21.1348 4.10409 20.8463L1.30557 18.7884C1.02292 18.5805 0.812076 18.2897 0.702327 17.9564C0.592578 17.6231 0.589381 17.264 0.69318 16.9288C1.68114 13.7442 3.37852 10.8252 5.65757 8.39137C5.89647 8.13629 6.20863 7.96162 6.55099 7.89146C6.89336 7.82129 7.24906 7.85908 7.56904 7.99962L10.721 9.38424C11.1691 9.57848 11.6565 9.66491 12.144 9.6366C12.6316 9.60829 13.1057 9.46602 13.5283 9.22123C13.9509 8.97644 14.3101 8.63595 14.5772 8.2271C14.8444 7.81826 15.0119 7.35247 15.0663 6.86715L15.449 3.43148C15.4877 3.08105 15.635 2.75151 15.8704 2.48906C16.1058 2.22661 16.4174 2.04443 16.7616 1.96805C18.3781 1.61007 20.0262 1.42095 21.7192 1.40069V1.39844ZM21.69 14.907C23.6397 14.9076 25.5293 15.5828 27.0378 16.818C28.5464 18.0532 29.581 19.7724 29.9662 21.6838C28.8415 22.0119 27.7605 22.4745 26.7467 23.0617C26.6912 22.0859 26.3547 21.147 25.7776 20.3582C25.2006 19.5694 24.4077 18.9644 23.4946 18.6161C22.5814 18.2677 21.587 18.191 20.6312 18.3951C19.6754 18.5992 18.7991 19.0754 18.1079 19.7664C17.4167 20.4573 16.9401 21.3334 16.7356 22.2891C16.5311 23.2448 16.6074 24.2393 16.9553 25.1526C17.3033 26.0659 17.908 26.859 18.6965 27.4364C19.4851 28.0137 20.4238 28.3507 21.3995 28.4065C20.8123 29.4203 20.3496 30.5013 20.0217 31.6261C17.9734 31.2074 16.1532 30.0438 14.9133 28.3605C13.6734 26.6772 13.102 24.5939 13.3095 22.5135C13.5171 20.4332 14.489 18.5038 16.037 17.0987C17.5851 15.6936 19.5993 14.9127 21.69 14.907Z" stroke="white" stroke-width="1.15478" mask="url(#path-4-outside-1_425_11900)"/>
</svg>
