<svg width="78" height="78" viewBox="0 0 78 78" fill="none" xmlns="http://www.w3.org/2000/svg">
<g opacity="0.5">
<path d="M30.1367 51.707V26.2932C30.1372 25.9752 30.2233 25.6633 30.3858 25.39C30.5484 25.1167 30.7814 24.8922 31.0606 24.7399C31.3397 24.5876 31.6547 24.5133 31.9724 24.5246C32.2902 24.5359 32.5991 24.6324 32.8667 24.8041L52.6362 37.5075C52.8865 37.6679 53.0925 37.8886 53.2351 38.1495C53.3778 38.4103 53.4526 38.7028 53.4526 39.0001C53.4526 39.2974 53.3778 39.5899 53.2351 39.8508C53.0925 40.1116 52.8865 40.3324 52.6362 40.4928L32.8667 53.1997C32.5991 53.3714 32.2902 53.4679 31.9724 53.4792C31.6547 53.4905 31.3397 53.4162 31.0606 53.2639C30.7814 53.1116 30.5484 52.8871 30.3858 52.6138C30.2233 52.3405 30.1372 52.0285 30.1367 51.7106V51.707Z" fill="white"/>
<path fill-rule="evenodd" clip-rule="evenodd" d="M39 5.31818C30.067 5.31818 21.4999 8.86679 15.1834 15.1834C8.86679 21.4999 5.31818 30.067 5.31818 39C5.31818 47.933 8.86679 56.5001 15.1834 62.8166C21.4999 69.1332 30.067 72.6818 39 72.6818C47.933 72.6818 56.5001 69.1332 62.8166 62.8166C69.1332 56.5001 72.6818 47.933 72.6818 39C72.6818 30.067 69.1332 21.4999 62.8166 15.1834C56.5001 8.86679 47.933 5.31818 39 5.31818V5.31818ZM0 39C0 17.4614 17.4614 0 39 0C60.5386 0 78 17.4614 78 39C78 60.5386 60.5386 78 39 78C17.4614 78 0 60.5386 0 39Z" fill="white"/>
</g>
</svg>
