<svg width="6" height="11" viewBox="0 0 6 11" fill="none" xmlns="http://www.w3.org/2000/svg">
<path d="M5.51307 10.2252C5.65227 10.086 5.73047 9.89717 5.73047 9.70029C5.73047 9.5034 5.65227 9.31458 5.51307 9.17534L1.8377 5.49997L5.51308 1.82459C5.64833 1.68455 5.72317 1.497 5.72148 1.30232C5.71978 1.10763 5.6417 0.921407 5.50403 0.783741C5.36637 0.646075 5.18014 0.567988 4.98546 0.566297C4.79078 0.564605 4.60322 0.639444 4.46318 0.774697L0.26286 4.97502C0.123662 5.11426 0.0454657 5.30308 0.0454657 5.49996C0.0454657 5.69685 0.123662 5.88567 0.26286 6.02491L4.46318 10.2252C4.60242 10.3644 4.79124 10.4426 4.98813 10.4426C5.18501 10.4426 5.37384 10.3644 5.51307 10.2252Z" fill="white"/>
</svg>
