<svg width="6" height="11" viewBox="0 0 6 11" fill="none" xmlns="http://www.w3.org/2000/svg">
<path d="M0.486925 10.2252C0.347728 10.086 0.269531 9.89717 0.269531 9.70029C0.269531 9.5034 0.347728 9.31458 0.486925 9.17534L4.1623 5.49997L0.486925 1.82459C0.351673 1.68455 0.276832 1.497 0.278524 1.30232C0.280216 1.10763 0.358304 0.921407 0.495969 0.783741C0.633635 0.646075 0.819863 0.567988 1.01454 0.566297C1.20922 0.564605 1.39678 0.639444 1.53682 0.774697L5.73714 4.97502C5.87634 5.11426 5.95453 5.30308 5.95453 5.49996C5.95453 5.69685 5.87634 5.88567 5.73714 6.02491L1.53682 10.2252C1.39758 10.3644 1.20876 10.4426 1.01187 10.4426C0.814988 10.4426 0.626164 10.3644 0.486925 10.2252Z" fill="white"/>
</svg>
