<svg width="6" height="11" viewBox="0 0 6 11" fill="none" xmlns="http://www.w3.org/2000/svg">
<path d="M0.489855 10.226C0.350658 10.0867 0.272461 9.8979 0.272461 9.70102C0.272461 9.50413 0.350658 9.31531 0.489855 9.17607L4.16523 5.5007L0.489855 1.82532C0.354602 1.68529 0.279762 1.49773 0.281454 1.30305C0.283146 1.10837 0.361234 0.922139 0.498899 0.784473C0.636565 0.646808 0.822793 0.568721 1.01747 0.567029C1.21215 0.565337 1.39971 0.640177 1.53975 0.77543L5.74007 4.97575C5.87927 5.11499 5.95746 5.30381 5.95746 5.5007C5.95746 5.69758 5.87927 5.88641 5.74007 6.02564L1.53975 10.226C1.40051 10.3652 1.21169 10.4434 1.0148 10.4434C0.817918 10.4434 0.629094 10.3652 0.489855 10.226Z" fill="white"/>
</svg>
