<svg width="6" height="11" viewBox="0 0 6 11" fill="none" xmlns="http://www.w3.org/2000/svg">
<path d="M5.51015 10.226C5.64934 10.0867 5.72754 9.8979 5.72754 9.70102C5.72754 9.50413 5.64934 9.31531 5.51015 9.17607L1.83477 5.5007L5.51015 1.82532C5.6454 1.68529 5.72024 1.49773 5.71855 1.30305C5.71685 1.10837 5.63877 0.922139 5.5011 0.784473C5.36344 0.646808 5.17721 0.568721 4.98253 0.567029C4.78785 0.565337 4.60029 0.640177 4.46025 0.77543L0.25993 4.97575C0.120733 5.11499 0.042536 5.30381 0.042536 5.5007C0.042536 5.69758 0.120733 5.88641 0.25993 6.02564L4.46025 10.226C4.59949 10.3652 4.78831 10.4434 4.9852 10.4434C5.18208 10.4434 5.37091 10.3652 5.51015 10.226Z" fill="white"/>
</svg>
