<svg width="142" height="24" viewBox="0 0 142 24" fill="none" xmlns="http://www.w3.org/2000/svg">
<path d="M26.1746 23.4378L23.6416 19.521C23.1705 18.7951 22.753 18.3046 22.39 18.0487C22.0263 17.7936 21.5112 17.6656 20.8437 17.6656H19.8136V23.4375H16.0732V8.71338H19.8136V14.0732H20.7265C21.3935 14.0732 21.9039 13.9459 22.2576 13.6901C22.6109 13.4352 23.0228 12.9442 23.4939 12.2173L25.7912 8.71338H29.9436L26.6459 13.6901C25.8991 14.8485 25.2029 15.5654 24.5541 15.8399C25.221 16.0562 25.9679 16.7922 26.7926 18.0484L30.3263 23.4372H26.1749L26.1746 23.4378Z" fill="#FEFEFE"/>
<path d="M38.3167 8.53639C40.6722 8.53639 42.6058 9.43927 44.1179 11.2453L41.8801 13.6603C40.7998 12.6591 39.6126 12.1585 38.3167 12.1585C37.2757 12.1585 36.3827 12.5228 35.6363 13.2484C34.89 13.9743 34.5177 14.9171 34.5177 16.0755C34.5177 17.2343 34.89 18.1765 35.6363 18.9021C36.3827 19.6291 37.2757 19.9923 38.3167 19.9923C39.6123 19.9923 40.7995 19.4915 41.8801 18.4905L44.1179 20.9048C42.6058 22.7116 40.6725 23.6144 38.3167 23.6144C36.2153 23.6144 34.4339 22.8784 32.9719 21.4056C31.509 19.9328 30.7773 18.1566 30.7773 16.0755C30.7773 13.994 31.509 12.2172 32.9719 10.7455C34.4339 9.27215 36.2156 8.53613 38.3167 8.53613V8.53639Z" fill="#FEFEFE"/>
<path d="M60.5478 23.4378H56.808V12.3357H50.3885V23.4378H46.6484V8.71362H60.5478V23.4378Z" fill="#FEFEFE"/>
<path d="M94.6423 23.4378H90.9025V17.8717H84.4823V23.4378H80.7422V8.71362H84.4823V14.2496H90.9025V8.71362H94.6423V23.4378Z" fill="#FEFEFE"/>
<path d="M104.43 8.53639C106.787 8.53639 108.72 9.43927 110.232 11.2453L107.994 13.6603C106.914 12.6591 105.727 12.1585 104.43 12.1585C103.389 12.1585 102.497 12.5228 101.751 13.2484C101.005 13.9743 100.631 14.9171 100.631 16.0755C100.631 17.2343 101.005 18.1765 101.751 18.9021C102.497 19.6291 103.389 19.9923 104.43 19.9923C105.727 19.9923 106.914 19.4915 107.994 18.4905L110.232 20.9048C108.72 22.7116 106.787 23.6144 104.43 23.6144C102.33 23.6144 100.548 22.8784 99.0857 21.4056C97.6232 19.9328 96.8916 18.1566 96.8916 16.0755C96.8916 13.994 97.6232 12.2172 99.0857 10.7455C100.548 9.27215 102.33 8.53613 104.43 8.53613V8.53639Z" fill="#FEFEFE"/>
<path d="M126.112 23.4378H122.372V14.75L114.833 23.4378H112.418V8.71362H116.158V17.4012L123.697 8.71362H126.112V23.4378Z" fill="#FEFEFE"/>
<path d="M138.159 12.3357H134.565C133.036 12.3357 132.268 12.9445 132.268 14.1614C132.268 15.3988 133.036 16.0166 134.565 16.0166H138.159V12.3357ZM141.899 23.4378H138.159V19.1676H136.629C136.038 19.1883 135.579 19.3246 135.244 19.5805C134.912 19.8358 134.498 20.3165 134.008 21.0235L132.358 23.4378H128.294L130.177 20.6106C130.866 19.5709 131.398 18.913 131.77 18.6378C130.787 18.3436 130.004 17.7693 129.413 16.9156C128.824 16.0608 128.529 15.1437 128.529 14.1614C128.529 13.4945 128.633 12.8612 128.839 12.2623C129.045 11.6639 129.378 11.0849 129.84 10.5245C130.301 9.96497 130.975 9.52362 131.857 9.19973C132.742 8.87531 133.781 8.71362 134.98 8.71362H141.899V23.4378Z" fill="#FEFEFE"/>
<path d="M70.3026 20.0976C68.0847 20.0976 66.2807 18.2931 66.2807 16.0758C66.2807 13.8579 68.0847 12.0535 70.3026 12.0535C72.5204 12.0535 74.3249 13.8579 74.3249 16.0758C74.3249 18.2931 72.5204 20.0976 70.3026 20.0976ZM74.1358 8.71333V9.58413C73.012 8.91952 71.7021 8.53638 70.3026 8.53638C66.1385 8.53638 62.7637 11.9117 62.7637 16.0758C62.7637 20.2394 66.1385 23.6147 70.3026 23.6147C71.7021 23.6147 73.0122 23.232 74.1358 22.5669V23.4377H77.8753V8.71359H74.1358V8.71333Z" fill="#FEFEFE"/>
<path d="M16.7261 0.568359L16.8229 2.59711L17.9997 4.25437L15.9697 4.35139L14.3124 5.52771L14.2159 3.49766L13.0391 1.84118L15.0686 1.74469L16.7261 0.568359Z" fill="#E84929"/>
<path d="M10.6757 14.3341L13.6849 6.76904L10.7618 10.431C9.43467 9.26321 7.6954 8.55332 5.78927 8.55332C3.46223 8.55332 1.38251 9.60858 0.00129352 11.2664L2.43052 13.8878C3.14817 12.7937 4.38503 12.0691 5.78927 12.0691C6.86393 12.0691 7.84105 12.4947 8.56206 13.1849L5.83144 16.6052H9.76814C9.51176 18.5729 7.82605 20.099 5.78927 20.099C4.38451 20.099 3.14687 19.3731 2.42975 18.2785L0 20.9007C1.38122 22.5585 3.46146 23.6148 5.78927 23.6148C9.94794 23.6148 13.3199 20.2429 13.3199 16.0842C13.3199 14.7964 12.9957 13.5849 12.4263 12.5255L10.6757 14.3338V14.3341Z" fill="#FEFEFE"/>
</svg>
