<svg width="127" height="85" viewBox="0 0 127 85" fill="none" xmlns="http://www.w3.org/2000/svg">
<path fill-rule="evenodd" clip-rule="evenodd" d="M59.8402 6.68162V0C45.7548 0.426424 34.4678 11.8565 34.4678 25.896C34.4678 26.2366 34.4712 27.7003 34.7663 29.7643C34.7659 29.7645 34.7656 29.7645 34.7649 29.7645C31.1079 30.4957 25.883 31.6237 20.0263 34.1449C15.0763 36.2754 9.98926 39.9046 9.98926 39.9046C9.98926 39.9046 19.7362 36.5122 25.0209 35.4232C28.5631 34.6938 32.8452 34.37 35.7272 34.1751C37.8908 41.492 43.7803 51.0696 59.84 51.792L59.8402 50.8547V49.1925V31.8622V28.0299V9.44901C59.8402 9.44901 57.4683 19.6108 54.117 23.8396C52.9152 25.3567 51.7205 26.8421 50.6459 28.3501C49.7374 29.6247 48.9157 30.9158 48.247 32.2549C47.1979 34.3561 46.5268 36.5752 46.5001 39.038C46.4749 41.3658 47.0065 43.4181 47.9999 45.133C43.9639 42.2209 40.9922 37.9517 39.7697 33.0041C39.4945 31.8893 39.3097 30.7399 39.2195 29.5646C39.1785 29.0269 39.1552 28.4848 39.1552 27.9371C39.1552 16.4591 48.3438 7.10579 59.8401 6.68158L59.8402 6.68162Z" fill="#2873B9"/>
<path fill-rule="evenodd" clip-rule="evenodd" d="M111.417 39.905C111.417 39.905 106.33 36.2759 101.38 34.1453C95.523 31.6242 90.298 30.4962 86.641 29.7649C86.6072 29.758 86.5753 29.76 86.5413 29.754C86.8398 27.6983 86.8437 26.2395 86.8437 25.8964C86.8439 11.9443 75.6973 0.570238 61.7344 0.010498L61.7346 6.69188C73.1077 7.2476 82.1564 16.5471 82.1564 27.9375C82.1564 28.4852 82.1356 29.0277 82.0943 29.5653C82.0044 30.7411 81.8162 31.8894 81.5408 33.0045C80.6025 36.8021 78.6346 40.2003 75.9449 42.892C76.2441 41.3241 76.0934 39.7112 75.4192 38.0913C74.5425 36.1347 73.0916 34.5038 72.1245 32.6426C72.0432 32.4853 71.968 32.3336 71.8962 32.1837C71.2143 30.7597 70.9925 29.6615 71.2734 28.3916C71.3513 28.0393 71.4659 27.6743 71.6219 27.2844C71.0639 27.5701 70.624 27.9264 70.2791 28.3261C69.3392 29.4152 69.115 30.8304 69.1933 32.0466C69.0113 32.0385 68.8281 32.0311 68.645 32.0234C67.8186 31.0289 67.4429 29.5948 67.559 28.1805C67.5806 27.9216 67.6175 27.6635 67.6721 27.409C69.1114 20.6736 64.0193 21.4614 61.7344 9.66026L61.7346 28.0315V31.8637V49.1828V50.0525V51.7839C77.5445 50.7756 83.3966 41.3712 85.5649 34.1676C88.4474 34.3619 92.7974 34.6848 96.3849 35.4236C101.67 36.5122 111.417 39.905 111.417 39.905H111.417Z" fill="#D50A0A"/>
<path fill-rule="evenodd" clip-rule="evenodd" d="M0.600904 74.3152C0.455537 74.3152 0.382812 74.2435 0.382812 74.101V56.994C0.382812 56.8517 0.455537 56.78 0.600904 56.78H14.0563C14.2017 56.78 14.2744 56.8517 14.2744 56.994V74.101C14.2744 74.2435 14.2017 74.3152 14.0563 74.3152H11.2925C11.1472 74.3152 11.0744 74.2435 11.0744 74.101V59.7757H3.60731V74.101C3.60731 74.2435 3.53442 74.3152 3.38901 74.3152H0.600987H0.600904Z" fill="#D50A0A"/>
<path fill-rule="evenodd" clip-rule="evenodd" d="M25.0507 59.5975C24.3717 59.5975 23.7758 59.6766 23.2628 59.8352C22.7494 59.9939 22.317 60.263 21.9655 60.6435C21.614 61.0238 21.3493 61.5315 21.1717 62.1652C20.9937 62.7996 20.9049 63.5922 20.9049 64.5427V66.5278C20.9049 67.4793 20.9937 68.2736 21.1717 68.9116C21.3492 69.55 21.614 70.0591 21.9655 70.4399C22.317 70.8201 22.7494 71.0917 23.2628 71.2539C23.7758 71.4161 24.3717 71.4975 25.0507 71.4975C25.7213 71.4975 26.3153 71.4161 26.8326 71.2539C27.3497 71.0917 27.7843 70.8201 28.1356 70.4399C28.4873 70.0591 28.7516 69.55 28.9297 68.9116C29.1072 68.2736 29.1962 67.4793 29.1962 66.5278V64.5669C29.1962 63.6157 29.1072 62.8213 28.9297 62.1834C28.7516 61.5452 28.4873 61.0358 28.1356 60.6551C27.7843 60.2748 27.3497 60.0037 26.8326 59.8411C26.3153 59.6791 25.7213 59.5975 25.0507 59.5975V59.5975ZM25.0507 74.6478C23.8789 74.6478 22.8363 74.5129 21.9232 74.2434C21.01 73.9745 20.2384 73.5205 19.6081 72.8823C18.9775 72.2443 18.4987 71.3984 18.1714 70.3442C17.8442 69.2903 17.6807 67.9788 17.6807 66.4091V64.6619C17.6807 63.1088 17.8442 61.8067 18.1714 60.7564C18.4989 59.7066 18.9775 58.8645 19.6081 58.2304C20.2384 57.5962 21.01 57.1427 21.9232 56.8695C22.8363 56.5955 23.8789 56.459 25.0507 56.459C26.2223 56.459 27.2668 56.5937 28.1841 56.863C29.1013 57.1328 29.8711 57.5866 30.4935 58.2245C31.1157 58.8623 31.5904 59.7086 31.9177 60.7627C32.2449 61.8164 32.4087 63.124 32.4087 64.6859V66.433C32.4087 67.9947 32.2449 69.3004 31.9177 70.35C31.5904 71.4007 31.1157 72.2443 30.4935 72.8823C29.8711 73.5205 29.1013 73.9745 28.1841 74.2434C27.2668 74.5129 26.2223 74.6478 25.0507 74.6478V74.6478Z" fill="#D50A0A"/>
<path fill-rule="evenodd" clip-rule="evenodd" d="M33.9592 74.3152C33.814 74.3152 33.7857 74.2596 33.8748 74.1483L41.1598 65.2326L33.8748 56.9468C33.7857 56.8356 33.81 56.78 33.9474 56.78H37.4507C37.5395 56.78 37.6083 56.7924 37.6568 56.8157C37.7055 56.8396 37.7578 56.8835 37.8144 56.9467L43.7299 63.8773V56.994C43.7299 56.8517 43.8027 56.78 43.9483 56.78H46.5664C46.7118 56.78 46.7845 56.8517 46.7845 56.994V63.8773L52.7123 56.9467C52.7607 56.8835 52.811 56.8396 52.8636 56.8157C52.9161 56.7923 52.9867 56.78 53.0758 56.78H56.567C56.704 56.78 56.7282 56.8356 56.6394 56.9468L49.3664 65.2326L56.6394 74.1483C56.7282 74.2596 56.7004 74.3152 56.5545 74.3152H53.003C52.914 74.3152 52.8451 74.3029 52.7969 74.2794C52.7484 74.2556 52.7 74.2121 52.6513 74.1483L46.7845 66.7658V74.1011C46.7845 74.2435 46.7118 74.3152 46.5664 74.3152H43.9482C43.8026 74.3152 43.7299 74.2435 43.7299 74.1011V66.7658L37.8869 74.1483C37.8384 74.2122 37.7899 74.2556 37.7417 74.2794C37.6932 74.3029 37.6244 74.3152 37.5351 74.3152H33.9592Z" fill="#D50A0A"/>
<path fill-rule="evenodd" clip-rule="evenodd" d="M65.7927 74.6478C64.5803 74.6478 63.4955 74.5129 62.5377 74.2434C61.5801 73.9745 60.7721 73.5205 60.1137 72.8823C59.4548 72.2443 58.952 71.3984 58.6043 70.3442C58.2569 69.2903 58.083 67.9788 58.083 66.4091V64.6619C58.083 63.1088 58.257 61.8067 58.6043 60.7564C58.952 59.7066 59.4548 58.8623 60.1137 58.2245C60.772 57.5866 61.5801 57.1328 62.5377 56.863C63.4955 56.5937 64.5803 56.459 65.7927 56.459C66.2047 56.459 66.6148 56.4708 67.0227 56.4944C67.4311 56.5179 67.8211 56.554 68.1925 56.6015C68.5642 56.6488 68.9159 56.7068 69.2474 56.774C69.5788 56.8415 69.8735 56.9145 70.1323 56.9939C70.2696 57.0337 70.3262 57.1245 70.3019 57.267L69.9018 59.6564C69.8777 59.7995 69.7928 59.8549 69.6476 59.8235C69.0413 59.7045 68.4208 59.6212 67.7866 59.5735C67.152 59.5259 66.5278 59.502 65.9138 59.502C65.1703 59.502 64.5137 59.5837 63.9439 59.7462C63.3743 59.9084 62.8955 60.1859 62.5076 60.5782C62.1198 60.9704 61.8247 61.4897 61.6225 62.1356C61.4206 62.7818 61.3197 63.5836 61.3197 64.5426V66.5277C61.3197 67.4953 61.4184 68.3033 61.6168 68.9534C61.8145 69.603 62.1073 70.1244 62.4953 70.5166C62.8835 70.9089 63.3639 71.1868 63.938 71.3486C64.5117 71.5113 65.1703 71.5924 65.9139 71.5924C66.6169 71.5924 67.2898 71.5705 67.9323 71.5269C68.5745 71.4837 69.1947 71.4223 69.7929 71.343C69.9382 71.3192 70.023 71.3782 70.0474 71.5211L70.3989 73.9585C70.415 74.0454 70.4114 74.1068 70.3867 74.1424C70.3625 74.1781 70.3097 74.2076 70.229 74.2319C69.9627 74.2952 69.6594 74.3525 69.3199 74.4042C68.9804 74.4555 68.6212 74.4994 68.2412 74.5346C67.8612 74.5704 67.4635 74.598 67.0472 74.6182C66.6309 74.6379 66.2126 74.6477 65.7927 74.6477L65.7927 74.6478Z" fill="#2873B9"/>
<path fill-rule="evenodd" clip-rule="evenodd" d="M79.9992 59.5975C79.3204 59.5975 78.7243 59.6766 78.2113 59.8352C77.6979 59.9939 77.2658 60.263 76.9143 60.6435C76.5626 61.0238 76.298 61.5315 76.1202 62.1652C75.9427 62.7996 75.8537 63.5922 75.8537 64.5427V66.5278C75.8537 67.4793 75.9427 68.2736 76.1202 68.9116C76.298 69.55 76.5626 70.0591 76.9143 70.4399C77.2658 70.8201 77.6979 71.0917 78.2113 71.2539C78.7243 71.4161 79.3204 71.4975 79.9992 71.4975C80.6702 71.4975 81.2639 71.4161 81.7814 71.2539C82.2984 71.0917 82.7331 70.8201 83.0843 70.4399C83.4356 70.0591 83.7001 69.55 83.8784 68.9116C84.0562 68.2736 84.1447 67.4793 84.1447 66.5278V64.5669C84.1447 63.6157 84.0561 62.8213 83.8784 62.1834C83.7001 61.5452 83.4356 61.0358 83.0843 60.6551C82.7331 60.2748 82.2982 60.0037 81.7814 59.8411C81.2639 59.6791 80.67 59.5975 79.9992 59.5975V59.5975ZM79.9992 74.6478C78.8276 74.6478 77.7851 74.5129 76.8717 74.2434C75.9585 73.9745 75.1868 73.5205 74.5565 72.8823C73.9263 72.2443 73.4475 71.3984 73.1199 70.3442C72.7931 69.2903 72.6289 67.9788 72.6289 66.4091L72.6292 64.6619C72.6292 63.1088 72.7931 61.8067 73.1199 60.7564C73.4474 59.7066 73.9263 58.8645 74.5565 58.2304C75.1868 57.5962 75.9585 57.1427 76.8717 56.8695C77.7851 56.5955 78.8276 56.459 79.9992 56.459C81.171 56.459 82.2153 56.5937 83.1328 56.863C84.0496 57.1328 84.8196 57.5866 85.442 58.2245C86.0644 58.8623 86.5387 59.7086 86.8664 60.7627C87.1939 61.8164 87.3572 63.124 87.3572 64.6859V66.433C87.3572 67.9947 87.1939 69.3004 86.8664 70.35C86.5389 71.4007 86.0642 72.2443 85.442 72.8823C84.8196 73.5205 84.0496 73.9745 83.1328 74.2434C82.2156 74.5129 81.171 74.6478 79.9992 74.6478V74.6478Z" fill="#2873B9"/>
<path fill-rule="evenodd" clip-rule="evenodd" d="M105.14 59.5974C104.461 59.5974 103.865 59.6765 103.352 59.8352C102.839 59.9938 102.407 60.2629 102.055 60.6434C101.704 61.0237 101.439 61.5315 101.261 62.1651C101.084 62.7995 100.995 63.5921 100.995 64.5426V66.5277C100.995 67.4792 101.084 68.2735 101.261 68.9115C101.439 69.5499 101.704 70.059 102.055 70.4398C102.407 70.82 102.839 71.0916 103.352 71.2538C103.865 71.416 104.461 71.4974 105.14 71.4974C105.811 71.4974 106.405 71.416 106.922 71.2538C107.439 71.0916 107.874 70.82 108.225 70.4398C108.577 70.059 108.841 69.5499 109.019 68.9115C109.197 68.2735 109.286 67.4792 109.286 66.5277V64.5668C109.286 63.6156 109.197 62.8212 109.019 62.1833C108.841 61.5451 108.577 61.0357 108.225 60.655C107.874 60.2748 107.439 60.0037 106.922 59.841C106.405 59.679 105.811 59.5974 105.14 59.5974ZM105.14 74.6477C103.984 74.6477 102.956 74.5167 102.055 74.2554C101.154 73.9937 100.39 73.5583 99.7643 72.9477C99.1376 72.3375 98.6552 71.5254 98.3155 70.5105C97.9762 69.4961 97.7944 68.2397 97.7701 66.742H93.9879V74.1008C93.9879 74.2433 93.9156 74.315 93.77 74.315H90.982C90.8366 74.315 90.7637 74.2433 90.7637 74.1008V56.9939C90.7637 56.8515 90.8366 56.7798 90.982 56.7798H93.77C93.9156 56.7798 93.9879 56.8515 93.9879 56.9939V63.7463H97.7821C97.8467 62.3756 98.0571 61.224 98.4124 60.2927C98.768 59.3619 99.2592 58.6126 99.8855 58.0459C100.511 57.4794 101.265 57.0731 102.146 56.8276C103.027 56.5822 104.025 56.459 105.14 56.459C106.312 56.459 107.356 56.5937 108.274 56.863C109.191 57.1328 109.961 57.5866 110.583 58.2245C111.205 58.8623 111.68 59.7086 112.007 60.7627C112.335 61.8164 112.498 63.124 112.498 64.6859V66.433C112.498 67.9947 112.335 69.3004 112.007 70.35C111.68 71.4007 111.205 72.2443 110.583 72.8823C109.961 73.5205 109.191 73.9745 108.274 74.2434C107.356 74.5129 106.312 74.6477 105.14 74.6477Z" fill="#2873B9"/>
<path fill-rule="evenodd" clip-rule="evenodd" d="M119.832 74.6479C118.983 74.6479 118.169 74.6199 117.389 74.5649C116.609 74.509 115.916 74.4379 115.31 74.351C115.165 74.327 115.096 74.2434 115.104 74.1009L115.262 71.5809C115.269 71.4458 115.347 71.383 115.492 71.3902C116.203 71.4621 116.9 71.5054 117.583 71.5212C118.266 71.5374 118.914 71.5448 119.528 71.5448C120.175 71.5448 120.733 71.5054 121.201 71.426C121.67 71.3471 122.058 71.2163 122.365 71.0339C122.672 70.8517 122.9 70.6099 123.05 70.3088C123.199 70.0072 123.274 69.6354 123.274 69.1913V68.8231C123.274 68.5457 123.229 68.282 123.141 68.0321C123.052 67.7827 122.894 67.5625 122.668 67.3722C122.442 67.1824 122.13 67.0296 121.735 66.9146C121.339 66.7999 120.838 66.742 120.232 66.742H116.171C116.025 66.742 115.952 66.671 115.952 66.5279V63.9608C115.952 63.8176 116.025 63.7464 116.171 63.7464H120.159C120.789 63.7464 121.306 63.6868 121.71 63.5682C122.114 63.4492 122.432 63.2908 122.662 63.0927C122.892 62.8948 123.052 62.6748 123.141 62.4328C123.229 62.1915 123.274 61.9434 123.274 61.6899V61.4399C123.274 61.0834 123.191 60.7847 123.026 60.5424C122.86 60.3009 122.62 60.107 122.304 59.9598C121.989 59.8135 121.599 59.7066 121.135 59.6394C120.669 59.5719 120.134 59.5381 119.528 59.5381C118.898 59.5381 118.276 59.5502 117.662 59.5735C117.047 59.5975 116.413 59.6374 115.759 59.6925C115.613 59.7167 115.536 59.6533 115.528 59.502L115.358 56.9939C115.35 56.8516 115.419 56.768 115.564 56.744C116.138 56.6652 116.781 56.5975 117.492 56.5424C118.203 56.4868 118.954 56.459 119.747 56.459C120.821 56.459 121.779 56.5385 122.62 56.6967C123.46 56.8554 124.171 57.1086 124.753 57.4577C125.335 57.8062 125.777 58.2657 126.08 58.8365C126.383 59.407 126.535 60.1007 126.535 60.917V61.2377C126.535 62.1735 126.276 62.9777 125.759 63.6513C125.242 64.3249 124.442 64.8044 123.359 65.0899C123.9 65.2403 124.369 65.4506 124.765 65.7198C125.161 65.9891 125.49 66.3004 125.753 66.653C126.015 67.0058 126.211 67.3903 126.341 67.806C126.47 68.2223 126.535 68.6487 126.535 69.0841V69.5242C126.535 70.5225 126.385 71.3509 126.086 72.0083C125.787 72.6667 125.353 73.1915 124.783 73.5838C124.214 73.976 123.512 74.2512 122.68 74.4098C121.847 74.5684 120.898 74.6477 119.831 74.6477L119.832 74.6479Z" fill="#2873B9"/>
<path fill-rule="evenodd" clip-rule="evenodd" d="M2.62564 84.9999C2.21029 84.9999 1.84023 84.9524 1.51565 84.8574C1.19135 84.7627 0.916383 84.6027 0.691695 84.3781C0.4668 84.1533 0.295131 83.856 0.177103 83.486C0.0591589 83.1163 0 82.6549 0 82.1021V81.5157C0 80.966 0.0591589 80.5062 0.177103 80.1362C0.295089 79.7663 0.4668 79.4691 0.691695 79.2444C0.91659 79.0194 1.19135 78.8596 1.51565 78.7651C1.84023 78.6698 2.21029 78.6226 2.62564 78.6226C2.90198 78.6226 3.16604 78.6365 3.41786 78.6645C3.66972 78.6925 3.88379 78.7296 4.06044 78.7774C4.10325 78.7917 4.12022 78.8193 4.11163 78.8612L4.01787 79.4058C4.00928 79.4503 3.98211 79.468 3.93681 79.4599C3.73726 79.4207 3.52618 79.3927 3.30265 79.3764C3.07913 79.3596 2.86211 79.351 2.65149 79.351C2.35254 79.351 2.08736 79.3854 1.85521 79.4534C1.62326 79.5222 1.42736 79.6377 1.26814 79.8015C1.10867 79.9644 0.987738 80.1822 0.905098 80.4544C0.822666 80.7269 0.78147 81.0661 0.78147 81.4738V82.144C0.78147 82.5547 0.822666 82.8964 0.905098 83.1698C0.987738 83.4439 1.10801 83.6619 1.2659 83.825C1.42396 83.9886 1.61965 84.1041 1.85318 84.1706C2.08641 84.2373 2.35258 84.2712 2.65149 84.2712C2.90746 84.2712 3.14592 84.2629 3.36654 84.2461C3.58716 84.2295 3.79298 84.2056 3.98348 84.1746C4.03193 84.1663 4.05757 84.1845 4.06048 84.2295L4.15017 84.7819C4.15287 84.8262 4.13453 84.8547 4.09466 84.8657C3.91532 84.9076 3.69606 84.9406 3.43715 84.9643C3.17807 84.9878 2.90742 84.9999 2.62569 84.9999H2.62564Z" fill="white"/>
<path fill-rule="evenodd" clip-rule="evenodd" d="M6.30477 78.7229C6.35028 78.7229 6.37318 78.7455 6.37318 78.7903L6.38181 83.6013C6.38451 83.6013 6.41011 83.5543 6.4586 83.4613C6.50681 83.3674 6.57385 83.2495 6.65927 83.1073L9.26791 78.7816C9.29077 78.7431 9.32499 78.7229 9.3705 78.7229H10.0961C10.1419 78.7229 10.1647 78.7456 10.1647 78.7904V84.8325C10.1647 84.8768 10.1419 84.8995 10.0961 84.8995H9.46878C9.42302 84.8995 9.40037 84.8768 9.40037 84.8325L9.3961 80.0172C9.39041 80.0172 9.36415 80.0594 9.31703 80.1447C9.27015 80.2298 9.20539 80.3437 9.12266 80.486L6.50544 84.841C6.48283 84.8798 6.44861 84.8995 6.4031 84.8995H5.6729C5.62739 84.8995 5.60449 84.8768 5.60449 84.8325V78.7904C5.60449 78.7456 5.62735 78.7229 5.6729 78.7229H6.30477V78.7229Z" fill="white"/>
<path fill-rule="evenodd" clip-rule="evenodd" d="M14.4461 84.9999C14.0306 84.9999 13.6605 84.9524 13.3359 84.8574C13.0116 84.7627 12.7367 84.6027 12.512 84.3781C12.2871 84.1533 12.1154 83.856 11.9974 83.486C11.8791 83.1163 11.8203 82.6549 11.8203 82.1021V81.5157C11.8203 80.966 11.8792 80.5062 11.9974 80.1362C12.1154 79.7663 12.2871 79.4691 12.512 79.2444C12.7367 79.0194 13.0116 78.8596 13.3359 78.7651C13.6605 78.6698 14.0303 78.6226 14.4461 78.6226C14.7222 78.6226 14.9863 78.6365 15.2382 78.6645C15.49 78.6925 15.7041 78.7296 15.8807 78.7774C15.9233 78.7917 15.9405 78.8193 15.9321 78.8612L15.8381 79.4058C15.8295 79.4503 15.8023 79.468 15.7568 79.4599C15.5575 79.4207 15.3464 79.3927 15.1229 79.3764C14.8994 79.3596 14.6823 79.351 14.4718 79.351C14.1728 79.351 13.9074 79.3854 13.6754 79.4534C13.4435 79.5222 13.2476 79.6377 13.0884 79.8015C12.9289 79.9644 12.808 80.1822 12.7253 80.4544C12.6429 80.7269 12.6015 81.0661 12.6015 81.4738V82.144C12.6015 82.5547 12.6429 82.8964 12.7253 83.1698C12.808 83.4439 12.9283 83.6619 13.0861 83.825C13.2442 83.9886 13.4399 84.1041 13.6734 84.1706C13.9067 84.2373 14.1728 84.2712 14.4718 84.2712C14.7279 84.2712 14.9664 84.2629 15.1867 84.2461C15.4074 84.2295 15.6132 84.2056 15.8037 84.1746C15.8522 84.1663 15.8778 84.1845 15.8807 84.2295L15.9701 84.7819C15.9731 84.8262 15.9547 84.8547 15.9148 84.8657C15.7355 84.9076 15.5163 84.9406 15.2573 84.9643C14.9981 84.9878 14.7278 84.9999 14.4461 84.9999H14.4461Z" fill="white"/>
<path fill-rule="evenodd" clip-rule="evenodd" d="M18.851 84.8995C18.8055 84.8995 18.7829 84.8768 18.7829 84.8325V79.4602H16.8272C16.7817 79.4602 16.7588 79.438 16.7588 79.3929V78.7903C16.7588 78.7456 16.7816 78.7229 16.8272 78.7229H21.5111C21.5566 78.7229 21.5795 78.7455 21.5795 78.7903V79.3929C21.5795 79.438 21.5566 79.4602 21.5111 79.4602H19.5513V84.8325C19.5513 84.8768 19.5285 84.8995 19.4829 84.8995H18.851H18.851Z" fill="white"/>
<path fill-rule="evenodd" clip-rule="evenodd" d="M22.8967 84.8994C22.8512 84.8994 22.8281 84.8768 22.8281 84.8325V78.7903C22.8281 78.7456 22.8512 78.7229 22.8967 78.7229H26.5429C26.5884 78.7229 26.6113 78.7455 26.6113 78.7903V79.3929C26.6113 79.438 26.5885 79.4602 26.5429 79.4602H23.597V81.2479H26.0775C26.123 81.2479 26.1459 81.2707 26.1459 81.3153V81.9143C26.1459 81.9587 26.123 81.9809 26.0775 81.9809H23.597V84.1665H26.5429C26.5884 84.1665 26.6113 84.1894 26.6113 84.2342V84.8326C26.6113 84.8769 26.5885 84.8995 26.5429 84.8995H22.8967V84.8994Z" fill="white"/>
<path fill-rule="evenodd" clip-rule="evenodd" d="M28.2962 84.8994C28.2506 84.8994 28.2275 84.8768 28.2275 84.8325L28.2277 78.7903C28.2277 78.7456 28.2506 78.7229 28.2962 78.7229H29.0517C29.0972 78.7229 29.1314 78.743 29.1543 78.7816L30.7383 81.529C30.7639 81.5763 30.7902 81.6252 30.8174 81.6754C30.8443 81.7258 30.8686 81.7706 30.8899 81.8112C30.9111 81.852 30.929 81.8858 30.9433 81.9142C30.9576 81.9418 30.9661 81.9586 30.9689 81.9642C30.9689 81.9618 30.9759 81.9467 30.9902 81.9201C31.0045 81.8939 31.0223 81.8591 31.0436 81.8172C31.0649 81.7758 31.0892 81.7287 31.1161 81.6774C31.143 81.6256 31.1709 81.5745 31.1995 81.5243L32.7792 78.7816C32.802 78.743 32.836 78.7229 32.8818 78.7229H33.6375C33.683 78.7229 33.7057 78.7455 33.7057 78.7903V84.8325C33.7057 84.8768 33.6831 84.8994 33.6375 84.8994H33.0054C32.9596 84.8994 32.9372 84.8768 32.9372 84.8325L32.9286 79.9C32.9227 79.9021 32.905 79.9369 32.8751 80.0024C32.8453 80.0685 32.8074 80.1382 32.7621 80.214L31.3018 82.8139C31.2791 82.8531 31.2447 82.8724 31.1994 82.8724H30.7383C30.6928 82.8724 30.6585 82.8532 30.6357 82.8139L29.1841 80.2475C29.1357 80.1552 29.0949 80.0741 29.0625 80.0046C29.0297 79.9345 29.0104 79.9 29.0048 79.9L28.9964 84.8325C28.9964 84.8768 28.9735 84.8994 28.9277 84.8994H28.2961H28.2962Z" fill="white"/>
<path fill-rule="evenodd" clip-rule="evenodd" d="M41.1599 84.8995C41.1144 84.8995 41.0915 84.8769 41.0915 84.8326V78.7904C41.0915 78.7456 41.1144 78.723 41.1599 78.723H41.7961C41.8414 78.723 41.8643 78.7456 41.8643 78.7904V84.8326C41.8643 84.8769 41.8414 84.8995 41.7961 84.8995H41.1599ZM39.0547 82.9401C39.0547 82.6831 39.0212 82.4792 38.9544 82.3286C38.8876 82.1776 38.782 82.0642 38.6387 81.9871C38.4951 81.9103 38.3089 81.8615 38.0813 81.8408C37.8537 81.8195 37.5789 81.8094 37.2573 81.8094C37.1946 81.8094 37.1262 81.8098 37.0521 81.8111C36.9783 81.8127 36.9022 81.8153 36.8241 81.8194C36.7457 81.8238 36.668 81.8279 36.5913 81.8319C36.5145 81.8364 36.4447 81.8411 36.382 81.8465V84.263C36.5215 84.2737 36.668 84.2827 36.8218 84.2881C36.9754 84.2935 37.1208 84.2963 37.2573 84.2963C37.5789 84.2963 37.8537 84.2854 38.0813 84.263C38.3089 84.2408 38.4951 84.1904 38.6387 84.1122C38.782 84.0342 38.8876 83.9188 38.9544 83.7666C39.0212 83.6147 39.0547 83.4088 39.0547 83.1488V82.9399V82.9401ZM37.1507 84.9788C37.051 84.9788 36.9414 84.9776 36.8218 84.9747C36.7022 84.9727 36.5783 84.9678 36.4504 84.9624C36.3222 84.9566 36.1926 84.9503 36.0617 84.9436C35.9311 84.9362 35.804 84.927 35.6819 84.916C35.6361 84.9131 35.6133 84.8898 35.6133 84.8452V78.7903C35.6133 78.7456 35.6361 78.7229 35.6819 78.7229H36.3138C36.3591 78.7229 36.382 78.7455 36.382 78.7903V81.1311C36.4273 81.1253 36.4823 81.1201 36.5467 81.1161C36.6105 81.112 36.6769 81.1093 36.7451 81.1078C36.8135 81.1066 36.881 81.105 36.9478 81.1037C37.0148 81.1025 37.0764 81.1017 37.1337 81.1017C37.5917 81.1017 37.9896 81.1218 38.3269 81.1622C38.6641 81.2027 38.9438 81.287 39.166 81.4156C39.3877 81.5442 39.553 81.7295 39.6613 81.9724C39.7693 82.2152 39.8236 82.5389 39.8236 82.9438V83.1406C39.8236 83.5455 39.7693 83.8684 39.6613 84.1097C39.553 84.352 39.3893 84.5364 39.17 84.665C38.9508 84.7934 38.6734 84.8777 38.3375 84.9185C38.0016 84.9588 37.606 84.9788 37.1507 84.9788L37.1507 84.9788Z" fill="white"/>
<path fill-rule="evenodd" clip-rule="evenodd" d="M46.3196 84.8994C46.2738 84.8994 46.251 84.8768 46.251 84.8325V78.7903C46.251 78.7456 46.2738 78.7229 46.3194 78.7229H50.7213C50.7671 78.7229 50.7897 78.7455 50.7897 78.7903V84.8325C50.7897 84.8768 50.7668 84.8994 50.7213 84.8994H50.0937C50.0483 84.8994 50.0253 84.8768 50.0253 84.8325V79.4601H47.0197V84.8325C47.0197 84.8768 46.9969 84.8994 46.9513 84.8994H46.3196Z" fill="white"/>
<path fill-rule="evenodd" clip-rule="evenodd" d="M54.9546 79.3802C54.6785 79.3802 54.4335 79.4135 54.2199 79.4788C54.0065 79.5444 53.8264 79.6574 53.68 79.8181C53.5334 79.9787 53.4222 80.1936 53.347 80.4627C53.2714 80.7323 53.2338 81.0695 53.2338 81.4738V82.144C53.2338 82.5516 53.2714 82.8899 53.347 83.1595C53.4222 83.4288 53.5327 83.6437 53.6777 83.8044C53.8231 83.9647 54.0025 84.0785 54.2158 84.1453C54.4294 84.2125 54.6755 84.2461 54.9546 84.2461C55.2307 84.2461 55.4746 84.2125 55.6866 84.1453C55.8988 84.0785 56.0775 83.9647 56.2227 83.8044C56.3678 83.6438 56.4779 83.4282 56.5536 83.1573C56.6287 82.8866 56.6666 82.5473 56.6666 82.1402V81.4782C56.6666 81.0735 56.6288 80.7365 56.5536 80.4669C56.4779 80.1972 56.3676 79.9827 56.2227 79.8218C56.0775 79.6618 55.8986 79.548 55.6866 79.4808C55.4746 79.4138 55.2307 79.3801 54.9546 79.3801V79.3802ZM54.9546 84.9999C54.556 84.9999 54.2022 84.9523 53.8935 84.8574C53.5846 84.7626 53.3241 84.6026 53.1121 84.378C52.9001 84.1533 52.7384 83.8559 52.6275 83.486C52.5167 83.1162 52.4609 82.6548 52.4609 82.1021V81.5156C52.4609 80.9687 52.5167 80.51 52.6275 80.138C52.7384 79.7671 52.9001 79.4696 53.1121 79.2466C53.3241 79.0232 53.5846 78.8637 53.8935 78.7666C54.2022 78.6707 54.5559 78.6226 54.9546 78.6226C55.3528 78.6226 55.7065 78.6698 56.0154 78.7651C56.3243 78.8596 56.5839 79.0194 56.7945 79.2444C57.0051 79.4691 57.1655 79.7672 57.2751 80.138C57.3845 80.51 57.4395 80.97 57.4395 81.5197V82.1064C57.4395 82.6562 57.3844 83.1171 57.2751 83.4882C57.1655 83.8591 57.0051 84.1569 56.7945 84.3801C56.5839 84.6037 56.3243 84.7626 56.0154 84.8574C55.7065 84.9524 55.3528 84.9999 54.9546 84.9999V84.9999Z" fill="white"/>
<path fill-rule="evenodd" clip-rule="evenodd" d="M58.4074 84.8994C58.3619 84.8994 58.353 84.8828 58.3818 84.8495L61.1913 81.6252L58.4203 78.7733C58.3858 78.7397 58.3934 78.7229 58.4416 78.7229H59.2571C59.3026 78.7229 59.3409 78.7397 59.3724 78.7733L61.7718 81.2734V78.7903C61.7718 78.7456 61.7947 78.7229 61.8404 78.7229H62.4381C62.4836 78.7229 62.5061 78.7455 62.5061 78.7903V81.2734L64.91 78.7733C64.9412 78.7397 64.9797 78.7229 65.0255 78.7229H65.8367C65.885 78.7229 65.892 78.7397 65.858 78.7733L63.091 81.6252L65.8962 84.8495C65.9247 84.8828 65.9162 84.8994 65.8706 84.8994H65.0383C64.9896 84.8994 64.9527 84.8828 64.9268 84.8495L62.506 82.0646V84.8324C62.506 84.8768 62.4835 84.8994 62.4378 84.8994H61.8403C61.7946 84.8994 61.7717 84.8768 61.7717 84.8324V82.0646L59.3552 84.8495C59.3298 84.8828 59.2926 84.8994 59.2441 84.8994H58.4073H58.4074Z" fill="white"/>
<path fill-rule="evenodd" clip-rule="evenodd" d="M69.0765 79.4601L67.9661 82.6719H70.1865L69.0765 79.4601ZM66.4375 84.8994C66.3922 84.8994 66.3766 84.8781 66.3909 84.8362L68.5254 78.7856C68.54 78.7442 68.5699 78.7229 68.6151 78.7229H69.546C69.5915 78.7229 69.6215 78.7442 69.6359 78.7856L71.7791 84.8362C71.7902 84.8782 71.7748 84.8994 71.7324 84.8994H71.0234C70.9778 84.8994 70.9479 84.8781 70.9335 84.8362L70.4341 83.3923H67.7185L67.2232 84.8362C67.2091 84.8782 67.1792 84.8994 67.1335 84.8994H66.4375H66.4375Z" fill="white"/>
<path fill-rule="evenodd" clip-rule="evenodd" d="M74.5954 79.3384C74.5439 79.3384 74.481 79.3397 74.4054 79.3409C74.3297 79.3421 74.252 79.345 74.1725 79.3489C74.0928 79.3532 74.0154 79.3575 73.9399 79.3619C73.8643 79.3656 73.8038 79.3693 73.7585 79.372V81.9765C73.804 81.9825 73.8643 81.9861 73.9399 81.989C74.0154 81.9919 74.0928 81.9947 74.1725 81.9978C74.252 82.0007 74.3297 82.0025 74.4054 82.0036C74.481 82.0053 74.544 82.0061 74.5954 82.0061C74.9741 82.0061 75.2898 81.9906 75.543 81.9599C75.7964 81.9292 75.9987 81.8698 76.1497 81.7822C76.3003 81.6941 76.4077 81.5705 76.4716 81.4113C76.5361 81.2525 76.5678 81.0456 76.5678 80.7913V80.5574C76.5678 80.303 76.5361 80.0967 76.4716 79.9373C76.4077 79.7782 76.3003 79.6548 76.1497 79.5667C75.9987 79.4789 75.7964 79.4188 75.543 79.3868C75.2898 79.3548 74.9741 79.3384 74.5954 79.3384V79.3384ZM73.0628 84.8994C73.017 84.8994 72.9941 84.8768 72.9941 84.8324V78.7775C72.9941 78.7332 73.017 78.7092 73.0626 78.7065C73.1821 78.698 73.3123 78.6913 73.4532 78.6855C73.5941 78.6799 73.7336 78.6754 73.8713 78.6709C74.0097 78.6668 74.1409 78.6633 74.2642 78.6604C74.3884 78.6575 74.4941 78.6562 74.5825 78.6562C74.9242 78.6562 75.2293 78.6668 75.4983 78.6874C75.7674 78.7087 76.0043 78.7445 76.209 78.7961C76.4142 78.8483 76.5884 78.918 76.732 79.0058C76.876 79.0932 76.9926 79.2061 77.0821 79.3426C77.1718 79.4795 77.2375 79.6424 77.2789 79.8309C77.3201 80.0188 77.341 80.2389 77.341 80.4898V80.8544C77.341 81.234 77.2927 81.543 77.1974 81.7821C77.102 82.0208 76.9464 82.2067 76.7302 82.341C76.5139 82.475 76.2299 82.5661 75.8781 82.6148C75.5269 82.6639 75.0949 82.6881 74.5824 82.6881C74.5256 82.6881 74.4547 82.6879 74.3713 82.6864C74.2871 82.6852 74.2037 82.684 74.121 82.6828C74.0388 82.6811 73.9638 82.6786 73.8973 82.676C73.8302 82.6731 73.7838 82.6706 73.7584 82.6679V84.8326C73.7584 84.8769 73.7358 84.8995 73.69 84.8995H73.0627L73.0628 84.8994Z" fill="white"/>
<path fill-rule="evenodd" clip-rule="evenodd" d="M81.0795 79.3802C80.8035 79.3802 80.5584 79.4135 80.3451 79.4788C80.1315 79.5444 79.9514 79.6574 79.8049 79.8181C79.6583 79.9787 79.5472 80.1936 79.4717 80.4627C79.3963 80.7323 79.3587 81.0695 79.3587 81.4738V82.144C79.3587 82.5516 79.3963 82.8899 79.4717 83.1595C79.5472 83.4288 79.6575 83.6437 79.8026 83.8044C79.948 83.9647 80.1274 84.0785 80.3407 84.1453C80.5544 84.2125 80.8005 84.2461 81.0795 84.2461C81.3556 84.2461 81.5993 84.2125 81.8115 84.1453C82.0237 84.0785 82.2024 83.9647 82.3474 83.8044C82.4926 83.6438 82.6028 83.4282 82.6785 83.1573C82.7539 82.8866 82.7918 82.5473 82.7918 82.1402V81.4782C82.7918 81.0735 82.7539 80.7365 82.6785 80.4669C82.6028 80.1972 82.4926 79.9827 82.3474 79.8218C82.2024 79.6618 82.0237 79.548 81.8115 79.4808C81.5993 79.4138 81.3557 79.3801 81.0795 79.3801V79.3802ZM81.0795 84.9999C80.6809 84.9999 80.3274 84.9523 80.0187 84.8574C79.7093 84.7626 79.4491 84.6026 79.2369 84.378C79.0251 84.1533 78.8634 83.8559 78.7524 83.486C78.6412 83.1162 78.5859 82.6548 78.5859 82.1021V81.5156C78.5859 80.9687 78.6412 80.51 78.7524 80.138C78.8634 79.7671 79.0251 79.4696 79.2369 79.2466C79.4491 79.0232 79.7093 78.8637 80.0187 78.7666C80.3274 78.6707 80.6809 78.6226 81.0795 78.6226C81.4781 78.6226 81.8315 78.6698 82.1406 78.7651C82.4493 78.8596 82.7091 79.0194 82.9195 79.2444C83.1301 79.4691 83.2902 79.7672 83.4001 80.138C83.5095 80.51 83.5643 80.97 83.5643 81.5197L83.5645 82.1064C83.5645 82.6562 83.5094 83.1171 83.4001 83.4882C83.2902 83.8591 83.1301 84.1569 82.9195 84.3801C82.7091 84.6037 82.4493 84.7626 82.1406 84.8574C81.8315 84.9524 81.4782 84.9999 81.0795 84.9999V84.9999Z" fill="white"/>
<path fill-rule="evenodd" clip-rule="evenodd" d="M86.6623 84.8995C86.6166 84.8995 86.5937 84.8768 86.5937 84.8325V79.4602H84.6385C84.5932 79.4602 84.5703 79.438 84.5703 79.3929V78.7903C84.5703 78.7456 84.593 78.7229 84.6385 78.7229H89.3222C89.3682 78.7229 89.3906 78.7455 89.3906 78.7903V79.3929C89.3906 79.438 89.3682 79.4602 89.3219 79.4602H87.3624V84.8325C87.3624 84.8768 87.3398 84.8995 87.2942 84.8995H86.6623Z" fill="white"/>
<path fill-rule="evenodd" clip-rule="evenodd" d="M90.9274 85.0001C90.8277 85.0001 90.7281 84.9936 90.6284 84.9811C90.5287 84.9685 90.4365 84.9483 90.351 84.9206C90.3113 84.9091 90.2925 84.8816 90.2957 84.8363L90.3722 84.3722C90.3808 84.3274 90.4075 84.3089 90.4536 84.3174C90.5217 84.3317 90.5944 84.3422 90.6712 84.3492C90.7479 84.3561 90.8193 84.3592 90.8848 84.3592C91.041 84.3592 91.1756 84.35 91.2881 84.3321C91.4007 84.3141 91.5004 84.2733 91.5871 84.2104C91.6739 84.1477 91.752 84.0569 91.8218 83.9379C91.8915 83.8196 91.9619 83.6612 92.0333 83.4633L90.0264 78.7857C90.0094 78.7442 90.0239 78.7229 90.0692 78.7229H90.7569C90.7822 78.7229 90.8014 78.7283 90.8143 78.7377C90.8273 78.7476 90.8392 78.7637 90.8502 78.7857L92.1529 82.0227C92.2068 82.165 92.2455 82.2838 92.2682 82.3786C92.2908 82.474 92.3049 82.5309 92.3108 82.5502L93.4207 78.7856C93.4323 78.7442 93.4606 78.7229 93.5066 78.7229H94.2023C94.2449 78.7229 94.2608 78.7442 94.2492 78.7856L92.7118 83.3923C92.6013 83.7302 92.4926 84.0036 92.388 84.2126C92.282 84.4222 92.164 84.5853 92.0333 84.7027C91.9024 84.8199 91.749 84.8988 91.5746 84.9391C91.3993 84.9796 91.1833 85 90.9274 85V85.0001Z" fill="white"/>
<path fill-rule="evenodd" clip-rule="evenodd" d="M95.537 84.8994C95.4914 84.8994 95.4688 84.8768 95.4688 84.8325V78.7903C95.4688 78.7456 95.4912 78.7229 95.537 78.7229H96.1689C96.2146 78.7229 96.237 78.7455 96.237 78.7903V84.1665H98.6108V78.7903C98.6108 78.7456 98.6336 78.7229 98.6796 78.7229H99.3113C99.3566 78.7229 99.3797 78.7455 99.3797 78.7903V84.1665H101.753V78.7903C101.753 78.7456 101.776 78.7229 101.821 78.7229H102.449C102.495 78.7229 102.518 78.7455 102.518 78.7903V84.8325C102.518 84.8768 102.495 84.8994 102.449 84.8994H95.537H95.537Z" fill="white"/>
<path fill-rule="evenodd" clip-rule="evenodd" d="M104.502 84.8994C104.456 84.8994 104.434 84.8768 104.434 84.8325L104.434 78.7903C104.434 78.7456 104.456 78.7229 104.502 78.7229H108.148C108.194 78.7229 108.216 78.7455 108.216 78.7903V79.3929C108.216 79.438 108.194 79.4602 108.148 79.4602H105.202V81.2479H107.683C107.729 81.2479 107.751 81.2707 107.751 81.3153V81.9143C107.751 81.9587 107.728 81.9809 107.683 81.9809H105.202V84.1665H108.148C108.194 84.1665 108.216 84.1894 108.216 84.2342V84.8326C108.216 84.8769 108.194 84.8995 108.148 84.8995H104.502V84.8994Z" fill="white"/>
<path fill-rule="evenodd" clip-rule="evenodd" d="M109.903 84.8994C109.857 84.8994 109.834 84.8768 109.834 84.8325V78.7903C109.834 78.7456 109.857 78.7229 109.903 78.7229H110.535C110.58 78.7229 110.603 78.7455 110.603 78.7903V81.2479H113.608V78.7903C113.608 78.7456 113.631 78.7229 113.677 78.7229H114.304C114.35 78.7229 114.373 78.7455 114.373 78.7903V84.8325C114.373 84.8768 114.35 84.8994 114.304 84.8994H113.677C113.631 84.8994 113.608 84.8768 113.608 84.8325V81.9808H110.603V84.8325C110.603 84.8768 110.58 84.8994 110.535 84.8994H109.903Z" fill="white"/>
<path fill-rule="evenodd" clip-rule="evenodd" d="M116.984 78.7229C117.03 78.7229 117.052 78.7455 117.052 78.7903L117.061 83.6013C117.064 83.6013 117.089 83.5543 117.138 83.4613C117.186 83.3674 117.253 83.2495 117.338 83.1073L119.948 78.7816C119.97 78.7431 120.004 78.7229 120.05 78.7229H120.776C120.821 78.7229 120.844 78.7456 120.844 78.7904V84.8325C120.844 84.8768 120.821 84.8995 120.776 84.8995H120.148C120.102 84.8995 120.08 84.8768 120.08 84.8325L120.075 80.0172C120.07 80.0172 120.043 80.0594 119.997 80.1447C119.949 80.2298 119.885 80.3437 119.802 80.486L117.185 84.841C117.162 84.8798 117.128 84.8995 117.082 84.8995H116.352C116.307 84.8995 116.284 84.8768 116.284 84.8325V78.7904C116.284 78.7456 116.307 78.7229 116.352 78.7229H116.984L116.984 78.7229Z" fill="white"/>
<path fill-rule="evenodd" clip-rule="evenodd" d="M124.263 79.3834C124.023 79.4014 123.827 79.4482 123.676 79.5235C123.526 79.599 123.416 79.7128 123.348 79.8645C123.279 80.0173 123.245 80.2266 123.245 80.4946V80.7503C123.245 81.0156 123.278 81.2251 123.341 81.3783C123.406 81.5318 123.511 81.6482 123.659 81.7279C123.808 81.8077 124.002 81.8588 124.242 81.8809C124.483 81.9031 124.779 81.9148 125.132 81.9148C125.198 81.9148 125.272 81.9135 125.356 81.9123C125.44 81.9107 125.528 81.9098 125.619 81.908C125.71 81.9064 125.801 81.9039 125.892 81.9C125.983 81.8955 126.069 81.889 126.148 81.8809V79.3896C126.098 79.3809 126.032 79.3751 125.952 79.3704C125.872 79.3663 125.787 79.3634 125.696 79.3625C125.605 79.3609 125.511 79.3593 125.414 79.3581C125.317 79.3569 125.228 79.3565 125.145 79.3565C124.798 79.3565 124.504 79.3652 124.263 79.3836L124.263 79.3834ZM122.366 84.9C122.32 84.9 122.309 84.8803 122.332 84.8415L123.596 82.7981C123.63 82.745 123.662 82.6946 123.694 82.6469C123.725 82.5996 123.758 82.5537 123.792 82.5089C123.613 82.4782 123.454 82.4381 123.318 82.3879C123.181 82.3377 123.063 82.2742 122.963 82.1994C122.79 82.0679 122.665 81.8935 122.59 81.676C122.514 81.4582 122.477 81.1844 122.477 80.8552L122.477 80.4241C122.477 80.0445 122.524 79.74 122.618 79.511C122.712 79.282 122.865 79.1056 123.079 78.9812C123.293 78.8569 123.571 78.7748 123.915 78.7343C124.26 78.6937 124.681 78.6736 125.179 78.6736C125.45 78.6736 125.722 78.676 125.995 78.6816C126.268 78.6872 126.553 78.7016 126.849 78.7235C126.894 78.7264 126.917 78.7502 126.917 78.7952V84.8331C126.917 84.8774 126.894 84.9001 126.849 84.9001H126.217C126.171 84.9001 126.148 84.8774 126.148 84.8331V82.5679C126.049 82.5735 125.955 82.5784 125.867 82.5827C125.779 82.5864 125.693 82.59 125.611 82.5927C125.528 82.5956 125.447 82.597 125.367 82.597C125.287 82.597 125.206 82.597 125.124 82.597C125.033 82.597 124.943 82.5966 124.855 82.5953C124.767 82.5937 124.681 82.5916 124.598 82.5886L123.275 84.8417C123.253 84.8805 123.219 84.9002 123.173 84.9002H122.366L122.366 84.9Z" fill="white"/>
</svg>
