<svg width="205" height="151" viewBox="0 0 205 151" fill="none" xmlns="http://www.w3.org/2000/svg">
<g filter="url(#filter0_f_425_11200)">
<circle cx="57.543" cy="90" r="19" fill="#E31E24"/>
</g>
<g filter="url(#filter1_f_425_11200)">
<circle cx="153.957" cy="55.5" r="26.5" fill="#2873B9"/>
</g>
<g filter="url(#filter2_d_425_11200)">
<circle cx="107.871" cy="71.5" r="50.5" fill="#202430"/>
</g>
<mask id="path-4-outside-1_425_11200" maskUnits="userSpaceOnUse" x="92.2266" y="39" width="31" height="31" fill="black">
<rect fill="white" x="92.2266" y="39" width="31" height="31"/>
<path fill-rule="evenodd" clip-rule="evenodd" d="M108.878 40.4282C108.604 40.154 108.232 40 107.845 40C107.457 40 107.085 40.154 106.811 40.4282C106.537 40.7023 106.383 41.0742 106.383 41.4619V45.8476C106.383 46.2353 106.537 46.6072 106.811 46.8813C107.085 47.1555 107.457 47.3095 107.845 47.3095C108.232 47.3095 108.604 47.1555 108.878 46.8813C109.153 46.6072 109.307 46.2353 109.307 45.8476V41.4619C109.307 41.0742 109.153 40.7023 108.878 40.4282ZM122.039 55.6525C122.314 55.3783 122.468 55.0065 122.468 54.6187C122.468 54.231 122.314 53.8592 122.039 53.585C121.765 53.3109 121.393 53.1568 121.006 53.1568H116.62C116.232 53.1568 115.86 53.3109 115.586 53.585C115.312 53.8592 115.158 54.231 115.158 54.6187C115.158 55.0065 115.312 55.3783 115.586 55.6525C115.86 55.9266 116.232 56.0806 116.62 56.0806H121.006C121.393 56.0806 121.765 55.9266 122.039 55.6525ZM112.59 48.4159C112.59 48.8035 112.744 49.1753 113.018 49.4495C113.292 49.7235 113.664 49.8775 114.051 49.8775C114.439 49.8775 114.811 49.7235 115.085 49.4495L118.186 46.3488C118.46 46.0745 118.614 45.7025 118.614 45.3147C118.613 44.9269 118.459 44.555 118.185 44.2809C117.911 44.0068 117.539 43.8529 117.151 43.853C116.763 43.8532 116.391 44.0073 116.117 44.2817L113.018 47.3823C112.744 47.6565 112.59 48.0283 112.59 48.4159ZM108.879 62.3569C108.605 62.0827 108.233 61.9287 107.846 61.9287C107.458 61.9287 107.086 62.0827 106.812 62.3569C106.538 62.631 106.384 63.0029 106.384 63.3906V67.7763C106.384 68.164 106.538 68.5358 106.812 68.81C107.086 69.0841 107.458 69.2382 107.846 69.2382C108.233 69.2382 108.605 69.0841 108.879 68.81C109.153 68.5358 109.307 68.164 109.307 67.7763V63.3906C109.307 63.0029 109.153 62.631 108.879 62.3569ZM100.108 55.6529C100.382 55.3787 100.536 55.0069 100.536 54.6192C100.536 54.2315 100.382 53.8596 100.108 53.5855C99.8337 53.3113 99.4619 53.1573 99.0742 53.1573H94.6885C94.3007 53.1573 93.9289 53.3113 93.6547 53.5855C93.3806 53.8596 93.2266 54.2315 93.2266 54.6192C93.2266 55.0069 93.3806 55.3787 93.6547 55.6529C93.9289 55.9271 94.3007 56.0811 94.6885 56.0811H99.0742C99.4619 56.0811 99.8337 55.9271 100.108 55.6529ZM97.0819 63.9227C97.0819 64.3103 97.2359 64.6821 97.5099 64.9563C97.6457 65.0922 97.8069 65.2 97.9844 65.2736C98.1619 65.3472 98.3521 65.385 98.5442 65.385C98.7363 65.385 98.9266 65.3472 99.104 65.2736C99.2815 65.2 99.4427 65.0922 99.5785 64.9563L102.678 61.8556C102.817 61.7207 102.929 61.5594 103.005 61.3811C103.082 61.2027 103.122 61.0109 103.124 60.8168C103.126 60.6226 103.089 60.4301 103.015 60.2505C102.942 60.0708 102.833 59.9076 102.696 59.7703C102.559 59.6331 102.395 59.5245 102.216 59.451C102.036 59.3775 101.844 59.3405 101.649 59.3422C101.455 59.3439 101.263 59.3842 101.085 59.4608C100.907 59.5375 100.745 59.6488 100.611 59.7885L97.5099 62.8891C97.2359 63.1633 97.0819 63.5351 97.0819 63.9227ZM102.677 49.4497C102.403 49.7238 102.031 49.8777 101.643 49.8777C101.256 49.8777 100.884 49.7238 100.61 49.4497L97.5107 46.3505C97.2364 46.0764 97.0822 45.7045 97.082 45.3167C97.0819 44.9289 97.2358 44.5569 97.5099 44.2826C97.7841 44.0083 98.1559 43.8541 98.5437 43.854C98.9315 43.8539 99.3035 44.0078 99.5778 44.2819L102.677 47.3826C102.951 47.6567 103.105 48.0285 103.105 48.4162C103.105 48.8038 102.951 49.1756 102.677 49.4497Z"/>
</mask>
<path fill-rule="evenodd" clip-rule="evenodd" d="M108.878 40.4282C108.604 40.154 108.232 40 107.845 40C107.457 40 107.085 40.154 106.811 40.4282C106.537 40.7023 106.383 41.0742 106.383 41.4619V45.8476C106.383 46.2353 106.537 46.6072 106.811 46.8813C107.085 47.1555 107.457 47.3095 107.845 47.3095C108.232 47.3095 108.604 47.1555 108.878 46.8813C109.153 46.6072 109.307 46.2353 109.307 45.8476V41.4619C109.307 41.0742 109.153 40.7023 108.878 40.4282ZM122.039 55.6525C122.314 55.3783 122.468 55.0065 122.468 54.6187C122.468 54.231 122.314 53.8592 122.039 53.585C121.765 53.3109 121.393 53.1568 121.006 53.1568H116.62C116.232 53.1568 115.86 53.3109 115.586 53.585C115.312 53.8592 115.158 54.231 115.158 54.6187C115.158 55.0065 115.312 55.3783 115.586 55.6525C115.86 55.9266 116.232 56.0806 116.62 56.0806H121.006C121.393 56.0806 121.765 55.9266 122.039 55.6525ZM112.59 48.4159C112.59 48.8035 112.744 49.1753 113.018 49.4495C113.292 49.7235 113.664 49.8775 114.051 49.8775C114.439 49.8775 114.811 49.7235 115.085 49.4495L118.186 46.3488C118.46 46.0745 118.614 45.7025 118.614 45.3147C118.613 44.9269 118.459 44.555 118.185 44.2809C117.911 44.0068 117.539 43.8529 117.151 43.853C116.763 43.8532 116.391 44.0073 116.117 44.2817L113.018 47.3823C112.744 47.6565 112.59 48.0283 112.59 48.4159ZM108.879 62.3569C108.605 62.0827 108.233 61.9287 107.846 61.9287C107.458 61.9287 107.086 62.0827 106.812 62.3569C106.538 62.631 106.384 63.0029 106.384 63.3906V67.7763C106.384 68.164 106.538 68.5358 106.812 68.81C107.086 69.0841 107.458 69.2382 107.846 69.2382C108.233 69.2382 108.605 69.0841 108.879 68.81C109.153 68.5358 109.307 68.164 109.307 67.7763V63.3906C109.307 63.0029 109.153 62.631 108.879 62.3569ZM100.108 55.6529C100.382 55.3787 100.536 55.0069 100.536 54.6192C100.536 54.2315 100.382 53.8596 100.108 53.5855C99.8337 53.3113 99.4619 53.1573 99.0742 53.1573H94.6885C94.3007 53.1573 93.9289 53.3113 93.6547 53.5855C93.3806 53.8596 93.2266 54.2315 93.2266 54.6192C93.2266 55.0069 93.3806 55.3787 93.6547 55.6529C93.9289 55.9271 94.3007 56.0811 94.6885 56.0811H99.0742C99.4619 56.0811 99.8337 55.9271 100.108 55.6529ZM97.0819 63.9227C97.0819 64.3103 97.2359 64.6821 97.5099 64.9563C97.6457 65.0922 97.8069 65.2 97.9844 65.2736C98.1619 65.3472 98.3521 65.385 98.5442 65.385C98.7363 65.385 98.9266 65.3472 99.104 65.2736C99.2815 65.2 99.4427 65.0922 99.5785 64.9563L102.678 61.8556C102.817 61.7207 102.929 61.5594 103.005 61.3811C103.082 61.2027 103.122 61.0109 103.124 60.8168C103.126 60.6226 103.089 60.4301 103.015 60.2505C102.942 60.0708 102.833 59.9076 102.696 59.7703C102.559 59.6331 102.395 59.5245 102.216 59.451C102.036 59.3775 101.844 59.3405 101.649 59.3422C101.455 59.3439 101.263 59.3842 101.085 59.4608C100.907 59.5375 100.745 59.6488 100.611 59.7885L97.5099 62.8891C97.2359 63.1633 97.0819 63.5351 97.0819 63.9227ZM102.677 49.4497C102.403 49.7238 102.031 49.8777 101.643 49.8777C101.256 49.8777 100.884 49.7238 100.61 49.4497L97.5107 46.3505C97.2364 46.0764 97.0822 45.7045 97.082 45.3167C97.0819 44.9289 97.2358 44.5569 97.5099 44.2826C97.7841 44.0083 98.1559 43.8541 98.5437 43.854C98.9315 43.8539 99.3035 44.0078 99.5778 44.2819L102.677 47.3826C102.951 47.6567 103.105 48.0285 103.105 48.4162C103.105 48.8038 102.951 49.1756 102.677 49.4497Z" fill="white"/>
<path d="M108.878 40.4282L109.268 40.0383V40.0383L108.878 40.4282ZM108.878 46.8813L109.268 47.2712V47.2712L108.878 46.8813ZM122.039 55.6525L122.429 56.0424H122.429L122.039 55.6525ZM122.039 53.585L122.429 53.1951L122.429 53.1951L122.039 53.585ZM115.586 53.585L115.196 53.1951L115.196 53.1951L115.586 53.585ZM115.586 55.6525L115.196 56.0424H115.196L115.586 55.6525ZM113.018 49.4495L112.628 49.8393L112.628 49.8394L113.018 49.4495ZM115.085 49.4495L115.475 49.8394L115.475 49.8394L115.085 49.4495ZM118.186 46.3488L118.576 46.7387L118.576 46.7386L118.186 46.3488ZM117.151 43.853L117.151 43.3016L117.151 43.853ZM116.117 44.2817L116.507 44.6715L116.507 44.6714L116.117 44.2817ZM113.018 47.3823L113.408 47.7722L113.408 47.7722L113.018 47.3823ZM108.879 62.3569L108.489 62.7468L108.879 62.3569ZM106.812 62.3569L107.202 62.7468L107.202 62.7468L106.812 62.3569ZM106.812 68.81L106.422 69.1999L106.422 69.1999L106.812 68.81ZM108.879 68.81L109.269 69.1999L109.269 69.1999L108.879 68.81ZM100.108 55.6529L100.498 56.0428H100.498L100.108 55.6529ZM93.6547 53.5855L94.0447 53.9754L93.6547 53.5855ZM93.6547 55.6529L93.2648 56.0428H93.2648L93.6547 55.6529ZM97.5099 64.9563L97.9 64.5666L97.8999 64.5664L97.5099 64.9563ZM97.9844 65.2736L97.7732 65.783L97.7732 65.783L97.9844 65.2736ZM99.104 65.2736L99.3152 65.783L99.3152 65.783L99.104 65.2736ZM99.5785 64.9563L99.1885 64.5664L99.1884 64.5666L99.5785 64.9563ZM102.678 61.8556L102.295 61.4589L102.288 61.4658L102.678 61.8556ZM103.005 61.3811L103.512 61.5987L103.005 61.3811ZM103.124 60.8168L103.675 60.8216V60.8215L103.124 60.8168ZM103.015 60.2505L103.526 60.0417L103.015 60.2505ZM102.696 59.7703L103.086 59.3804L103.086 59.3804L102.696 59.7703ZM102.216 59.451L102.425 58.9407L102.425 58.9407L102.216 59.451ZM101.649 59.3422L101.654 59.8936L101.649 59.3422ZM101.085 59.4608L100.867 58.9542H100.867L101.085 59.4608ZM100.611 59.7885L101.001 60.1784L101.007 60.1715L100.611 59.7885ZM97.5099 62.8891L97.12 62.4992L97.12 62.4993L97.5099 62.8891ZM102.677 49.4497L103.067 49.8397L103.067 49.8396L102.677 49.4497ZM100.61 49.4497L100.22 49.8396L100.22 49.8397L100.61 49.4497ZM97.5107 46.3505L97.9006 45.9606L97.9004 45.9604L97.5107 46.3505ZM97.082 45.3167L97.6334 45.3165L97.082 45.3167ZM97.5099 44.2826L97.1199 43.8929L97.1199 43.8929L97.5099 44.2826ZM98.5437 43.854L98.5435 43.3026L98.5437 43.854ZM99.5778 44.2819L99.9678 43.8921L99.9676 43.8919L99.5778 44.2819ZM102.677 47.3826L102.287 47.7724L102.287 47.7724L102.677 47.3826ZM107.845 40.5514C108.086 40.5514 108.318 40.6473 108.489 40.8181L109.268 40.0383C108.891 39.6607 108.379 39.4486 107.845 39.4486V40.5514ZM107.201 40.8181C107.372 40.6473 107.603 40.5514 107.845 40.5514V39.4486C107.311 39.4486 106.799 39.6607 106.421 40.0383L107.201 40.8181ZM106.934 41.4619C106.934 41.2204 107.03 40.9888 107.201 40.8181L106.421 40.0383C106.044 40.4158 105.831 40.9279 105.831 41.4619H106.934ZM106.934 45.8476V41.4619H105.831V45.8476H106.934ZM107.201 46.4914C107.03 46.3207 106.934 46.0891 106.934 45.8476H105.831C105.831 46.3816 106.044 46.8936 106.421 47.2712L107.201 46.4914ZM107.845 46.7581C107.603 46.7581 107.372 46.6621 107.201 46.4914L106.421 47.2712C106.799 47.6488 107.311 47.8609 107.845 47.8609V46.7581ZM108.489 46.4914C108.318 46.6621 108.086 46.7581 107.845 46.7581V47.8609C108.379 47.8609 108.891 47.6488 109.268 47.2712L108.489 46.4914ZM108.755 45.8476C108.755 46.0891 108.659 46.3207 108.489 46.4914L109.268 47.2712C109.646 46.8936 109.858 46.3816 109.858 45.8476H108.755ZM108.755 41.4619V45.8476H109.858V41.4619H108.755ZM108.489 40.8181C108.659 40.9888 108.755 41.2204 108.755 41.4619H109.858C109.858 40.9279 109.646 40.4158 109.268 40.0383L108.489 40.8181ZM121.916 54.6187C121.916 54.8602 121.82 55.0918 121.649 55.2625L122.429 56.0424C122.807 55.6648 123.019 55.1527 123.019 54.6187H121.916ZM121.649 53.9749C121.82 54.1457 121.916 54.3773 121.916 54.6187H123.019C123.019 54.0848 122.807 53.5727 122.429 53.1951L121.649 53.9749ZM121.006 53.7083C121.247 53.7083 121.479 53.8042 121.649 53.9749L122.429 53.1951C122.052 52.8175 121.54 52.6054 121.006 52.6054V53.7083ZM116.62 53.7083H121.006V52.6054H116.62V53.7083ZM115.976 53.9749C116.147 53.8042 116.379 53.7083 116.62 53.7083V52.6054C116.086 52.6054 115.574 52.8175 115.196 53.1951L115.976 53.9749ZM115.709 54.6187C115.709 54.3773 115.805 54.1457 115.976 53.9749L115.196 53.1951C114.819 53.5727 114.607 54.0848 114.607 54.6187H115.709ZM115.976 55.2625C115.805 55.0918 115.709 54.8602 115.709 54.6187H114.607C114.607 55.1527 114.819 55.6648 115.196 56.0424L115.976 55.2625ZM116.62 55.5292C116.379 55.5292 116.147 55.4333 115.976 55.2625L115.196 56.0424C115.574 56.4199 116.086 56.632 116.62 56.632V55.5292ZM121.006 55.5292H116.62V56.632H121.006V55.5292ZM121.649 55.2625C121.479 55.4333 121.247 55.5292 121.006 55.5292V56.632C121.54 56.632 122.052 56.4199 122.429 56.0424L121.649 55.2625ZM113.408 49.0596C113.237 48.8889 113.141 48.6573 113.141 48.4159H112.038C112.038 48.9498 112.25 49.4618 112.628 49.8393L113.408 49.0596ZM114.051 49.3261C113.81 49.3261 113.578 49.2302 113.408 49.0595L112.628 49.8394C113.006 50.2169 113.518 50.4289 114.051 50.4289V49.3261ZM114.695 49.0595C114.524 49.2302 114.293 49.3261 114.051 49.3261V50.4289C114.585 50.4289 115.097 50.2169 115.475 49.8394L114.695 49.0595ZM117.796 45.9589L114.695 49.0596L115.475 49.8394L118.576 46.7387L117.796 45.9589ZM118.062 45.3149C118.062 45.5565 117.966 45.7881 117.796 45.959L118.576 46.7386C118.953 46.3608 119.165 45.8486 119.165 45.3145L118.062 45.3149ZM117.795 44.671C117.966 44.8417 118.062 45.0733 118.062 45.3149L119.165 45.3145C119.165 44.7805 118.952 44.2684 118.575 43.8909L117.795 44.671ZM117.151 44.4044C117.393 44.4044 117.624 44.5002 117.795 44.671L118.575 43.8909C118.197 43.5134 117.685 43.3014 117.151 43.3016L117.151 44.4044ZM116.507 44.6714C116.678 44.5006 116.91 44.4045 117.151 44.4044L117.151 43.3016C116.617 43.3018 116.105 43.5141 115.727 43.8919L116.507 44.6714ZM113.408 47.7722L116.507 44.6715L115.727 43.8918L112.628 46.9925L113.408 47.7722ZM113.141 48.4159C113.141 48.1745 113.237 47.9429 113.408 47.7722L112.628 46.9925C112.25 47.37 112.038 47.882 112.038 48.4159H113.141ZM107.846 62.4801C108.087 62.4801 108.319 62.576 108.489 62.7468L109.269 61.9669C108.892 61.5894 108.38 61.3773 107.846 61.3773V62.4801ZM107.202 62.7468C107.372 62.576 107.604 62.4801 107.846 62.4801V61.3773C107.312 61.3773 106.799 61.5894 106.422 61.9669L107.202 62.7468ZM106.935 63.3906C106.935 63.1491 107.031 62.9175 107.202 62.7468L106.422 61.9669C106.044 62.3445 105.832 62.8566 105.832 63.3906H106.935ZM106.935 67.7763V63.3906H105.832V67.7763H106.935ZM107.202 68.4201C107.031 68.2493 106.935 68.0177 106.935 67.7763H105.832C105.832 68.3102 106.044 68.8223 106.422 69.1999L107.202 68.4201ZM107.846 68.6867C107.604 68.6867 107.372 68.5908 107.202 68.4201L106.422 69.1999C106.799 69.5775 107.312 69.7896 107.846 69.7896V68.6867ZM108.489 68.4201C108.319 68.5908 108.087 68.6867 107.846 68.6867V69.7896C108.38 69.7896 108.892 69.5775 109.269 69.1999L108.489 68.4201ZM108.756 67.7763C108.756 68.0177 108.66 68.2493 108.489 68.4201L109.269 69.1999C109.647 68.8223 109.859 68.3102 109.859 67.7763H108.756ZM108.756 63.3906V67.7763H109.859V63.3906H108.756ZM108.489 62.7468C108.66 62.9175 108.756 63.1491 108.756 63.3906H109.859C109.859 62.8566 109.647 62.3445 109.269 61.9669L108.489 62.7468ZM99.9846 54.6192C99.9846 54.8607 99.8887 55.0922 99.718 55.263L100.498 56.0428C100.875 55.6652 101.087 55.1531 101.087 54.6192H99.9846ZM99.718 53.9754C99.8887 54.1461 99.9846 54.3777 99.9846 54.6192H101.087C101.087 54.0852 100.875 53.5731 100.498 53.1956L99.718 53.9754ZM99.0742 53.7087C99.3156 53.7087 99.5472 53.8046 99.718 53.9754L100.498 53.1956C100.12 52.818 99.6081 52.6059 99.0742 52.6059V53.7087ZM94.6885 53.7087H99.0742V52.6059H94.6885V53.7087ZM94.0447 53.9754C94.2154 53.8046 94.447 53.7087 94.6885 53.7087V52.6059C94.1545 52.6059 93.6424 52.818 93.2648 53.1956L94.0447 53.9754ZM93.778 54.6192C93.778 54.3777 93.8739 54.1461 94.0447 53.9754L93.2648 53.1956C92.8873 53.5731 92.6751 54.0852 92.6751 54.6192H93.778ZM94.0447 55.263C93.8739 55.0922 93.778 54.8607 93.778 54.6192H92.6751C92.6751 55.1531 92.8873 55.6652 93.2648 56.0428L94.0447 55.263ZM94.6885 55.5297C94.447 55.5297 94.2154 55.4337 94.0447 55.263L93.2648 56.0428C93.6424 56.4204 94.1545 56.6325 94.6885 56.6325V55.5297ZM99.0742 55.5297H94.6885V56.6325H99.0742V55.5297ZM99.718 55.263C99.5472 55.4337 99.3156 55.5297 99.0742 55.5297V56.6325C99.6081 56.6325 100.12 56.4204 100.498 56.0428L99.718 55.263ZM97.8999 64.5664C97.7292 64.3957 97.6333 64.1641 97.6333 63.9227H96.5305C96.5305 64.4566 96.7425 64.9686 97.12 65.3461L97.8999 64.5664ZM98.1956 64.7642C98.085 64.7184 97.9846 64.6512 97.9 64.5666L97.1198 65.346C97.3068 65.5331 97.5288 65.6816 97.7732 65.783L98.1956 64.7642ZM98.5442 64.8336C98.4246 64.8336 98.3061 64.81 98.1956 64.7642L97.7732 65.783C98.0177 65.8843 98.2796 65.9364 98.5442 65.9364V64.8336ZM98.8929 64.7642C98.7823 64.81 98.6639 64.8336 98.5442 64.8336V65.9364C98.8088 65.9364 99.0708 65.8843 99.3152 65.783L98.8929 64.7642ZM99.1884 64.5666C99.1038 64.6512 99.0034 64.7184 98.8929 64.7642L99.3152 65.783C99.5596 65.6816 99.7817 65.5331 99.9686 65.346L99.1884 64.5666ZM102.288 61.4658L99.1885 64.5664L99.9685 65.3461L103.068 62.2454L102.288 61.4658ZM102.499 61.1634C102.451 61.2745 102.382 61.375 102.295 61.459L103.061 62.2522C103.253 62.0665 103.406 61.8443 103.512 61.5987L102.499 61.1634ZM102.573 60.812C102.572 60.9329 102.546 61.0523 102.499 61.1634L103.512 61.5987C103.618 61.3531 103.673 61.0889 103.675 60.8216L102.573 60.812ZM102.505 60.4593C102.551 60.5712 102.574 60.6911 102.573 60.812L103.675 60.8215C103.678 60.5542 103.627 60.2891 103.526 60.0417L102.505 60.4593ZM102.306 60.1602C102.391 60.2457 102.459 60.3474 102.505 60.4593L103.526 60.0417C103.424 59.7943 103.275 59.5695 103.086 59.3804L102.306 60.1602ZM102.007 59.9614C102.119 60.0072 102.22 60.0748 102.306 60.1602L103.086 59.3804C102.897 59.1914 102.672 59.0419 102.425 58.9407L102.007 59.9614ZM101.654 59.8936C101.775 59.8926 101.895 59.9156 102.007 59.9614L102.425 58.9407C102.177 58.8394 101.912 58.7885 101.645 58.7908L101.654 59.8936ZM101.303 59.9675C101.414 59.9198 101.533 59.8947 101.654 59.8936L101.645 58.7908C101.377 58.7931 101.113 58.8487 100.867 58.9542L101.303 59.9675ZM101.007 60.1715C101.091 60.0846 101.192 60.0152 101.303 59.9675L100.867 58.9542C100.622 59.0597 100.4 59.2131 100.214 59.4054L101.007 60.1715ZM97.8998 63.279L101.001 60.1784L100.221 59.3985L97.12 62.4992L97.8998 63.279ZM97.6333 63.9227C97.6333 63.6813 97.7292 63.4497 97.8999 63.279L97.12 62.4993C96.7425 62.8768 96.5305 63.3888 96.5305 63.9227H97.6333ZM101.643 50.4292C102.177 50.4292 102.689 50.2171 103.067 49.8397L102.287 49.0597C102.116 49.2304 101.885 49.3263 101.643 49.3263V50.4292ZM100.22 49.8397C100.598 50.2171 101.11 50.4292 101.643 50.4292V49.3263C101.402 49.3263 101.17 49.2304 101 49.0597L100.22 49.8397ZM97.1208 46.7404L100.22 49.8396L101 49.0598L97.9006 45.9606L97.1208 46.7404ZM96.5306 45.3169C96.5308 45.851 96.7431 46.363 97.1209 46.7405L97.9004 45.9604C97.7296 45.7897 97.6335 45.5581 97.6334 45.3165L96.5306 45.3169ZM97.1199 43.8929C96.7424 44.2706 96.5304 44.7829 96.5306 45.3169L97.6334 45.3165C97.6334 45.075 97.7292 44.8433 97.9 44.6724L97.1199 43.8929ZM98.5435 43.3026C98.0095 43.3028 97.4974 43.5151 97.1199 43.8929L97.9 44.6724C98.0707 44.5015 98.3023 44.4055 98.5439 44.4054L98.5435 43.3026ZM99.9676 43.8919C99.5898 43.5144 99.0776 43.3024 98.5435 43.3026L98.5439 44.4054C98.7855 44.4053 99.0172 44.5012 99.188 44.672L99.9676 43.8919ZM103.067 46.9928L99.9678 43.8921L99.1878 44.6717L102.287 47.7724L103.067 46.9928ZM103.656 48.4162C103.656 47.8823 103.444 47.3703 103.067 46.9927L102.287 47.7724C102.458 47.9432 102.554 48.1747 102.554 48.4162H103.656ZM103.067 49.8396C103.444 49.462 103.656 48.95 103.656 48.4162H102.554C102.554 48.6576 102.458 48.8891 102.287 49.0599L103.067 49.8396Z" fill="white" mask="url(#path-4-outside-1_425_11200)"/>
<path d="M128.81 81.2297C128.809 80.344 128.534 79.4804 128.022 78.7575C127.587 78.143 126.999 77.6559 126.32 77.3423V84.2708V84.2711H126.044C126.045 85.124 125.984 85.9756 125.862 86.8195L128.81 81.2297ZM128.81 81.2297V82.7501C128.809 83.6746 128.51 84.5741 127.956 85.3145C127.491 85.936 126.868 86.4173 126.156 86.7109L128.81 81.2297ZM132.403 82.7504V82.7502V81.2294C132.403 79.1394 131.573 77.1351 130.095 75.6573C128.617 74.1795 126.613 73.3493 124.523 73.3493H91.0638C90.5874 73.3493 90.1304 73.5386 89.7935 73.8755C89.4565 74.2124 89.2673 74.6694 89.2673 75.1459L89.2673 84.2711L89.2673 84.2716C89.2721 86.8991 89.8335 89.4957 90.9145 91.8904C91.8977 94.0686 93.2905 96.0349 95.0147 97.6833H91.0638C90.5874 97.6833 90.1304 97.8726 89.7935 98.2095C89.4565 98.5464 89.2673 99.0034 89.2673 99.4799C89.2673 99.9564 89.4565 100.413 89.7935 100.75C90.1304 101.087 90.5874 101.276 91.0638 101.276H124.523C125 101.276 125.457 101.087 125.793 100.75C126.13 100.413 126.32 99.9564 126.32 99.4799C126.32 99.0034 126.13 98.5464 125.793 98.2095C125.457 97.8726 125 97.6833 124.523 97.6833H120.568C122.625 95.7031 124.208 93.2809 125.197 90.5973C127.129 90.4316 128.934 89.5589 130.265 88.1428C131.638 86.6826 132.402 84.7543 132.403 82.7504ZM122.16 88.307L122.158 88.3304L122.139 88.3603L122.129 88.3962C121.549 90.4092 120.553 92.2783 119.205 93.8827C117.872 95.471 116.223 96.765 114.364 97.6833H101.223C98.7277 96.4534 96.6238 94.5534 95.1468 92.1955C93.6587 89.8197 92.8665 87.0742 92.8604 84.2707V76.9425H122.727V84.2711V84.2719C122.73 85.6284 122.542 86.9786 122.167 88.2823L122.16 88.307Z" fill="white" stroke="white" stroke-width="0.551414"/>
<defs>
<filter id="filter0_f_425_11200" x="0.542969" y="33" width="114" height="114" filterUnits="userSpaceOnUse" color-interpolation-filters="sRGB">
<feFlood flood-opacity="0" result="BackgroundImageFix"/>
<feBlend mode="normal" in="SourceGraphic" in2="BackgroundImageFix" result="shape"/>
<feGaussianBlur stdDeviation="19" result="effect1_foregroundBlur_425_11200"/>
</filter>
<filter id="filter1_f_425_11200" x="103.457" y="5" width="101" height="101" filterUnits="userSpaceOnUse" color-interpolation-filters="sRGB">
<feFlood flood-opacity="0" result="BackgroundImageFix"/>
<feBlend mode="normal" in="SourceGraphic" in2="BackgroundImageFix" result="shape"/>
<feGaussianBlur stdDeviation="12" result="effect1_foregroundBlur_425_11200"/>
</filter>
<filter id="filter2_d_425_11200" x="32.3711" y="0" width="151" height="151" filterUnits="userSpaceOnUse" color-interpolation-filters="sRGB">
<feFlood flood-opacity="0" result="BackgroundImageFix"/>
<feColorMatrix in="SourceAlpha" type="matrix" values="0 0 0 0 0 0 0 0 0 0 0 0 0 0 0 0 0 0 127 0" result="hardAlpha"/>
<feOffset dy="4"/>
<feGaussianBlur stdDeviation="12.5"/>
<feComposite in2="hardAlpha" operator="out"/>
<feColorMatrix type="matrix" values="0 0 0 0 1 0 0 0 0 1 0 0 0 0 1 0 0 0 1 0"/>
<feBlend mode="normal" in2="BackgroundImageFix" result="effect1_dropShadow_425_11200"/>
<feBlend mode="normal" in="SourceGraphic" in2="effect1_dropShadow_425_11200" result="shape"/>
</filter>
</defs>
</svg>
