<svg width="195" height="168" viewBox="0 0 195 168" fill="none" xmlns="http://www.w3.org/2000/svg">
<g filter="url(#filter0_f_177_7008)">
<circle cx="57.8438" cy="57" r="19" fill="#E31E24"/>
</g>
<g filter="url(#filter1_f_177_7008)">
<circle cx="139" cy="114.5" r="26.5" fill="#2873B9"/>
</g>
<g filter="url(#filter2_d_177_7008)">
<circle cx="100" cy="88.5" r="50.5" fill="#202430"/>
</g>
<path d="M84.5865 84.8886C85.1645 84.9643 85.7486 84.8056 86.2104 84.4474C86.6722 84.0891 86.9738 83.5608 87.049 82.9785C87.1241 82.3962 86.9666 81.8076 86.611 81.3424C86.2555 80.8771 85.731 80.5732 85.1531 80.4975L81.3178 79.5314C81.0382 79.4451 80.7442 79.4163 80.4533 79.4468C80.1625 79.4774 79.8806 79.5666 79.6247 79.7092C79.3688 79.8517 79.1439 80.0448 78.9636 80.2767C78.7833 80.5087 78.6511 80.7749 78.575 81.0594C78.499 81.3439 78.4805 81.6409 78.5207 81.9328C78.561 82.2246 78.6592 82.5054 78.8094 82.7582C78.9596 83.011 79.1587 83.2308 79.395 83.4044C79.6313 83.5781 79.8999 83.702 80.1847 83.7689L84.02 84.8008C84.2025 84.8622 84.3941 84.8918 84.5865 84.8886ZM92.998 72.6154C93.1257 73.0944 93.4106 73.5157 93.8063 73.8108C94.202 74.1058 94.6852 74.2571 95.1771 74.2401C95.3648 74.2705 95.556 74.2705 95.7437 74.2401C96.2968 74.086 96.7672 73.7182 97.0528 73.2167C97.3384 72.7152 97.4161 72.1205 97.2691 71.5616L96.2449 67.6974C96.1785 67.4104 96.0555 67.1398 95.8832 66.9018C95.7108 66.6637 95.4927 66.463 95.2418 66.3117C94.9908 66.1604 94.7122 66.0615 94.4226 66.0209C94.1329 65.9803 93.8381 65.9989 93.5557 66.0756C93.2733 66.1523 93.0091 66.2854 92.7789 66.4671C92.5486 66.6488 92.3571 66.8753 92.2156 67.1332C92.074 67.3911 91.9855 67.675 91.9552 67.9681C91.9249 68.2611 91.9534 68.5574 92.0392 68.8391L92.998 72.6154ZM85.5018 76.1064C85.9077 76.512 86.4555 76.7407 87.0272 76.7431C87.3139 76.7447 87.5982 76.6894 87.8637 76.5801C88.1292 76.4708 88.3707 76.3099 88.5743 76.1064C88.9802 75.695 89.208 75.1385 89.208 74.5585C89.208 73.9785 88.9802 73.422 88.5743 73.0106L85.7633 70.1784C85.3464 69.8187 84.8102 69.6307 84.2617 69.6521C83.7133 69.6734 83.193 69.9025 82.805 70.2935C82.4169 70.6845 82.1895 71.2087 82.1683 71.7612C82.1471 72.3138 82.3337 72.8541 82.6907 73.2741L85.5018 76.1064ZM120.586 92.0461L116.707 91.1679C116.423 91.0689 116.121 91.0303 115.822 91.0544C115.522 91.0785 115.23 91.1649 114.965 91.3081C114.7 91.4513 114.467 91.6482 114.282 91.8864C114.096 92.1247 113.961 92.3991 113.886 92.6924C113.81 92.9857 113.796 93.2915 113.843 93.5907C113.891 93.8898 114 94.1758 114.162 94.4306C114.325 94.6855 114.538 94.9036 114.789 95.0714C115.039 95.2391 115.321 95.3528 115.617 95.4053L119.453 96.4372H120.019C120.597 96.5129 121.181 96.3542 121.643 95.996C122.105 95.6378 122.407 95.1094 122.482 94.5271C122.557 93.9448 122.399 93.3563 122.044 92.891C121.688 92.4257 121.164 92.1218 120.586 92.0461ZM107.729 103.353C107.653 103.075 107.524 102.814 107.348 102.586C107.173 102.358 106.954 102.168 106.705 102.025C106.456 101.882 106.182 101.79 105.897 101.754C105.613 101.719 105.325 101.74 105.049 101.816C104.495 101.971 104.025 102.338 103.739 102.84C103.454 103.341 103.376 103.936 103.523 104.495L104.547 108.359C104.675 108.838 104.96 109.259 105.356 109.554C105.751 109.849 106.235 110.001 106.727 109.984C106.915 110.005 107.105 110.005 107.293 109.984C107.571 109.91 107.832 109.781 108.061 109.605C108.29 109.429 108.481 109.209 108.625 108.958C108.769 108.707 108.862 108.43 108.899 108.142C108.936 107.855 108.916 107.563 108.84 107.283L107.729 103.353ZM115.225 99.9062C114.808 99.5465 114.272 99.3586 113.724 99.3799C113.175 99.4012 112.655 99.6303 112.267 100.021C111.879 100.412 111.651 100.937 111.63 101.489C111.609 102.042 111.796 102.582 112.153 103.002L114.964 105.834C115.372 106.243 115.924 106.473 116.5 106.473C117.076 106.473 117.628 106.243 118.036 105.834C118.442 105.423 118.67 104.866 118.67 104.286C118.67 103.706 118.442 103.15 118.036 102.738L115.225 99.9062Z" fill="white"/>
<path d="M103.526 94.5718C103.323 94.3558 103.078 94.1839 102.806 94.0664C102.534 93.949 102.242 93.8884 101.946 93.8884C101.651 93.8884 101.358 93.949 101.087 94.0664C100.815 94.1839 100.57 94.3558 100.367 94.5718L92.7396 102.388C91.8428 103.255 90.6482 103.739 89.4055 103.739C88.1628 103.739 86.9682 103.255 86.0714 102.388C85.63 101.949 85.2795 101.426 85.0403 100.849C84.8011 100.273 84.6779 99.6537 84.6779 99.0287C84.6779 98.4037 84.8011 97.785 85.0403 97.2083C85.2795 96.6317 85.63 96.1086 86.0714 95.6695L93.8292 87.9851C94.0573 87.7883 94.2425 87.546 94.3733 87.2737C94.5041 87.0013 94.5776 86.7046 94.5892 86.4022C94.6008 86.0998 94.5503 85.7983 94.4407 85.5166C94.3312 85.2348 94.165 84.9789 93.9526 84.765C93.7402 84.551 93.4863 84.3836 93.2066 84.2732C92.927 84.1628 92.6277 84.1119 92.3276 84.1235C92.0275 84.1352 91.733 84.2093 91.4627 84.3411C91.1923 84.4728 90.9519 84.6595 90.7566 84.8893L82.9335 92.5518C82.0864 93.4053 81.4145 94.4185 80.9561 95.5335C80.4977 96.6486 80.2617 97.8437 80.2617 99.0507C80.2617 100.258 80.4977 101.453 80.9561 102.568C81.4145 103.683 82.0864 104.696 82.9335 105.55C83.7806 106.403 84.7862 107.08 85.8929 107.542C86.9996 108.004 88.1858 108.241 89.3837 108.241C90.5816 108.241 91.7678 108.004 92.8746 107.542C93.9813 107.08 94.9869 106.403 95.834 105.55L103.526 97.7992C103.747 97.5936 103.924 97.3441 104.045 97.0664C104.166 96.7886 104.228 96.4887 104.228 96.1855C104.228 95.8823 104.166 95.5824 104.045 95.3046C103.924 95.0269 103.747 94.7773 103.526 94.5718ZM120.415 77.0073C120.448 75.1816 119.938 73.3875 118.95 71.8567C117.962 70.326 116.541 69.1288 114.871 68.4198C113.201 67.7107 111.358 67.5224 109.58 67.879C107.803 68.2357 106.172 69.121 104.899 70.4206L97.2068 78.2368C97.0008 78.4458 96.8376 78.6937 96.7267 78.9663C96.6157 79.2389 96.5591 79.5308 96.5601 79.8254C96.5611 80.12 96.6197 80.4115 96.7326 80.6833C96.8454 80.9551 97.0102 81.2018 97.2177 81.4094C97.4252 81.617 97.6712 81.7814 97.9417 81.8932C98.2123 82.005 98.502 82.062 98.7944 82.061C99.0868 82.0599 99.3761 82.0009 99.6459 81.8872C99.9156 81.7735 100.161 81.6074 100.367 81.3984L107.994 73.5822C108.89 72.7154 110.085 72.2314 111.328 72.2314C112.57 72.2314 113.765 72.7154 114.662 73.5822C115.103 74.0213 115.454 74.5444 115.693 75.121C115.932 75.6977 116.055 76.3164 116.055 76.9414C116.055 77.5664 115.932 78.1852 115.693 78.7618C115.454 79.3385 115.103 79.8615 114.662 80.3006L106.904 87.9851C106.498 88.3964 106.27 88.9529 106.27 89.5329C106.27 90.113 106.498 90.6695 106.904 91.0808C107.312 91.4897 107.865 91.7193 108.44 91.7193C109.016 91.7193 109.568 91.4897 109.977 91.0808L117.8 83.4183C119.468 81.7065 120.406 79.4061 120.415 77.0073Z" fill="white"/>
<defs>
<filter id="filter0_f_177_7008" x="0.84375" y="0" width="114" height="114" filterUnits="userSpaceOnUse" color-interpolation-filters="sRGB">
<feFlood flood-opacity="0" result="BackgroundImageFix"/>
<feBlend mode="normal" in="SourceGraphic" in2="BackgroundImageFix" result="shape"/>
<feGaussianBlur stdDeviation="19" result="effect1_foregroundBlur_177_7008"/>
</filter>
<filter id="filter1_f_177_7008" x="88.5" y="64" width="101" height="101" filterUnits="userSpaceOnUse" color-interpolation-filters="sRGB">
<feFlood flood-opacity="0" result="BackgroundImageFix"/>
<feBlend mode="normal" in="SourceGraphic" in2="BackgroundImageFix" result="shape"/>
<feGaussianBlur stdDeviation="12" result="effect1_foregroundBlur_177_7008"/>
</filter>
<filter id="filter2_d_177_7008" x="24.5" y="17" width="151" height="151" filterUnits="userSpaceOnUse" color-interpolation-filters="sRGB">
<feFlood flood-opacity="0" result="BackgroundImageFix"/>
<feColorMatrix in="SourceAlpha" type="matrix" values="0 0 0 0 0 0 0 0 0 0 0 0 0 0 0 0 0 0 127 0" result="hardAlpha"/>
<feOffset dy="4"/>
<feGaussianBlur stdDeviation="12.5"/>
<feComposite in2="hardAlpha" operator="out"/>
<feColorMatrix type="matrix" values="0 0 0 0 1 0 0 0 0 1 0 0 0 0 1 0 0 0 1 0"/>
<feBlend mode="normal" in2="BackgroundImageFix" result="effect1_dropShadow_177_7008"/>
<feBlend mode="normal" in="SourceGraphic" in2="effect1_dropShadow_177_7008" result="shape"/>
</filter>
</defs>
</svg>
