<svg width="17" height="15" viewBox="0 0 17 15" fill="none" xmlns="http://www.w3.org/2000/svg">
<path d="M17 3.79463V11.8125C17 12.5584 16.7201 13.2738 16.222 13.8012C15.7239 14.3287 15.0482 14.625 14.3438 14.625H2.65625C1.95177 14.625 1.27614 14.3287 0.777998 13.8012C0.279854 13.2738 0 12.5584 0 11.8125V3.79463L8.23013 8.92237C8.31189 8.97343 8.40508 9.00036 8.5 9.00036C8.59492 9.00036 8.68811 8.97343 8.76987 8.92237L17 3.79463ZM14.3438 3.48218e-08C14.9973 -0.000108805 15.628 0.254932 16.1152 0.716332C16.6023 1.17773 16.9116 1.8131 16.9841 2.50087L8.5 7.785L0.0159376 2.50087C0.0883557 1.8131 0.397719 1.17773 0.884845 0.716332C1.37197 0.254932 2.00266 -0.000108805 2.65625 3.48218e-08H14.3438Z" fill="#2873B9"/>
</svg>
