<svg width="6" height="11" viewBox="0 0 6 11" fill="none" xmlns="http://www.w3.org/2000/svg">
<path d="M5.50966 10.2252C5.64885 10.086 5.72705 9.89717 5.72705 9.70029C5.72705 9.5034 5.64885 9.31458 5.50966 9.17534L1.83428 5.49997L5.50966 1.82459C5.64491 1.68455 5.71975 1.497 5.71806 1.30232C5.71637 1.10763 5.63828 0.921407 5.50061 0.783741C5.36295 0.646075 5.17672 0.567988 4.98204 0.566297C4.78736 0.564605 4.5998 0.639444 4.45976 0.774697L0.259442 4.97502C0.120244 5.11426 0.0420477 5.30308 0.0420477 5.49996C0.0420477 5.69685 0.120244 5.88567 0.259442 6.02491L4.45976 10.2252C4.599 10.3644 4.78783 10.4426 4.98471 10.4426C5.18159 10.4426 5.37042 10.3644 5.50966 10.2252Z" fill="#C5C6C7"/>
</svg>
