<svg width="6" height="11" viewBox="0 0 6 11" fill="none" xmlns="http://www.w3.org/2000/svg">
<path d="M0.490343 10.2252C0.351146 10.086 0.272949 9.89717 0.272949 9.70029C0.272949 9.5034 0.351146 9.31458 0.490343 9.17534L4.16572 5.49997L0.490343 1.82459C0.35509 1.68455 0.28025 1.497 0.281942 1.30232C0.283634 1.10763 0.361722 0.921407 0.499387 0.783741C0.637053 0.646075 0.823281 0.567988 1.01796 0.566297C1.21264 0.564605 1.4002 0.639444 1.54024 0.774697L5.74056 4.97502C5.87976 5.11426 5.95795 5.30308 5.95795 5.49996C5.95795 5.69685 5.87976 5.88567 5.74056 6.02491L1.54024 10.2252C1.401 10.3644 1.21217 10.4426 1.01529 10.4426C0.818406 10.4426 0.629582 10.3644 0.490343 10.2252Z" fill="#C5C6C7"/>
</svg>
