<svg width="33" height="33" viewBox="0 0 33 33" fill="none" xmlns="http://www.w3.org/2000/svg">
<g opacity="0.8">
<path d="M12.75 21.876V11.124C12.7502 10.9895 12.7866 10.8575 12.8554 10.7419C12.9242 10.6262 13.0228 10.5312 13.1409 10.4668C13.259 10.4024 13.3922 10.3709 13.5267 10.3757C13.6611 10.3805 13.7918 10.4214 13.905 10.494L22.269 15.8685C22.3749 15.9364 22.462 16.0298 22.5224 16.1401C22.5828 16.2505 22.6144 16.3742 22.6144 16.5C22.6144 16.6258 22.5828 16.7495 22.5224 16.8599C22.462 16.9702 22.3749 17.0636 22.269 17.1315L13.905 22.5075C13.7918 22.5801 13.6611 22.621 13.5267 22.6258C13.3922 22.6306 13.259 22.5991 13.1409 22.5347C13.0228 22.4703 12.9242 22.3753 12.8554 22.2596C12.7866 22.144 12.7502 22.012 12.75 21.8775V21.876Z" fill="white"/>
<path fill-rule="evenodd" clip-rule="evenodd" d="M16.5 2.25C12.7207 2.25 9.09612 3.75133 6.42373 6.42373C3.75133 9.09612 2.25 12.7207 2.25 16.5C2.25 20.2793 3.75133 23.9039 6.42373 26.5763C9.09612 29.2487 12.7207 30.75 16.5 30.75C20.2793 30.75 23.9039 29.2487 26.5763 26.5763C29.2487 23.9039 30.75 20.2793 30.75 16.5C30.75 12.7207 29.2487 9.09612 26.5763 6.42373C23.9039 3.75133 20.2793 2.25 16.5 2.25ZM0 16.5C0 7.3875 7.3875 0 16.5 0C25.6125 0 33 7.3875 33 16.5C33 25.6125 25.6125 33 16.5 33C7.3875 33 0 25.6125 0 16.5Z" fill="white"/>
</g>
</svg>
