<svg width="9" height="5" viewBox="0 0 9 5" fill="none" xmlns="http://www.w3.org/2000/svg">
<path d="M0.920552 0.477192C1.02604 0.37174 1.16908 0.3125 1.31824 0.3125C1.46739 0.3125 1.61044 0.37174 1.71593 0.477192L4.5003 3.26157L7.28467 0.477192C7.39076 0.374729 7.53285 0.318031 7.68034 0.319313C7.82782 0.320595 7.96891 0.379752 8.0732 0.484044C8.17749 0.588336 8.23665 0.729418 8.23793 0.876904C8.23921 1.02439 8.18251 1.16648 8.08005 1.27257L4.89799 4.45463C4.7925 4.56008 4.64946 4.61932 4.5003 4.61932C4.35115 4.61932 4.2081 4.56008 4.10261 4.45463L0.920552 1.27257C0.815099 1.16708 0.755859 1.02403 0.755859 0.87488C0.755859 0.725725 0.815099 0.582677 0.920552 0.477192Z" fill="white"/>
</svg>
