<svg width="9" height="17" viewBox="0 0 9 17" fill="none" xmlns="http://www.w3.org/2000/svg">
<path d="M0.344159 15.9639C0.123794 15.7438 -3.76964e-08 15.4452 -5.13031e-08 15.1339C-6.49097e-08 14.8227 0.123794 14.5241 0.344159 14.304L6.16269 8.49303L0.344159 2.68209C0.130039 2.46068 0.0115585 2.16414 0.0142367 1.85634C0.0169149 1.54854 0.140537 1.25411 0.358477 1.03645C0.576417 0.818796 0.871237 0.695336 1.17944 0.692662C1.48764 0.689987 1.78456 0.808312 2.00626 1.02215L8.65584 7.66306C8.87621 7.88321 9 8.18175 9 8.49303C9 8.80431 8.87621 9.10285 8.65584 9.323L2.00626 15.9639C1.78583 16.184 1.4869 16.3076 1.17521 16.3076C0.863519 16.3076 0.564591 16.184 0.344159 15.9639Z" fill="#818A9E"/>
</svg>
