<svg width="16" height="17" viewBox="0 0 16 17" fill="none" xmlns="http://www.w3.org/2000/svg">
<path d="M0.5 8.5C0.5 12.6421 3.85786 16 8 16C12.1421 16 15.5 12.6421 15.5 8.5C15.5 4.35786 12.1421 1 8 1C3.85786 1 0.5 4.35786 0.5 8.5Z" fill="white" stroke="#C5C6C7" stroke-linecap="round" stroke-linejoin="round"/>
<path d="M11 9.55542C11.2761 9.55542 11.5 9.33156 11.5 9.05542C11.5 8.77928 11.2761 8.55542 11 8.55542V9.55542ZM8 9.05542H7.5V9.55542H8V9.05542ZM8.5 4.05542C8.5 3.77928 8.27614 3.55542 8 3.55542C7.72386 3.55542 7.5 3.77928 7.5 4.05542H8.5ZM11 8.55542H8V9.55542H11V8.55542ZM8.5 9.05542V4.05542H7.5V9.05542H8.5Z" fill="#C5C6C7"/>
</svg>
