<svg width="16" height="16" viewBox="0 0 16 16" fill="none" xmlns="http://www.w3.org/2000/svg">
<path d="M0.5 8C0.5 12.1421 3.85786 15.5 8 15.5C12.1421 15.5 15.5 12.1421 15.5 8C15.5 3.85786 12.1421 0.5 8 0.5C3.85786 0.5 0.5 3.85786 0.5 8Z" stroke="white" stroke-linecap="round" stroke-linejoin="round"/>
<path d="M11 9.05542C11.2761 9.05542 11.5 8.83156 11.5 8.55542C11.5 8.27928 11.2761 8.05542 11 8.05542V9.05542ZM8 8.55542H7.5V9.05542H8V8.55542ZM8.5 3.55542C8.5 3.27928 8.27614 3.05542 8 3.05542C7.72386 3.05542 7.5 3.27928 7.5 3.55542H8.5ZM11 8.05542H8V9.05542H11V8.05542ZM8.5 8.55542V3.55542H7.5V8.55542H8.5Z" fill="white"/>
</svg>
