<svg width="6" height="9" viewBox="0 0 6 9" fill="none" xmlns="http://www.w3.org/2000/svg">
<path d="M0.977192 8.07945C0.87174 7.97396 0.8125 7.83092 0.8125 7.68176C0.8125 7.53261 0.87174 7.38956 0.977192 7.28407L3.76157 4.4997L0.977192 1.71533C0.874728 1.60924 0.818031 1.46715 0.819313 1.31966C0.820594 1.17218 0.879752 1.03109 0.984044 0.926802C1.08834 0.82251 1.22942 0.763353 1.3769 0.762072C1.52439 0.76079 1.66648 0.817487 1.77257 0.91995L4.95463 4.10201C5.06008 4.2075 5.11932 4.35054 5.11932 4.4997C5.11932 4.64885 5.06008 4.7919 4.95463 4.89739L1.77257 8.07945C1.66708 8.1849 1.52403 8.24414 1.37488 8.24414C1.22572 8.24414 1.08268 8.1849 0.977192 8.07945Z" fill="#C5C6C7"/>
</svg>
