<svg width="23" height="23" viewBox="0 0 23 23" fill="none" xmlns="http://www.w3.org/2000/svg">
<path d="M8.99903 3.3684e-08C7.5614 0.000155699 6.14473 0.344701 4.86761 1.00479C3.59049 1.66489 2.49007 2.62132 1.65849 3.79402C0.826908 4.96672 0.288354 6.32158 0.0879101 7.74516C-0.112533 9.16874 0.0309677 10.6196 0.5064 11.9764C0.981833 13.3331 1.77536 14.5562 2.82056 15.5433C3.86576 16.5304 5.13221 17.2527 6.5139 17.6498C7.89558 18.0469 9.3523 18.1073 10.7621 17.8258C12.1719 17.5443 13.4938 16.9292 14.617 16.032L21.292 22.707C21.4806 22.8892 21.7332 22.99 21.9954 22.9877C22.2576 22.9854 22.5084 22.8802 22.6938 22.6948C22.8793 22.5094 22.9844 22.2586 22.9867 21.9964C22.989 21.7342 22.8882 21.4816 22.706 21.293L16.031 14.618C17.089 13.2939 17.7516 11.6979 17.9425 10.0138C18.1334 8.32966 17.8449 6.62586 17.1102 5.0985C16.3754 3.57113 15.2243 2.28228 13.7894 1.38029C12.3544 0.478308 10.6939 -0.000146577 8.99903 3.3684e-08ZM1.99903 9C1.99903 7.14348 2.73652 5.36301 4.04928 4.05025C5.36203 2.7375 7.14251 2 8.99903 2C10.8555 2 12.636 2.7375 13.9488 4.05025C15.2615 5.36301 15.999 7.14348 15.999 9C15.999 10.8565 15.2615 12.637 13.9488 13.9497C12.636 15.2625 10.8555 16 8.99903 16C7.14251 16 5.36203 15.2625 4.04928 13.9497C2.73652 12.637 1.99903 10.8565 1.99903 9Z" fill="#202430"/>
</svg>
