<svg width="29" height="29" viewBox="0 0 29 29" fill="none" xmlns="http://www.w3.org/2000/svg">
<path d="M11.3527 4.24938e-08C9.53904 0.000196422 7.75185 0.434855 6.1407 1.26759C4.52955 2.10033 3.14134 3.3069 2.09226 4.78632C1.04318 6.26574 0.36377 7.97494 0.110902 9.77086C-0.141966 11.5668 0.0390671 13.3971 0.638846 15.1087C1.23862 16.8203 2.2397 18.3633 3.55826 19.6085C4.87682 20.8538 6.4745 21.765 8.21756 22.266C9.96062 22.767 11.7983 22.8431 13.5769 22.488C15.3554 22.133 17.023 21.357 18.44 20.2251L26.8608 28.6459C27.0987 28.8757 27.4174 29.0028 27.7482 29C28.079 28.9971 28.3954 28.8644 28.6293 28.6305C28.8632 28.3966 28.9959 28.0802 28.9987 27.7494C29.0016 27.4186 28.8744 27.1 28.6446 26.862L20.2238 18.4412C21.5585 16.7708 22.3944 14.7574 22.6353 12.6328C22.8761 10.5082 22.5122 8.35881 21.5852 6.43197C20.6583 4.50514 19.2062 2.87919 17.3959 1.7413C15.5856 0.603407 13.4909 -0.000184914 11.3527 4.24938e-08V4.24938e-08ZM2.52186 11.3539C2.52186 9.01182 3.45224 6.76567 5.10834 5.10957C6.76444 3.45347 9.01059 2.52309 11.3527 2.52309C13.6947 2.52309 15.9409 3.45347 17.597 5.10957C19.2531 6.76567 20.1835 9.01182 20.1835 11.3539C20.1835 13.696 19.2531 15.9421 17.597 17.5982C15.9409 19.2543 13.6947 20.1847 11.3527 20.1847C9.01059 20.1847 6.76444 19.2543 5.10834 17.5982C3.45224 15.9421 2.52186 13.696 2.52186 11.3539V11.3539Z" fill="#2873B9"/>
</svg>
