<svg width="20" height="20" viewBox="0 0 20 20" fill="none" xmlns="http://www.w3.org/2000/svg">
<path fill-rule="evenodd" clip-rule="evenodd" d="M17.0738 2.92634C17.9957 3.85045 18.7189 4.92634 19.2233 6.125C19.7434 7.36607 20.0068 8.68527 20.0001 10.0446C19.9934 11.3973 19.7256 12.7076 19.1988 13.9397C18.6921 15.1295 17.9666 16.1964 17.0448 17.1094C16.1251 18.0223 15.0515 18.7366 13.8573 19.2344C12.6363 19.7411 11.3394 20 10.0024 20H9.95548C8.40638 19.9933 6.86843 19.6228 5.49343 18.9286H2.09834C1.53138 18.9286 1.07155 18.4688 1.07155 17.9018V14.5089C0.377358 13.1339 0.00682306 11.596 0.000126635 10.0469C-0.00656979 8.6942 0.252359 7.37946 0.765752 6.14286C1.26129 4.94866 1.97781 3.87723 2.89075 2.95536C3.8037 2.03348 4.87066 1.31027 6.0604 0.801339C7.29254 0.274554 8.60281 0.00669643 9.95548 0H10.0001C11.3439 0 12.6474 0.261161 13.8751 0.776786C15.076 1.27902 16.1519 2.00446 17.0738 2.92634ZM12.8177 11.163C13.0431 11.2433 14.2552 11.8371 14.4985 11.9621C14.5381 11.9814 14.5757 11.9992 14.6111 12.0159C14.7928 12.102 14.9168 12.1607 14.9672 12.2523C15.0275 12.3549 15.0275 12.8482 14.8244 13.4241C14.6212 14.0023 13.6413 14.5246 13.1659 14.596C12.3846 14.7121 11.773 14.6541 10.2105 13.9799C7.90969 12.9844 6.3559 10.7638 6.0519 10.3293C6.02942 10.2972 6.01377 10.2748 6.00516 10.2634C6.00218 10.2593 5.99873 10.2546 5.99485 10.2493C5.84155 10.0403 5.00293 8.89645 5.00293 7.71655C5.00293 6.58697 5.5575 5.99251 5.81457 5.71695C5.83283 5.69738 5.84958 5.67941 5.86454 5.66298C6.08998 5.41968 6.35561 5.35718 6.52079 5.35718C6.68597 5.35718 6.84891 5.35718 6.99177 5.36611C7.00997 5.36719 7.029 5.36716 7.04874 5.36712C7.19121 5.36684 7.37086 5.36648 7.54534 5.78798C7.61407 5.95309 7.71481 6.19846 7.82078 6.45656C8.03141 6.96961 8.26269 7.53294 8.30427 7.61611C8.36677 7.74111 8.40695 7.88173 8.32659 8.04691C8.11733 8.46445 7.90145 8.69029 7.74828 8.85055C7.55671 9.05097 7.46321 9.14879 7.60338 9.39066C8.5565 11.0268 9.50516 11.5938 10.9516 12.317C11.1949 12.4398 11.34 12.4197 11.4828 12.2545C11.6302 12.0871 12.0989 11.5357 12.2641 11.288C12.427 11.038 12.5922 11.0782 12.8177 11.163Z" fill="white"/>
</svg>
